<mxfile host="app.diagrams.net" modified="2023-06-26T19:12:22.570Z" agent="Mozilla/5.0 (Windows NT 10.0; Win64; x64) AppleWebKit/537.36 (KHTML, like Gecko) Chrome/109.0.0.0 Safari/537.36" etag="zMPUtji9GorFiywFd_KG" version="21.5.0" type="device" pages="3">
  <diagram name="SCHEDULER" id="GU7smY-RbOav773WAD1q">
    <mxGraphModel dx="2389" dy="1927" grid="1" gridSize="10" guides="1" tooltips="1" connect="1" arrows="1" fold="1" page="1" pageScale="1" pageWidth="827" pageHeight="1169" math="0" shadow="0">
      <root>
        <mxCell id="iz9lgZ_pq5O3MmPFu8a6-0" />
        <mxCell id="iz9lgZ_pq5O3MmPFu8a6-1" parent="iz9lgZ_pq5O3MmPFu8a6-0" />
        <mxCell id="iz9lgZ_pq5O3MmPFu8a6-2" style="edgeStyle=orthogonalEdgeStyle;rounded=0;orthogonalLoop=1;jettySize=auto;html=1;exitX=0;exitY=0.25;exitDx=0;exitDy=0;exitPerimeter=0;fontSize=12;startArrow=classic;startFill=1;endArrow=none;endFill=0;endSize=15;sourcePerimeterSpacing=18;targetPerimeterSpacing=0;strokeColor=#000000;" parent="iz9lgZ_pq5O3MmPFu8a6-1" edge="1">
          <mxGeometry relative="1" as="geometry">
            <mxPoint x="44" y="959.5" as="sourcePoint" />
          </mxGeometry>
        </mxCell>
        <mxCell id="iz9lgZ_pq5O3MmPFu8a6-3" style="edgeStyle=orthogonalEdgeStyle;rounded=0;orthogonalLoop=1;jettySize=auto;html=1;exitX=1;exitY=0.5;exitDx=0;exitDy=0;exitPerimeter=0;entryX=0;entryY=0.25;entryDx=0;entryDy=0;entryPerimeter=0;fontSize=10;fontColor=#000000;startArrow=none;startFill=0;endArrow=classic;endFill=1;endSize=6;sourcePerimeterSpacing=18;targetPerimeterSpacing=0;strokeColor=#000000;strokeWidth=1;" parent="iz9lgZ_pq5O3MmPFu8a6-1" edge="1">
          <mxGeometry relative="1" as="geometry">
            <mxPoint x="187" y="967.5" as="targetPoint" />
          </mxGeometry>
        </mxCell>
        <mxCell id="iz9lgZ_pq5O3MmPFu8a6-4" style="edgeStyle=orthogonalEdgeStyle;rounded=0;orthogonalLoop=1;jettySize=auto;html=1;exitX=0;exitY=0.75;exitDx=0;exitDy=0;exitPerimeter=0;fontSize=10;fontColor=#000000;startArrow=classic;startFill=1;endArrow=none;endFill=0;endSize=6;sourcePerimeterSpacing=18;targetPerimeterSpacing=0;strokeColor=#000000;strokeWidth=1;" parent="iz9lgZ_pq5O3MmPFu8a6-1" edge="1">
          <mxGeometry relative="1" as="geometry">
            <mxPoint x="187" y="982.5" as="sourcePoint" />
          </mxGeometry>
        </mxCell>
        <mxCell id="iz9lgZ_pq5O3MmPFu8a6-5" value="" style="rounded=0;whiteSpace=wrap;html=1;fontSize=24;fillColor=#BBD3F7;strokeColor=#6c8ebf;gradientColor=#A2BFEC;" parent="iz9lgZ_pq5O3MmPFu8a6-1" vertex="1">
          <mxGeometry x="-228.5" y="17.5" width="588.5" height="862.5" as="geometry" />
        </mxCell>
        <mxCell id="iz9lgZ_pq5O3MmPFu8a6-6" value="&lt;font style=&quot;font-size: 40px;&quot;&gt;Scheduler&lt;/font&gt;" style="text;html=1;align=center;verticalAlign=middle;resizable=0;points=[];autosize=1;strokeColor=none;fillColor=none;" parent="iz9lgZ_pq5O3MmPFu8a6-1" vertex="1">
          <mxGeometry x="-34.25" y="-42.5" width="200" height="60" as="geometry" />
        </mxCell>
        <mxCell id="iz9lgZ_pq5O3MmPFu8a6-7" style="edgeStyle=orthogonalEdgeStyle;rounded=0;orthogonalLoop=1;jettySize=auto;html=1;startArrow=classic;startFill=1;endArrow=none;endFill=0;exitX=-0.011;exitY=0.178;exitDx=0;exitDy=0;exitPerimeter=0;fillColor=#f8cecc;strokeColor=#000000;" parent="iz9lgZ_pq5O3MmPFu8a6-1" source="iz9lgZ_pq5O3MmPFu8a6-97" target="iz9lgZ_pq5O3MmPFu8a6-27" edge="1">
          <mxGeometry relative="1" as="geometry">
            <mxPoint x="-190" y="412.41176470588243" as="targetPoint" />
            <mxPoint x="401" y="514.5" as="sourcePoint" />
            <Array as="points">
              <mxPoint x="-130" y="368" />
              <mxPoint x="-130" y="368" />
            </Array>
          </mxGeometry>
        </mxCell>
        <mxCell id="iz9lgZ_pq5O3MmPFu8a6-9" style="edgeStyle=orthogonalEdgeStyle;rounded=0;orthogonalLoop=1;jettySize=auto;html=1;fontSize=12;exitX=1;exitY=0.5;exitDx=0;exitDy=0;strokeWidth=3;" parent="iz9lgZ_pq5O3MmPFu8a6-1" source="iz9lgZ_pq5O3MmPFu8a6-38" target="iz9lgZ_pq5O3MmPFu8a6-10" edge="1">
          <mxGeometry relative="1" as="geometry">
            <mxPoint x="244.99999999999955" y="70.00000000000023" as="targetPoint" />
            <mxPoint x="202.99999999997544" y="158" as="sourcePoint" />
            <Array as="points" />
          </mxGeometry>
        </mxCell>
        <mxCell id="iz9lgZ_pq5O3MmPFu8a6-10" value="DescDataOut_packet" style="text;html=1;align=center;verticalAlign=middle;resizable=0;points=[];autosize=1;strokeColor=none;fillColor=none;fontSize=19;" parent="iz9lgZ_pq5O3MmPFu8a6-1" vertex="1">
          <mxGeometry x="407" y="49" width="200" height="40" as="geometry" />
        </mxCell>
        <mxCell id="iz9lgZ_pq5O3MmPFu8a6-11" value="&lt;span style=&quot;color: rgb(0, 0, 0); font-family: Helvetica; font-size: 19px; font-style: normal; font-variant-ligatures: normal; font-variant-caps: normal; font-weight: 400; letter-spacing: normal; orphans: 2; text-align: center; text-indent: 0px; text-transform: none; widows: 2; word-spacing: 0px; -webkit-text-stroke-width: 0px; background-color: rgb(248, 249, 250); text-decoration-thickness: initial; text-decoration-style: initial; text-decoration-color: initial; float: none; display: inline !important;&quot;&gt;DescDataIn_packet&lt;/span&gt;" style="text;whiteSpace=wrap;html=1;fontSize=19;" parent="iz9lgZ_pq5O3MmPFu8a6-1" vertex="1">
          <mxGeometry x="-456" y="38" width="178" height="42" as="geometry" />
        </mxCell>
        <mxCell id="iz9lgZ_pq5O3MmPFu8a6-12" style="edgeStyle=orthogonalEdgeStyle;rounded=0;orthogonalLoop=1;jettySize=auto;html=1;fontSize=12;" parent="iz9lgZ_pq5O3MmPFu8a6-1" source="iz9lgZ_pq5O3MmPFu8a6-97" target="iz9lgZ_pq5O3MmPFu8a6-13" edge="1">
          <mxGeometry relative="1" as="geometry">
            <mxPoint x="726" y="818" as="targetPoint" />
            <mxPoint x="316" y="660" as="sourcePoint" />
            <Array as="points">
              <mxPoint x="5" y="628" />
            </Array>
          </mxGeometry>
        </mxCell>
        <mxCell id="iz9lgZ_pq5O3MmPFu8a6-13" value="Issue&lt;br&gt;(There is a Valid transaction)" style="text;html=1;align=center;verticalAlign=middle;resizable=0;points=[];autosize=1;strokeColor=none;fillColor=none;fontSize=19;" parent="iz9lgZ_pq5O3MmPFu8a6-1" vertex="1">
          <mxGeometry x="377" y="598" width="260" height="60" as="geometry" />
        </mxCell>
        <mxCell id="iz9lgZ_pq5O3MmPFu8a6-14" value="BRAMAddr" style="text;html=1;align=center;verticalAlign=middle;resizable=0;points=[];autosize=1;strokeColor=none;fillColor=none;fontSize=19;" parent="iz9lgZ_pq5O3MmPFu8a6-1" vertex="1">
          <mxGeometry x="447" y="135.5" width="120" height="40" as="geometry" />
        </mxCell>
        <mxCell id="iz9lgZ_pq5O3MmPFu8a6-15" style="edgeStyle=orthogonalEdgeStyle;rounded=0;orthogonalLoop=1;jettySize=auto;html=1;fontSize=12;exitX=0.5;exitY=0;exitDx=0;exitDy=0;" parent="iz9lgZ_pq5O3MmPFu8a6-1" source="iz9lgZ_pq5O3MmPFu8a6-59" target="iz9lgZ_pq5O3MmPFu8a6-14" edge="1">
          <mxGeometry relative="1" as="geometry">
            <mxPoint x="552.3699999999999" y="135" as="targetPoint" />
            <mxPoint x="444.3699999999999" y="190" as="sourcePoint" />
            <Array as="points">
              <mxPoint x="290" y="156" />
              <mxPoint x="290" y="156" />
            </Array>
          </mxGeometry>
        </mxCell>
        <mxCell id="iz9lgZ_pq5O3MmPFu8a6-16" value="ValidFIFO&lt;br&gt;(Want to Write FIFO)" style="text;html=1;align=center;verticalAlign=middle;resizable=0;points=[];autosize=1;strokeColor=none;fillColor=none;fontSize=19;" parent="iz9lgZ_pq5O3MmPFu8a6-1" vertex="1">
          <mxGeometry x="407" y="463" width="200" height="60" as="geometry" />
        </mxCell>
        <mxCell id="iz9lgZ_pq5O3MmPFu8a6-17" value="DescAddrPointer&lt;br&gt;(Data For FIFO)" style="text;html=1;align=center;verticalAlign=middle;resizable=0;points=[];autosize=1;strokeColor=none;fillColor=none;fontSize=19;" parent="iz9lgZ_pq5O3MmPFu8a6-1" vertex="1">
          <mxGeometry x="422" y="532" width="170" height="60" as="geometry" />
        </mxCell>
        <mxCell id="iz9lgZ_pq5O3MmPFu8a6-18" value="Dequeue&lt;br&gt;(Take pointer of Next Desc)" style="text;html=1;align=center;verticalAlign=middle;resizable=0;points=[];autosize=1;strokeColor=none;fillColor=none;fontSize=19;" parent="iz9lgZ_pq5O3MmPFu8a6-1" vertex="1">
          <mxGeometry x="382" y="380" width="250" height="60" as="geometry" />
        </mxCell>
        <mxCell id="iz9lgZ_pq5O3MmPFu8a6-19" value="" style="shape=curlyBracket;whiteSpace=wrap;html=1;rounded=1;flipH=1;size=0.5;" parent="iz9lgZ_pq5O3MmPFu8a6-1" vertex="1">
          <mxGeometry x="626" y="50" width="29" height="310" as="geometry" />
        </mxCell>
        <mxCell id="iz9lgZ_pq5O3MmPFu8a6-20" value="" style="shape=curlyBracket;whiteSpace=wrap;html=1;rounded=1;flipH=1;size=0.5;" parent="iz9lgZ_pq5O3MmPFu8a6-1" vertex="1">
          <mxGeometry x="626" y="466" width="29" height="124" as="geometry" />
        </mxCell>
        <mxCell id="iz9lgZ_pq5O3MmPFu8a6-21" value="" style="shape=curlyBracket;whiteSpace=wrap;html=1;rounded=1;flipH=1;size=0.5;" parent="iz9lgZ_pq5O3MmPFu8a6-1" vertex="1">
          <mxGeometry x="626" y="389" width="29" height="50" as="geometry" />
        </mxCell>
        <mxCell id="iz9lgZ_pq5O3MmPFu8a6-22" value="" style="shape=curlyBracket;whiteSpace=wrap;html=1;rounded=1;flipH=1;size=0.5;" parent="iz9lgZ_pq5O3MmPFu8a6-1" vertex="1">
          <mxGeometry x="626" y="607" width="29" height="193" as="geometry" />
        </mxCell>
        <mxCell id="iz9lgZ_pq5O3MmPFu8a6-23" value="To BRAM-BRAMArbiter" style="text;html=1;align=center;verticalAlign=middle;resizable=0;points=[];autosize=1;strokeColor=none;fillColor=none;fontSize=17;" parent="iz9lgZ_pq5O3MmPFu8a6-1" vertex="1">
          <mxGeometry x="660" y="190" width="200" height="30" as="geometry" />
        </mxCell>
        <mxCell id="iz9lgZ_pq5O3MmPFu8a6-24" value="To FIFO&#39;s Arbiter" style="text;html=1;align=center;verticalAlign=middle;resizable=0;points=[];autosize=1;strokeColor=none;fillColor=none;fontSize=17;" parent="iz9lgZ_pq5O3MmPFu8a6-1" vertex="1">
          <mxGeometry x="660" y="509" width="150" height="30" as="geometry" />
        </mxCell>
        <mxCell id="iz9lgZ_pq5O3MmPFu8a6-25" value="To FIFO" style="text;html=1;align=center;verticalAlign=middle;resizable=0;points=[];autosize=1;strokeColor=none;fillColor=none;fontSize=17;" parent="iz9lgZ_pq5O3MmPFu8a6-1" vertex="1">
          <mxGeometry x="660" y="399" width="80" height="30" as="geometry" />
        </mxCell>
        <mxCell id="iz9lgZ_pq5O3MmPFu8a6-26" value="To CHI Converter" style="text;html=1;align=center;verticalAlign=middle;resizable=0;points=[];autosize=1;strokeColor=none;fillColor=none;fontSize=17;" parent="iz9lgZ_pq5O3MmPFu8a6-1" vertex="1">
          <mxGeometry x="660" y="687" width="150" height="30" as="geometry" />
        </mxCell>
        <mxCell id="iz9lgZ_pq5O3MmPFu8a6-27" value="ReadyFIFO&lt;br&gt;(obtained control of FIFO)" style="text;html=1;align=center;verticalAlign=middle;resizable=0;points=[];autosize=1;strokeColor=none;fillColor=none;fontSize=19;" parent="iz9lgZ_pq5O3MmPFu8a6-1" vertex="1">
          <mxGeometry x="-487" y="316" width="240" height="60" as="geometry" />
        </mxCell>
        <mxCell id="iz9lgZ_pq5O3MmPFu8a6-28" style="edgeStyle=orthogonalEdgeStyle;rounded=0;orthogonalLoop=1;jettySize=auto;html=1;startArrow=classic;startFill=1;endArrow=none;endFill=0;fillColor=#d5e8d4;strokeColor=#000000;targetPerimeterSpacing=0;exitX=0.006;exitY=0.917;exitDx=0;exitDy=0;exitPerimeter=0;" parent="iz9lgZ_pq5O3MmPFu8a6-1" source="iz9lgZ_pq5O3MmPFu8a6-97" target="iz9lgZ_pq5O3MmPFu8a6-29" edge="1">
          <mxGeometry relative="1" as="geometry">
            <mxPoint x="-191" y="709" as="targetPoint" />
            <mxPoint x="49" y="669" as="sourcePoint" />
            <Array as="points">
              <mxPoint x="-150" y="457" />
              <mxPoint x="-150" y="475" />
            </Array>
          </mxGeometry>
        </mxCell>
        <mxCell id="iz9lgZ_pq5O3MmPFu8a6-29" value="Empty" style="text;html=1;align=center;verticalAlign=middle;resizable=0;points=[];autosize=1;strokeColor=none;fillColor=none;fontSize=19;" parent="iz9lgZ_pq5O3MmPFu8a6-1" vertex="1">
          <mxGeometry x="-407" y="455" width="80" height="40" as="geometry" />
        </mxCell>
        <mxCell id="iz9lgZ_pq5O3MmPFu8a6-30" value="FIFO_out&lt;br&gt;(Pointer To the Next Desc)" style="text;html=1;align=center;verticalAlign=middle;resizable=0;points=[];autosize=1;strokeColor=none;fillColor=none;fontSize=19;" parent="iz9lgZ_pq5O3MmPFu8a6-1" vertex="1">
          <mxGeometry x="-492" y="532" width="250" height="60" as="geometry" />
        </mxCell>
        <mxCell id="iz9lgZ_pq5O3MmPFu8a6-31" value="" style="shape=curlyBracket;whiteSpace=wrap;html=1;rounded=1;fontSize=21;" parent="iz9lgZ_pq5O3MmPFu8a6-1" vertex="1">
          <mxGeometry x="-499" y="37" width="20" height="42" as="geometry" />
        </mxCell>
        <mxCell id="iz9lgZ_pq5O3MmPFu8a6-32" value="From BRAM" style="text;html=1;align=center;verticalAlign=middle;resizable=0;points=[];autosize=1;strokeColor=none;fillColor=none;fontSize=18;" parent="iz9lgZ_pq5O3MmPFu8a6-1" vertex="1">
          <mxGeometry x="-614.5" y="37" width="120" height="40" as="geometry" />
        </mxCell>
        <mxCell id="iz9lgZ_pq5O3MmPFu8a6-33" value="" style="shape=curlyBracket;whiteSpace=wrap;html=1;rounded=1;fontSize=21;" parent="iz9lgZ_pq5O3MmPFu8a6-1" vertex="1">
          <mxGeometry x="-499" y="336" width="20" height="32" as="geometry" />
        </mxCell>
        <mxCell id="iz9lgZ_pq5O3MmPFu8a6-34" value="From FIFO&#39;s Arbiter" style="text;html=1;align=center;verticalAlign=middle;resizable=0;points=[];autosize=1;strokeColor=none;fillColor=none;fontSize=18;" parent="iz9lgZ_pq5O3MmPFu8a6-1" vertex="1">
          <mxGeometry x="-674.5" y="332" width="180" height="40" as="geometry" />
        </mxCell>
        <mxCell id="iz9lgZ_pq5O3MmPFu8a6-35" value="" style="shape=curlyBracket;whiteSpace=wrap;html=1;rounded=1;fontSize=21;" parent="iz9lgZ_pq5O3MmPFu8a6-1" vertex="1">
          <mxGeometry x="-499" y="464" width="20" height="126" as="geometry" />
        </mxCell>
        <mxCell id="iz9lgZ_pq5O3MmPFu8a6-36" value="From FIFO" style="text;html=1;align=center;verticalAlign=middle;resizable=0;points=[];autosize=1;strokeColor=none;fillColor=none;fontSize=18;" parent="iz9lgZ_pq5O3MmPFu8a6-1" vertex="1">
          <mxGeometry x="-604.5" y="504" width="110" height="40" as="geometry" />
        </mxCell>
        <mxCell id="iz9lgZ_pq5O3MmPFu8a6-37" style="edgeStyle=orthogonalEdgeStyle;rounded=0;orthogonalLoop=1;jettySize=auto;html=1;exitX=0;exitY=1;exitDx=0;exitDy=0;startArrow=classic;startFill=1;endArrow=none;endFill=0;entryX=1;entryY=0.5;entryDx=0;entryDy=0;" parent="iz9lgZ_pq5O3MmPFu8a6-1" source="iz9lgZ_pq5O3MmPFu8a6-38" target="iz9lgZ_pq5O3MmPFu8a6-53" edge="1">
          <mxGeometry relative="1" as="geometry">
            <mxPoint x="62" y="100.5" as="targetPoint" />
            <Array as="points">
              <mxPoint x="150" y="80" />
              <mxPoint x="150" y="90" />
              <mxPoint x="79" y="90" />
            </Array>
          </mxGeometry>
        </mxCell>
        <mxCell id="iz9lgZ_pq5O3MmPFu8a6-38" value="&lt;font style=&quot;font-size: 26px;&quot;&gt;+&lt;/font&gt;" style="ellipse;whiteSpace=wrap;html=1;aspect=fixed;" parent="iz9lgZ_pq5O3MmPFu8a6-1" vertex="1">
          <mxGeometry x="178" y="55" width="29" height="29" as="geometry" />
        </mxCell>
        <mxCell id="iz9lgZ_pq5O3MmPFu8a6-39" style="edgeStyle=orthogonalEdgeStyle;rounded=0;orthogonalLoop=1;jettySize=auto;html=1;fontSize=12;startArrow=classic;startFill=1;endArrow=none;endFill=0;exitX=0;exitY=0;exitDx=0;exitDy=0;strokeWidth=3;entryX=1;entryY=0.5;entryDx=0;entryDy=0;" parent="iz9lgZ_pq5O3MmPFu8a6-1" source="iz9lgZ_pq5O3MmPFu8a6-38" target="iz9lgZ_pq5O3MmPFu8a6-11" edge="1">
          <mxGeometry relative="1" as="geometry">
            <mxPoint x="-280" y="55" as="targetPoint" />
            <mxPoint x="-19.039999999999964" y="87.94999999999982" as="sourcePoint" />
            <Array as="points">
              <mxPoint x="-260" y="59" />
            </Array>
          </mxGeometry>
        </mxCell>
        <mxCell id="iz9lgZ_pq5O3MmPFu8a6-40" value="&lt;font style=&quot;font-size: 24px;&quot;&gt;M&lt;/font&gt;" style="shape=trapezoid;perimeter=trapezoidPerimeter;whiteSpace=wrap;html=1;fixedSize=1;rotation=90;fillColor=#fff2cc;strokeColor=#d6b656;" parent="iz9lgZ_pq5O3MmPFu8a6-1" vertex="1">
          <mxGeometry x="265.5" y="249.5" width="107" height="26" as="geometry" />
        </mxCell>
        <mxCell id="iz9lgZ_pq5O3MmPFu8a6-41" style="edgeStyle=orthogonalEdgeStyle;rounded=0;orthogonalLoop=1;jettySize=auto;html=1;startArrow=classic;startFill=1;endArrow=none;endFill=0;strokeWidth=3;exitX=0;exitY=0.75;exitDx=0;exitDy=0;" parent="iz9lgZ_pq5O3MmPFu8a6-1" source="iz9lgZ_pq5O3MmPFu8a6-97" target="iz9lgZ_pq5O3MmPFu8a6-125" edge="1">
          <mxGeometry relative="1" as="geometry">
            <mxPoint x="317.2469516727642" y="384.74695167276377" as="sourcePoint" />
            <mxPoint x="203.00000000001182" y="82" as="targetPoint" />
            <Array as="points">
              <mxPoint x="-70" y="437" />
              <mxPoint x="-70" y="437" />
            </Array>
          </mxGeometry>
        </mxCell>
        <mxCell id="iz9lgZ_pq5O3MmPFu8a6-42" style="edgeStyle=orthogonalEdgeStyle;rounded=0;orthogonalLoop=1;jettySize=auto;html=1;fontSize=14;startArrow=none;startFill=0;endArrow=classic;endFill=1;exitX=0.999;exitY=0.587;exitDx=0;exitDy=0;exitPerimeter=0;" parent="iz9lgZ_pq5O3MmPFu8a6-1" source="iz9lgZ_pq5O3MmPFu8a6-97" target="iz9lgZ_pq5O3MmPFu8a6-18" edge="1">
          <mxGeometry relative="1" as="geometry">
            <mxPoint x="405" y="416" as="targetPoint" />
            <mxPoint x="104.90000000000009" y="417.2800000000002" as="sourcePoint" />
            <Array as="points">
              <mxPoint x="105" y="426" />
            </Array>
          </mxGeometry>
        </mxCell>
        <mxCell id="iz9lgZ_pq5O3MmPFu8a6-43" style="edgeStyle=orthogonalEdgeStyle;rounded=0;orthogonalLoop=1;jettySize=auto;html=1;fontSize=14;startArrow=classic;startFill=1;endArrow=none;endFill=0;strokeWidth=3;" parent="iz9lgZ_pq5O3MmPFu8a6-1" target="iz9lgZ_pq5O3MmPFu8a6-124" edge="1">
          <mxGeometry relative="1" as="geometry">
            <mxPoint x="-168.5" y="716" as="targetPoint" />
            <mxPoint x="-38.5" y="691" as="sourcePoint" />
            <Array as="points" />
          </mxGeometry>
        </mxCell>
        <mxCell id="iz9lgZ_pq5O3MmPFu8a6-44" style="edgeStyle=orthogonalEdgeStyle;rounded=0;orthogonalLoop=1;jettySize=auto;html=1;fontSize=12;fontColor=#CCE5FF;startArrow=classic;startFill=1;endArrow=none;endFill=0;endSize=5;sourcePerimeterSpacing=18;targetPerimeterSpacing=0;strokeColor=#000000;strokeWidth=1;exitX=0.009;exitY=0.518;exitDx=0;exitDy=0;exitPerimeter=0;" parent="iz9lgZ_pq5O3MmPFu8a6-1" source="iz9lgZ_pq5O3MmPFu8a6-120" target="iz9lgZ_pq5O3MmPFu8a6-30" edge="1">
          <mxGeometry relative="1" as="geometry">
            <mxPoint x="-210" y="627" as="targetPoint" />
            <mxPoint x="570" y="840" as="sourcePoint" />
            <Array as="points">
              <mxPoint x="320" y="765" />
              <mxPoint x="320" y="660" />
              <mxPoint x="-210" y="660" />
              <mxPoint x="-210" y="570" />
            </Array>
          </mxGeometry>
        </mxCell>
        <mxCell id="iz9lgZ_pq5O3MmPFu8a6-45" value="CHI_Word*chunk" style="text;html=1;align=center;verticalAlign=middle;resizable=0;points=[];autosize=1;strokeColor=none;fillColor=none;fontSize=17;" parent="iz9lgZ_pq5O3MmPFu8a6-1" vertex="1">
          <mxGeometry x="-210" y="59.5" width="150" height="30" as="geometry" />
        </mxCell>
        <mxCell id="iz9lgZ_pq5O3MmPFu8a6-46" style="edgeStyle=orthogonalEdgeStyle;rounded=0;orthogonalLoop=1;jettySize=auto;html=1;fontSize=14;startArrow=classic;startFill=1;endArrow=none;endFill=0;endSize=15;sourcePerimeterSpacing=18;targetPerimeterSpacing=0;exitX=0.139;exitY=0.249;exitDx=0;exitDy=0;exitPerimeter=0;" parent="iz9lgZ_pq5O3MmPFu8a6-1" source="T2ftMuJ99wprAWzNBxtP-8" target="iz9lgZ_pq5O3MmPFu8a6-45" edge="1">
          <mxGeometry relative="1" as="geometry">
            <mxPoint x="42" y="72.5" as="targetPoint" />
            <mxPoint x="34" y="85.5" as="sourcePoint" />
            <Array as="points">
              <mxPoint x="-30" y="75" />
              <mxPoint x="-30" y="75" />
            </Array>
          </mxGeometry>
        </mxCell>
        <mxCell id="iz9lgZ_pq5O3MmPFu8a6-47" style="edgeStyle=orthogonalEdgeStyle;rounded=0;orthogonalLoop=1;jettySize=auto;html=1;exitX=0;exitY=1;exitDx=0;exitDy=0;fontSize=14;startArrow=classic;startFill=1;endArrow=none;endFill=0;endSize=15;sourcePerimeterSpacing=18;targetPerimeterSpacing=0;entryX=1;entryY=0.5;entryDx=0;entryDy=0;" parent="iz9lgZ_pq5O3MmPFu8a6-1" source="iz9lgZ_pq5O3MmPFu8a6-53" target="iz9lgZ_pq5O3MmPFu8a6-50" edge="1">
          <mxGeometry relative="1" as="geometry">
            <mxPoint x="-55" y="115.5" as="sourcePoint" />
            <mxPoint x="-106" y="115.49999999999977" as="targetPoint" />
            <Array as="points">
              <mxPoint x="30" y="99" />
              <mxPoint x="30" y="199" />
            </Array>
          </mxGeometry>
        </mxCell>
        <mxCell id="iz9lgZ_pq5O3MmPFu8a6-48" style="edgeStyle=orthogonalEdgeStyle;rounded=0;orthogonalLoop=1;jettySize=auto;html=1;exitX=0;exitY=0;exitDx=0;exitDy=0;fontSize=12;startArrow=classic;startFill=1;endArrow=none;endFill=0;endSize=15;sourcePerimeterSpacing=18;targetPerimeterSpacing=0;" parent="iz9lgZ_pq5O3MmPFu8a6-1" source="iz9lgZ_pq5O3MmPFu8a6-50" edge="1">
          <mxGeometry relative="1" as="geometry">
            <mxPoint x="-220" y="61" as="targetPoint" />
            <mxPoint x="-126.04594154601841" y="102.95405845398159" as="sourcePoint" />
            <Array as="points">
              <mxPoint x="-220" y="190" />
            </Array>
          </mxGeometry>
        </mxCell>
        <mxCell id="iz9lgZ_pq5O3MmPFu8a6-49" style="edgeStyle=orthogonalEdgeStyle;rounded=0;orthogonalLoop=1;jettySize=auto;html=1;exitX=0;exitY=1;exitDx=0;exitDy=0;fontSize=12;startArrow=classic;startFill=1;endArrow=none;endFill=0;endSize=15;sourcePerimeterSpacing=18;targetPerimeterSpacing=0;" parent="iz9lgZ_pq5O3MmPFu8a6-1" source="iz9lgZ_pq5O3MmPFu8a6-50" edge="1">
          <mxGeometry relative="1" as="geometry">
            <mxPoint x="-220" y="70" as="targetPoint" />
            <mxPoint x="-126.04594154601841" y="122.04594154601841" as="sourcePoint" />
            <Array as="points">
              <mxPoint x="-220" y="209" />
            </Array>
          </mxGeometry>
        </mxCell>
        <mxCell id="iz9lgZ_pq5O3MmPFu8a6-50" value="&lt;font style=&quot;font-size: 26px;&quot;&gt;-&lt;/font&gt;" style="ellipse;whiteSpace=wrap;html=1;aspect=fixed;fontSize=12;" parent="iz9lgZ_pq5O3MmPFu8a6-1" vertex="1">
          <mxGeometry x="-109" y="185.5" width="27" height="27" as="geometry" />
        </mxCell>
        <mxCell id="iz9lgZ_pq5O3MmPFu8a6-51" value="&lt;span style=&quot;font-size: 17px; background-color: rgb(187, 211, 247);&quot;&gt;&lt;span style=&quot;color: rgb(0, 0, 0); font-family: Helvetica; font-size: 17px; font-style: normal; font-variant-ligatures: normal; font-variant-caps: normal; font-weight: 400; letter-spacing: normal; orphans: 2; text-align: center; text-indent: 0px; text-transform: none; widows: 2; word-spacing: 0px; -webkit-text-stroke-width: 0px; text-decoration-thickness: initial; text-decoration-style: initial; text-decoration-color: initial; float: none; display: inline !important;&quot;&gt;packet&lt;/span&gt;&lt;font style=&quot;color: rgb(0, 0, 0); font-family: Helvetica; font-style: normal; font-variant-ligatures: normal; font-variant-caps: normal; font-weight: 400; letter-spacing: normal; orphans: 2; text-align: center; text-indent: 0px; text-transform: none; widows: 2; word-spacing: 0px; -webkit-text-stroke-width: 0px; text-decoration-thickness: initial; text-decoration-style: initial; text-decoration-color: initial; font-size: 17px;&quot;&gt;.&lt;/font&gt;&lt;span style=&quot;color: rgb(0, 0, 0); font-family: Helvetica; font-size: 17px; font-style: normal; font-variant-ligatures: normal; font-variant-caps: normal; font-weight: 400; letter-spacing: normal; orphans: 2; text-align: center; text-indent: 0px; text-transform: none; widows: 2; word-spacing: 0px; -webkit-text-stroke-width: 0px; text-decoration-thickness: initial; text-decoration-style: initial; text-decoration-color: initial; float: none; display: inline !important;&quot;&gt;SB&lt;/span&gt;&lt;/span&gt;" style="text;whiteSpace=wrap;html=1;fontSize=17;" parent="iz9lgZ_pq5O3MmPFu8a6-1" vertex="1">
          <mxGeometry x="-216" y="203.5" width="67" height="28" as="geometry" />
        </mxCell>
        <mxCell id="iz9lgZ_pq5O3MmPFu8a6-52" value="&lt;span style=&quot;font-size: 17px; background-color: rgb(187, 211, 247);&quot;&gt;&lt;span style=&quot;color: rgb(0, 0, 0); font-family: Helvetica; font-size: 17px; font-style: normal; font-variant-ligatures: normal; font-variant-caps: normal; font-weight: 400; letter-spacing: normal; orphans: 2; text-align: center; text-indent: 0px; text-transform: none; widows: 2; word-spacing: 0px; -webkit-text-stroke-width: 0px; text-decoration-thickness: initial; text-decoration-style: initial; text-decoration-color: initial; float: none; display: inline !important;&quot;&gt;packet&lt;/span&gt;&lt;font style=&quot;color: rgb(0, 0, 0); font-family: Helvetica; font-style: normal; font-variant-ligatures: normal; font-variant-caps: normal; font-weight: 400; letter-spacing: normal; orphans: 2; text-align: center; text-indent: 0px; text-transform: none; widows: 2; word-spacing: 0px; -webkit-text-stroke-width: 0px; text-decoration-thickness: initial; text-decoration-style: initial; text-decoration-color: initial; font-size: 17px;&quot;&gt;.&lt;/font&gt;&lt;span style=&quot;color: rgb(0, 0, 0); font-family: Helvetica; font-size: 17px; font-style: normal; font-variant-ligatures: normal; font-variant-caps: normal; font-weight: 400; letter-spacing: normal; orphans: 2; text-align: center; text-indent: 0px; text-transform: none; widows: 2; word-spacing: 0px; -webkit-text-stroke-width: 0px; text-decoration-thickness: initial; text-decoration-style: initial; text-decoration-color: initial; float: none; display: inline !important;&quot;&gt;BTS&lt;/span&gt;&lt;/span&gt;" style="text;whiteSpace=wrap;html=1;fontSize=17;fillColor=none;strokeColor=none;" parent="iz9lgZ_pq5O3MmPFu8a6-1" vertex="1">
          <mxGeometry x="-218" y="161.5" width="69" height="23.5" as="geometry" />
        </mxCell>
        <mxCell id="iz9lgZ_pq5O3MmPFu8a6-53" value="&lt;font style=&quot;font-size: 16px;&quot;&gt;min&lt;/font&gt;" style="ellipse;whiteSpace=wrap;html=1;aspect=fixed;" parent="iz9lgZ_pq5O3MmPFu8a6-1" vertex="1">
          <mxGeometry x="50" y="74" width="29" height="29" as="geometry" />
        </mxCell>
        <mxCell id="iz9lgZ_pq5O3MmPFu8a6-54" value="CmndFIFOFULL&lt;br&gt;(received Read Request)" style="text;html=1;align=center;verticalAlign=middle;resizable=0;points=[];autosize=1;strokeColor=none;fillColor=none;fontSize=19;" parent="iz9lgZ_pq5O3MmPFu8a6-1" vertex="1">
          <mxGeometry x="-482" y="385" width="230" height="60" as="geometry" />
        </mxCell>
        <mxCell id="iz9lgZ_pq5O3MmPFu8a6-55" style="edgeStyle=orthogonalEdgeStyle;rounded=0;orthogonalLoop=1;jettySize=auto;html=1;fontSize=12;startArrow=classic;startFill=1;endArrow=none;endFill=0;endSize=15;sourcePerimeterSpacing=0;targetPerimeterSpacing=18;entryX=1;entryY=0.25;entryDx=0;entryDy=0;exitX=1;exitY=0.5;exitDx=0;exitDy=0;" parent="iz9lgZ_pq5O3MmPFu8a6-1" source="iz9lgZ_pq5O3MmPFu8a6-40" target="iz9lgZ_pq5O3MmPFu8a6-97" edge="1">
          <mxGeometry relative="1" as="geometry">
            <mxPoint x="171.99999999999955" y="258" as="sourcePoint" />
            <mxPoint x="100" y="303" as="targetPoint" />
            <Array as="points">
              <mxPoint x="319" y="377" />
            </Array>
          </mxGeometry>
        </mxCell>
        <mxCell id="FPyog5_0CW0yQ2vfRDx7-9" style="edgeStyle=orthogonalEdgeStyle;rounded=0;orthogonalLoop=1;jettySize=auto;html=1;strokeColor=#000000;fontSize=17;entryX=1;entryY=0.5;entryDx=0;entryDy=0;" parent="iz9lgZ_pq5O3MmPFu8a6-1" source="FPyog5_0CW0yQ2vfRDx7-8" target="iz9lgZ_pq5O3MmPFu8a6-59" edge="1">
          <mxGeometry relative="1" as="geometry">
            <Array as="points">
              <mxPoint x="218" y="220" />
            </Array>
          </mxGeometry>
        </mxCell>
        <mxCell id="iz9lgZ_pq5O3MmPFu8a6-59" value="&lt;font style=&quot;font-size: 21px;&quot;&gt;M&lt;/font&gt;" style="shape=trapezoid;perimeter=trapezoidPerimeter;whiteSpace=wrap;html=1;fixedSize=1;rotation=90;fillColor=#fff2cc;strokeColor=#d6b656;" parent="iz9lgZ_pq5O3MmPFu8a6-1" vertex="1">
          <mxGeometry x="170.5" y="143.88" width="95" height="23.25" as="geometry" />
        </mxCell>
        <mxCell id="iz9lgZ_pq5O3MmPFu8a6-60" style="edgeStyle=orthogonalEdgeStyle;rounded=0;orthogonalLoop=1;jettySize=auto;html=1;fontSize=12;startArrow=classic;startFill=1;endArrow=none;endFill=0;endSize=15;sourcePerimeterSpacing=18;targetPerimeterSpacing=0;strokeColor=#000000;exitX=0;exitY=0.5;exitDx=0;exitDy=0;" parent="iz9lgZ_pq5O3MmPFu8a6-1" source="iz9lgZ_pq5O3MmPFu8a6-97" target="iz9lgZ_pq5O3MmPFu8a6-54" edge="1">
          <mxGeometry relative="1" as="geometry">
            <mxPoint x="-220" y="859" as="targetPoint" />
            <Array as="points">
              <mxPoint x="-230" y="407" />
              <mxPoint x="-230" y="407" />
            </Array>
            <mxPoint x="54" y="933.5" as="sourcePoint" />
          </mxGeometry>
        </mxCell>
        <mxCell id="iz9lgZ_pq5O3MmPFu8a6-71" style="edgeStyle=orthogonalEdgeStyle;rounded=0;orthogonalLoop=1;jettySize=auto;html=1;fontSize=12;startArrow=none;startFill=0;endArrow=classic;endFill=1;endSize=5;sourcePerimeterSpacing=18;targetPerimeterSpacing=0;strokeColor=#000000;exitX=1.003;exitY=0.862;exitDx=0;exitDy=0;exitPerimeter=0;" parent="iz9lgZ_pq5O3MmPFu8a6-1" source="iz9lgZ_pq5O3MmPFu8a6-97" target="iz9lgZ_pq5O3MmPFu8a6-16" edge="1">
          <mxGeometry relative="1" as="geometry">
            <mxPoint x="710" y="513" as="targetPoint" />
            <mxPoint x="104" y="426" as="sourcePoint" />
            <Array as="points">
              <mxPoint x="340" y="450" />
              <mxPoint x="340" y="493" />
            </Array>
          </mxGeometry>
        </mxCell>
        <mxCell id="iz9lgZ_pq5O3MmPFu8a6-76" style="edgeStyle=orthogonalEdgeStyle;rounded=0;orthogonalLoop=1;jettySize=auto;html=1;fontSize=12;exitX=1;exitY=0.5;exitDx=0;exitDy=0;" parent="iz9lgZ_pq5O3MmPFu8a6-1" source="iz9lgZ_pq5O3MmPFu8a6-78" target="iz9lgZ_pq5O3MmPFu8a6-120" edge="1">
          <mxGeometry relative="1" as="geometry">
            <mxPoint x="605" y="765.0000000000005" as="targetPoint" />
            <mxPoint x="409.5" y="863" as="sourcePoint" />
            <Array as="points">
              <mxPoint x="320" y="827" />
              <mxPoint x="320" y="765" />
            </Array>
          </mxGeometry>
        </mxCell>
        <mxCell id="iz9lgZ_pq5O3MmPFu8a6-77" style="edgeStyle=orthogonalEdgeStyle;rounded=0;orthogonalLoop=1;jettySize=auto;html=1;exitX=0;exitY=0.5;exitDx=0;exitDy=0;fontSize=12;fontColor=#000000;startArrow=none;startFill=0;endArrow=none;endFill=0;endSize=6;targetPerimeterSpacing=0;strokeColor=#000000;strokeWidth=1;" parent="iz9lgZ_pq5O3MmPFu8a6-1" source="iz9lgZ_pq5O3MmPFu8a6-81" edge="1">
          <mxGeometry relative="1" as="geometry">
            <mxPoint x="-54.5" y="804" as="targetPoint" />
            <Array as="points" />
          </mxGeometry>
        </mxCell>
        <mxCell id="iz9lgZ_pq5O3MmPFu8a6-78" value="&lt;font style=&quot;font-size: 26px;&quot;&gt;=&lt;/font&gt;" style="ellipse;whiteSpace=wrap;html=1;aspect=fixed;" parent="iz9lgZ_pq5O3MmPFu8a6-1" vertex="1">
          <mxGeometry x="163.5" y="812" width="29" height="29" as="geometry" />
        </mxCell>
        <mxCell id="iz9lgZ_pq5O3MmPFu8a6-80" style="edgeStyle=orthogonalEdgeStyle;rounded=0;orthogonalLoop=1;jettySize=auto;html=1;fontSize=12;fontColor=#000000;startArrow=classic;startFill=1;endArrow=none;endFill=0;endSize=6;sourcePerimeterSpacing=18;targetPerimeterSpacing=0;strokeColor=#000000;strokeWidth=1;exitX=0;exitY=1;exitDx=0;exitDy=0;" parent="iz9lgZ_pq5O3MmPFu8a6-1" source="iz9lgZ_pq5O3MmPFu8a6-78" edge="1">
          <mxGeometry relative="1" as="geometry">
            <mxPoint x="-55" y="692" as="targetPoint" />
            <mxPoint x="170" y="837" as="sourcePoint" />
            <Array as="points">
              <mxPoint x="-55" y="837" />
            </Array>
          </mxGeometry>
        </mxCell>
        <mxCell id="iz9lgZ_pq5O3MmPFu8a6-81" value="" style="triangle;whiteSpace=wrap;html=1;labelBackgroundColor=#CCE5FF;fontSize=12;fontColor=#000000;fillColor=#CCE5FF;" parent="iz9lgZ_pq5O3MmPFu8a6-1" vertex="1">
          <mxGeometry x="-55" y="810" width="20" height="13" as="geometry" />
        </mxCell>
        <mxCell id="iz9lgZ_pq5O3MmPFu8a6-82" value="" style="edgeStyle=orthogonalEdgeStyle;rounded=0;orthogonalLoop=1;jettySize=auto;html=1;fontSize=12;fontColor=#000000;startArrow=none;startFill=0;endArrow=classic;endFill=1;endSize=6;strokeColor=#000000;strokeWidth=1;entryX=0;entryY=0;entryDx=0;entryDy=0;targetPerimeterSpacing=18;" parent="iz9lgZ_pq5O3MmPFu8a6-1" source="iz9lgZ_pq5O3MmPFu8a6-81" target="iz9lgZ_pq5O3MmPFu8a6-78" edge="1">
          <mxGeometry relative="1" as="geometry">
            <mxPoint x="0.5" y="816.5" as="targetPoint" />
            <mxPoint x="-219.5" y="804" as="sourcePoint" />
            <Array as="points" />
          </mxGeometry>
        </mxCell>
        <mxCell id="iz9lgZ_pq5O3MmPFu8a6-83" value="" style="triangle;whiteSpace=wrap;html=1;labelBackgroundColor=#CCE5FF;fontSize=12;fontColor=#000000;fillColor=#CCE5FF;" parent="iz9lgZ_pq5O3MmPFu8a6-1" vertex="1">
          <mxGeometry x="-55" y="832" width="20" height="13" as="geometry" />
        </mxCell>
        <mxCell id="iz9lgZ_pq5O3MmPFu8a6-84" value="&lt;span style=&quot;color: rgb(0, 0, 0); font-family: Helvetica; font-size: 17px; font-style: normal; font-variant-ligatures: normal; font-variant-caps: normal; font-weight: 400; letter-spacing: normal; orphans: 2; text-indent: 0px; text-transform: none; widows: 2; word-spacing: 0px; -webkit-text-stroke-width: 0px; text-decoration-thickness: initial; text-decoration-style: initial; text-decoration-color: initial; text-align: center; float: none; display: inline !important;&quot;&gt;packet&lt;/span&gt;&lt;font style=&quot;color: rgb(0, 0, 0); font-family: Helvetica; font-size: 17px; font-style: normal; font-variant-ligatures: normal; font-variant-caps: normal; font-weight: 400; letter-spacing: normal; orphans: 2; text-indent: 0px; text-transform: none; widows: 2; word-spacing: 0px; -webkit-text-stroke-width: 0px; text-decoration-thickness: initial; text-decoration-style: initial; text-decoration-color: initial; text-align: center;&quot;&gt;.SentBytes&lt;/font&gt;" style="text;whiteSpace=wrap;html=1;fontSize=17;fontColor=#000000;" parent="iz9lgZ_pq5O3MmPFu8a6-1" vertex="1">
          <mxGeometry x="-34" y="832" width="85.5" height="24" as="geometry" />
        </mxCell>
        <mxCell id="iz9lgZ_pq5O3MmPFu8a6-85" value="packet.BTS" style="text;html=1;align=center;verticalAlign=middle;resizable=0;points=[];autosize=1;strokeColor=none;fillColor=none;fontSize=17;fontColor=#000000;" parent="iz9lgZ_pq5O3MmPFu8a6-1" vertex="1">
          <mxGeometry x="-19.5" y="793" width="110" height="30" as="geometry" />
        </mxCell>
        <mxCell id="iz9lgZ_pq5O3MmPFu8a6-87" value="" style="shape=curlyBracket;whiteSpace=wrap;html=1;rounded=1;fontSize=21;" parent="iz9lgZ_pq5O3MmPFu8a6-1" vertex="1">
          <mxGeometry x="-499" y="386" width="20" height="59" as="geometry" />
        </mxCell>
        <mxCell id="iz9lgZ_pq5O3MmPFu8a6-88" value="&lt;span style=&quot;color: rgb(0, 0, 0); font-family: Helvetica; font-size: 18px; font-style: normal; font-variant-ligatures: normal; font-variant-caps: normal; font-weight: 400; letter-spacing: normal; orphans: 2; text-align: center; text-indent: 0px; text-transform: none; widows: 2; word-spacing: 0px; -webkit-text-stroke-width: 0px; background-color: rgb(248, 249, 250); text-decoration-thickness: initial; text-decoration-style: initial; text-decoration-color: initial; float: none; display: inline !important;&quot;&gt;From CHI Converter&lt;/span&gt;" style="text;whiteSpace=wrap;html=1;fontSize=18;fontColor=#000000;" parent="iz9lgZ_pq5O3MmPFu8a6-1" vertex="1">
          <mxGeometry x="-603.5" y="392" width="109" height="40" as="geometry" />
        </mxCell>
        <mxCell id="iz9lgZ_pq5O3MmPFu8a6-90" style="edgeStyle=orthogonalEdgeStyle;rounded=0;orthogonalLoop=1;jettySize=auto;html=1;strokeColor=#000000;strokeWidth=1;entryX=0;entryY=0.5;entryDx=0;entryDy=0;" parent="iz9lgZ_pq5O3MmPFu8a6-1" target="iz9lgZ_pq5O3MmPFu8a6-92" edge="1">
          <mxGeometry relative="1" as="geometry">
            <mxPoint x="-210" y="576" as="sourcePoint" />
            <Array as="points">
              <mxPoint x="-210" y="576" />
            </Array>
          </mxGeometry>
        </mxCell>
        <mxCell id="iz9lgZ_pq5O3MmPFu8a6-91" style="edgeStyle=orthogonalEdgeStyle;rounded=0;orthogonalLoop=1;jettySize=auto;html=1;exitX=1;exitY=0.5;exitDx=0;exitDy=0;strokeColor=#000000;strokeWidth=1;" parent="iz9lgZ_pq5O3MmPFu8a6-1" source="iz9lgZ_pq5O3MmPFu8a6-92" target="iz9lgZ_pq5O3MmPFu8a6-17" edge="1">
          <mxGeometry relative="1" as="geometry">
            <Array as="points">
              <mxPoint x="172" y="562" />
            </Array>
          </mxGeometry>
        </mxCell>
        <mxCell id="iz9lgZ_pq5O3MmPFu8a6-92" value="&lt;font style=&quot;font-size: 12px;&quot;&gt;&lt;font style=&quot;font-size: 21px;&quot;&gt;REGISTER&lt;/font&gt;&lt;br&gt;&lt;span style=&quot;&quot;&gt;(keepAddr&lt;/span&gt;&lt;span style=&quot;&quot;&gt;FromFIFO)&lt;/span&gt;&lt;/font&gt;" style="rounded=0;whiteSpace=wrap;html=1;fillColor=#ffe6cc;strokeColor=#d79b00;" parent="iz9lgZ_pq5O3MmPFu8a6-1" vertex="1">
          <mxGeometry x="77" y="546" width="124" height="60" as="geometry" />
        </mxCell>
        <mxCell id="iz9lgZ_pq5O3MmPFu8a6-94" style="edgeStyle=orthogonalEdgeStyle;rounded=0;orthogonalLoop=1;jettySize=auto;html=1;exitX=0.818;exitY=1.003;exitDx=0;exitDy=0;entryX=0.25;entryY=0;entryDx=0;entryDy=0;strokeWidth=1;exitPerimeter=0;" parent="iz9lgZ_pq5O3MmPFu8a6-1" source="iz9lgZ_pq5O3MmPFu8a6-97" target="iz9lgZ_pq5O3MmPFu8a6-92" edge="1">
          <mxGeometry relative="1" as="geometry">
            <Array as="points" />
          </mxGeometry>
        </mxCell>
        <mxCell id="iz9lgZ_pq5O3MmPFu8a6-96" style="edgeStyle=orthogonalEdgeStyle;rounded=0;orthogonalLoop=1;jettySize=auto;html=1;strokeColor=#000000;entryX=0.148;entryY=0.003;entryDx=0;entryDy=0;entryPerimeter=0;" parent="iz9lgZ_pq5O3MmPFu8a6-1" source="iz9lgZ_pq5O3MmPFu8a6-133" target="iz9lgZ_pq5O3MmPFu8a6-97" edge="1">
          <mxGeometry relative="1" as="geometry">
            <Array as="points">
              <mxPoint x="8" y="270" />
            </Array>
          </mxGeometry>
        </mxCell>
        <mxCell id="iz9lgZ_pq5O3MmPFu8a6-97" value="&lt;font style=&quot;font-size: 40px;&quot;&gt;FSM&lt;/font&gt;" style="rounded=0;whiteSpace=wrap;html=1;fillColor=#dae8fc;strokeColor=#6c8ebf;" parent="iz9lgZ_pq5O3MmPFu8a6-1" vertex="1">
          <mxGeometry x="-14.5" y="347" width="150" height="120" as="geometry" />
        </mxCell>
        <mxCell id="iz9lgZ_pq5O3MmPFu8a6-99" value="RegWESig" style="text;html=1;align=center;verticalAlign=middle;resizable=0;points=[];autosize=1;strokeColor=none;fillColor=none;fontSize=17;" parent="iz9lgZ_pq5O3MmPFu8a6-1" vertex="1">
          <mxGeometry x="101" y="502" width="110" height="30" as="geometry" />
        </mxCell>
        <mxCell id="iz9lgZ_pq5O3MmPFu8a6-100" style="edgeStyle=orthogonalEdgeStyle;rounded=0;orthogonalLoop=1;jettySize=auto;html=1;exitX=0;exitY=0.5;exitDx=0;exitDy=0;fontSize=12;fontColor=#000000;startArrow=none;startFill=0;endArrow=none;endFill=0;endSize=6;targetPerimeterSpacing=0;strokeColor=#000000;strokeWidth=1;" parent="iz9lgZ_pq5O3MmPFu8a6-1" source="iz9lgZ_pq5O3MmPFu8a6-104" edge="1">
          <mxGeometry relative="1" as="geometry">
            <mxPoint x="-42.5" y="690" as="targetPoint" />
            <Array as="points" />
          </mxGeometry>
        </mxCell>
        <mxCell id="iz9lgZ_pq5O3MmPFu8a6-101" style="edgeStyle=orthogonalEdgeStyle;rounded=0;orthogonalLoop=1;jettySize=auto;html=1;exitX=0;exitY=0.25;exitDx=0;exitDy=0;entryX=0;entryY=1;entryDx=0;entryDy=0;strokeWidth=1;" parent="iz9lgZ_pq5O3MmPFu8a6-1" source="iz9lgZ_pq5O3MmPFu8a6-104" target="iz9lgZ_pq5O3MmPFu8a6-103" edge="1">
          <mxGeometry relative="1" as="geometry">
            <Array as="points">
              <mxPoint x="-42.5" y="723" />
            </Array>
          </mxGeometry>
        </mxCell>
        <mxCell id="iz9lgZ_pq5O3MmPFu8a6-102" style="edgeStyle=orthogonalEdgeStyle;rounded=0;orthogonalLoop=1;jettySize=auto;html=1;exitX=1;exitY=0.5;exitDx=0;exitDy=0;strokeWidth=1;" parent="iz9lgZ_pq5O3MmPFu8a6-1" source="iz9lgZ_pq5O3MmPFu8a6-103" target="iz9lgZ_pq5O3MmPFu8a6-120" edge="1">
          <mxGeometry relative="1" as="geometry">
            <mxPoint x="605" y="765.0000000000005" as="targetPoint" />
            <Array as="points">
              <mxPoint x="320" y="713" />
              <mxPoint x="320" y="765" />
            </Array>
          </mxGeometry>
        </mxCell>
        <mxCell id="iz9lgZ_pq5O3MmPFu8a6-103" value="&lt;font style=&quot;font-size: 26px;&quot;&gt;+&lt;/font&gt;" style="ellipse;whiteSpace=wrap;html=1;aspect=fixed;" parent="iz9lgZ_pq5O3MmPFu8a6-1" vertex="1">
          <mxGeometry x="162.5" y="698" width="29" height="29" as="geometry" />
        </mxCell>
        <mxCell id="iz9lgZ_pq5O3MmPFu8a6-104" value="" style="triangle;whiteSpace=wrap;html=1;labelBackgroundColor=#CCE5FF;fontSize=12;fontColor=#000000;fillColor=#CCE5FF;" parent="iz9lgZ_pq5O3MmPFu8a6-1" vertex="1">
          <mxGeometry x="-42" y="696" width="20" height="13" as="geometry" />
        </mxCell>
        <mxCell id="iz9lgZ_pq5O3MmPFu8a6-105" value="" style="edgeStyle=orthogonalEdgeStyle;rounded=0;orthogonalLoop=1;jettySize=auto;html=1;fontSize=12;fontColor=#000000;startArrow=none;startFill=0;endArrow=classic;endFill=1;endSize=6;strokeColor=#000000;strokeWidth=1;entryX=0;entryY=0;entryDx=0;entryDy=0;targetPerimeterSpacing=18;" parent="iz9lgZ_pq5O3MmPFu8a6-1" source="iz9lgZ_pq5O3MmPFu8a6-104" target="iz9lgZ_pq5O3MmPFu8a6-103" edge="1">
          <mxGeometry relative="1" as="geometry">
            <mxPoint x="27.5" y="702.5" as="targetPoint" />
            <mxPoint x="-192.5" y="690" as="sourcePoint" />
            <Array as="points" />
          </mxGeometry>
        </mxCell>
        <mxCell id="iz9lgZ_pq5O3MmPFu8a6-106" value="" style="triangle;whiteSpace=wrap;html=1;labelBackgroundColor=#CCE5FF;fontSize=12;fontColor=#000000;fillColor=#CCE5FF;" parent="iz9lgZ_pq5O3MmPFu8a6-1" vertex="1">
          <mxGeometry x="-41" y="716" width="20" height="13" as="geometry" />
        </mxCell>
        <mxCell id="iz9lgZ_pq5O3MmPFu8a6-107" value="&lt;font style=&quot;font-size: 17px;&quot;&gt;&lt;span style=&quot;color: rgb(0, 0, 0); font-family: Helvetica; font-style: normal; font-variant-ligatures: normal; font-variant-caps: normal; font-weight: 400; letter-spacing: normal; orphans: 2; text-indent: 0px; text-transform: none; widows: 2; word-spacing: 0px; -webkit-text-stroke-width: 0px; text-decoration-thickness: initial; text-decoration-style: initial; text-decoration-color: initial; text-align: center; float: none; display: inline !important;&quot;&gt;packet&lt;/span&gt;&lt;font style=&quot;color: rgb(0, 0, 0); font-family: Helvetica; font-style: normal; font-variant-ligatures: normal; font-variant-caps: normal; font-weight: 400; letter-spacing: normal; orphans: 2; text-indent: 0px; text-transform: none; widows: 2; word-spacing: 0px; -webkit-text-stroke-width: 0px; text-decoration-thickness: initial; text-decoration-style: initial; text-decoration-color: initial; text-align: center; font-size: 17px;&quot;&gt;.SentBytes&lt;/font&gt;&lt;/font&gt;" style="text;whiteSpace=wrap;html=1;fontSize=12;fontColor=#000000;" parent="iz9lgZ_pq5O3MmPFu8a6-1" vertex="1">
          <mxGeometry x="-17.5" y="696" width="85.5" height="24" as="geometry" />
        </mxCell>
        <mxCell id="iz9lgZ_pq5O3MmPFu8a6-108" value="&lt;font style=&quot;font-size: 17px;&quot;&gt;packet.SrcAddr&lt;/font&gt;" style="text;html=1;align=center;verticalAlign=middle;resizable=0;points=[];autosize=1;strokeColor=none;fillColor=none;fontSize=12;fontColor=#000000;" parent="iz9lgZ_pq5O3MmPFu8a6-1" vertex="1">
          <mxGeometry x="-29.5" y="675" width="140" height="30" as="geometry" />
        </mxCell>
        <mxCell id="iz9lgZ_pq5O3MmPFu8a6-109" style="edgeStyle=orthogonalEdgeStyle;rounded=0;orthogonalLoop=1;jettySize=auto;html=1;exitX=0;exitY=0.5;exitDx=0;exitDy=0;fontSize=12;fontColor=#000000;startArrow=none;startFill=0;endArrow=none;endFill=0;endSize=6;targetPerimeterSpacing=0;strokeColor=#000000;strokeWidth=1;entryX=0;entryY=0.75;entryDx=0;entryDy=0;" parent="iz9lgZ_pq5O3MmPFu8a6-1" target="iz9lgZ_pq5O3MmPFu8a6-104" edge="1">
          <mxGeometry relative="1" as="geometry">
            <mxPoint x="-41.5" y="726" as="targetPoint" />
            <Array as="points">
              <mxPoint x="-41.5" y="726" />
              <mxPoint x="-41.5" y="726" />
            </Array>
            <mxPoint x="-41.25" y="772.5000000000005" as="sourcePoint" />
          </mxGeometry>
        </mxCell>
        <mxCell id="iz9lgZ_pq5O3MmPFu8a6-110" value="" style="triangle;whiteSpace=wrap;html=1;labelBackgroundColor=#CCE5FF;fontSize=12;fontColor=#000000;fillColor=#CCE5FF;" parent="iz9lgZ_pq5O3MmPFu8a6-1" vertex="1">
          <mxGeometry x="-41.25" y="767" width="20" height="13" as="geometry" />
        </mxCell>
        <mxCell id="iz9lgZ_pq5O3MmPFu8a6-111" value="" style="edgeStyle=orthogonalEdgeStyle;rounded=0;orthogonalLoop=1;jettySize=auto;html=1;fontSize=12;fontColor=#000000;startArrow=none;startFill=0;endArrow=classic;endFill=1;endSize=6;strokeColor=#000000;strokeWidth=1;entryX=0;entryY=1;entryDx=0;entryDy=0;targetPerimeterSpacing=18;" parent="iz9lgZ_pq5O3MmPFu8a6-1" source="iz9lgZ_pq5O3MmPFu8a6-110" target="iz9lgZ_pq5O3MmPFu8a6-115" edge="1">
          <mxGeometry relative="1" as="geometry">
            <mxPoint x="88.49695167279697" y="772.2469516727974" as="targetPoint" />
            <mxPoint x="-191.75" y="760" as="sourcePoint" />
            <Array as="points">
              <mxPoint x="30.5" y="774" />
              <mxPoint x="30.5" y="774" />
            </Array>
          </mxGeometry>
        </mxCell>
        <mxCell id="iz9lgZ_pq5O3MmPFu8a6-112" value="&lt;font style=&quot;font-size: 17px;&quot;&gt;packet.DstAddr&lt;/font&gt;" style="text;html=1;align=center;verticalAlign=middle;resizable=0;points=[];autosize=1;strokeColor=none;fillColor=none;fontSize=12;fontColor=#000000;" parent="iz9lgZ_pq5O3MmPFu8a6-1" vertex="1">
          <mxGeometry x="-30" y="767" width="140" height="30" as="geometry" />
        </mxCell>
        <mxCell id="iz9lgZ_pq5O3MmPFu8a6-113" style="edgeStyle=orthogonalEdgeStyle;rounded=0;orthogonalLoop=1;jettySize=auto;html=1;entryX=0;entryY=0;entryDx=0;entryDy=0;strokeWidth=1;" parent="iz9lgZ_pq5O3MmPFu8a6-1" target="iz9lgZ_pq5O3MmPFu8a6-115" edge="1">
          <mxGeometry relative="1" as="geometry">
            <mxPoint x="41.5" y="723" as="sourcePoint" />
            <Array as="points">
              <mxPoint x="41.5" y="753" />
            </Array>
          </mxGeometry>
        </mxCell>
        <mxCell id="u3R3yXJtRklwDOEf7TLC-2" style="edgeStyle=orthogonalEdgeStyle;rounded=0;orthogonalLoop=1;jettySize=auto;html=1;exitX=1;exitY=0.5;exitDx=0;exitDy=0;strokeColor=#000000;strokeWidth=1;fontSize=40;startArrow=none;startFill=0;" parent="iz9lgZ_pq5O3MmPFu8a6-1" source="iz9lgZ_pq5O3MmPFu8a6-115" target="iz9lgZ_pq5O3MmPFu8a6-120" edge="1">
          <mxGeometry relative="1" as="geometry">
            <mxPoint x="605" y="765.0000000000005" as="targetPoint" />
            <Array as="points">
              <mxPoint x="192" y="765" />
            </Array>
          </mxGeometry>
        </mxCell>
        <mxCell id="iz9lgZ_pq5O3MmPFu8a6-115" value="&lt;font style=&quot;font-size: 26px;&quot;&gt;+&lt;/font&gt;" style="ellipse;whiteSpace=wrap;html=1;aspect=fixed;" parent="iz9lgZ_pq5O3MmPFu8a6-1" vertex="1">
          <mxGeometry x="162.5" y="749" width="29" height="29" as="geometry" />
        </mxCell>
        <mxCell id="iz9lgZ_pq5O3MmPFu8a6-116" value="ReadAddr" style="text;html=1;align=center;verticalAlign=middle;resizable=0;points=[];autosize=1;strokeColor=none;fillColor=none;fontSize=19;" parent="iz9lgZ_pq5O3MmPFu8a6-1" vertex="1">
          <mxGeometry x="192.5" y="682" width="110" height="40" as="geometry" />
        </mxCell>
        <mxCell id="iz9lgZ_pq5O3MmPFu8a6-120" value="&lt;font style=&quot;font-size: 19px;&quot;&gt;Command&lt;br&gt;(SrcAddr,DstAddr,Length&lt;br&gt;,DescAddr,LT)&lt;br&gt;&lt;/font&gt;" style="text;html=1;align=center;verticalAlign=middle;resizable=0;points=[];autosize=1;strokeColor=none;fillColor=none;fontSize=17;" parent="iz9lgZ_pq5O3MmPFu8a6-1" vertex="1">
          <mxGeometry x="392" y="723.5" width="230" height="80" as="geometry" />
        </mxCell>
        <mxCell id="iz9lgZ_pq5O3MmPFu8a6-122" value="&lt;font style=&quot;font-size: 15px;&quot;&gt;WordSig&lt;/font&gt;" style="text;html=1;align=center;verticalAlign=middle;resizable=0;points=[];autosize=1;strokeColor=none;fillColor=none;" parent="iz9lgZ_pq5O3MmPFu8a6-1" vertex="1">
          <mxGeometry x="70.75" y="66.5" width="80" height="30" as="geometry" />
        </mxCell>
        <mxCell id="iz9lgZ_pq5O3MmPFu8a6-124" value="SigDescDataOut" style="text;html=1;align=center;verticalAlign=middle;resizable=0;points=[];autosize=1;strokeColor=none;fillColor=none;fontSize=17;" parent="iz9lgZ_pq5O3MmPFu8a6-1" vertex="1">
          <mxGeometry x="-233.5" y="676" width="150" height="30" as="geometry" />
        </mxCell>
        <mxCell id="iz9lgZ_pq5O3MmPFu8a6-125" value="DescDataOut" style="text;html=1;align=center;verticalAlign=middle;resizable=0;points=[];autosize=1;strokeColor=none;fillColor=none;fontSize=17;" parent="iz9lgZ_pq5O3MmPFu8a6-1" vertex="1">
          <mxGeometry x="-228.5" y="421.5" width="130" height="30" as="geometry" />
        </mxCell>
        <mxCell id="iz9lgZ_pq5O3MmPFu8a6-126" style="edgeStyle=orthogonalEdgeStyle;rounded=0;orthogonalLoop=1;jettySize=auto;html=1;fontSize=12;" parent="iz9lgZ_pq5O3MmPFu8a6-1" source="iz9lgZ_pq5O3MmPFu8a6-40" target="iz9lgZ_pq5O3MmPFu8a6-127" edge="1">
          <mxGeometry relative="1" as="geometry">
            <mxPoint x="467" y="321.0000000000002" as="targetPoint" />
            <mxPoint x="417" y="328" as="sourcePoint" />
            <Array as="points" />
          </mxGeometry>
        </mxCell>
        <mxCell id="iz9lgZ_pq5O3MmPFu8a6-127" value="WE [BRAM_NUM_COL-1:0]" style="text;html=1;align=center;verticalAlign=middle;resizable=0;points=[];autosize=1;strokeColor=none;fillColor=none;fontSize=19;" parent="iz9lgZ_pq5O3MmPFu8a6-1" vertex="1">
          <mxGeometry x="377" y="242" width="260" height="40" as="geometry" />
        </mxCell>
        <mxCell id="iz9lgZ_pq5O3MmPFu8a6-128" style="edgeStyle=orthogonalEdgeStyle;rounded=0;orthogonalLoop=1;jettySize=auto;html=1;exitX=0.25;exitY=1;exitDx=0;exitDy=0;startArrow=classic;startFill=1;endArrow=none;endFill=0;" parent="iz9lgZ_pq5O3MmPFu8a6-1" source="iz9lgZ_pq5O3MmPFu8a6-40" target="iz9lgZ_pq5O3MmPFu8a6-140" edge="1">
          <mxGeometry relative="1" as="geometry">
            <mxPoint x="290" y="224.5" as="sourcePoint" />
            <mxPoint x="283.5" y="232" as="targetPoint" />
            <Array as="points" />
          </mxGeometry>
        </mxCell>
        <mxCell id="iz9lgZ_pq5O3MmPFu8a6-129" style="edgeStyle=orthogonalEdgeStyle;rounded=0;orthogonalLoop=1;jettySize=auto;html=1;exitX=0.75;exitY=1;exitDx=0;exitDy=0;fontSize=12;startArrow=classic;startFill=1;endArrow=none;endFill=0;endSize=15;sourcePerimeterSpacing=18;targetPerimeterSpacing=0;strokeColor=#000000;" parent="iz9lgZ_pq5O3MmPFu8a6-1" source="iz9lgZ_pq5O3MmPFu8a6-40" target="iz9lgZ_pq5O3MmPFu8a6-139" edge="1">
          <mxGeometry relative="1" as="geometry">
            <mxPoint x="290" y="245" as="sourcePoint" />
            <mxPoint x="279.1300000000001" y="278" as="targetPoint" />
          </mxGeometry>
        </mxCell>
        <mxCell id="iz9lgZ_pq5O3MmPFu8a6-133" value="ReadyBRAM&lt;br&gt;(obtained control &lt;br&gt;of RegSpace)" style="text;html=1;align=center;verticalAlign=middle;resizable=0;points=[];autosize=1;strokeColor=none;fillColor=none;fontSize=19;" parent="iz9lgZ_pq5O3MmPFu8a6-1" vertex="1">
          <mxGeometry x="-452" y="223" width="170" height="80" as="geometry" />
        </mxCell>
        <mxCell id="iz9lgZ_pq5O3MmPFu8a6-134" value="" style="shape=curlyBracket;whiteSpace=wrap;html=1;rounded=1;fontSize=21;" parent="iz9lgZ_pq5O3MmPFu8a6-1" vertex="1">
          <mxGeometry x="-499" y="229" width="20" height="60" as="geometry" />
        </mxCell>
        <mxCell id="iz9lgZ_pq5O3MmPFu8a6-135" value="From BRAM&#39;s Arbiter" style="text;html=1;align=center;verticalAlign=middle;resizable=0;points=[];autosize=1;strokeColor=none;fillColor=none;fontSize=18;" parent="iz9lgZ_pq5O3MmPFu8a6-1" vertex="1">
          <mxGeometry x="-684.5" y="239" width="190" height="40" as="geometry" />
        </mxCell>
        <mxCell id="iz9lgZ_pq5O3MmPFu8a6-136" value="ValidBRAM&lt;br&gt;(Want to Write FIFO)" style="text;html=1;align=center;verticalAlign=middle;resizable=0;points=[];autosize=1;strokeColor=none;fillColor=none;fontSize=19;" parent="iz9lgZ_pq5O3MmPFu8a6-1" vertex="1">
          <mxGeometry x="407" y="293" width="200" height="60" as="geometry" />
        </mxCell>
        <mxCell id="iz9lgZ_pq5O3MmPFu8a6-137" style="edgeStyle=orthogonalEdgeStyle;rounded=0;orthogonalLoop=1;jettySize=auto;html=1;exitX=1;exitY=0.5;exitDx=0;exitDy=0;strokeColor=#000000;" parent="iz9lgZ_pq5O3MmPFu8a6-1" source="iz9lgZ_pq5O3MmPFu8a6-97" target="iz9lgZ_pq5O3MmPFu8a6-136" edge="1">
          <mxGeometry relative="1" as="geometry">
            <mxPoint x="355" y="321" as="sourcePoint" />
            <Array as="points">
              <mxPoint x="340" y="407" />
              <mxPoint x="340" y="321" />
            </Array>
          </mxGeometry>
        </mxCell>
        <mxCell id="iz9lgZ_pq5O3MmPFu8a6-139" value="WE[SentBytesIndx] = 1" style="text;html=1;align=center;verticalAlign=middle;resizable=0;points=[];autosize=1;strokeColor=none;fillColor=none;fontSize=17;" parent="iz9lgZ_pq5O3MmPFu8a6-1" vertex="1">
          <mxGeometry x="81.5" y="275" width="200" height="30" as="geometry" />
        </mxCell>
        <mxCell id="iz9lgZ_pq5O3MmPFu8a6-140" value="0" style="text;html=1;align=center;verticalAlign=middle;resizable=0;points=[];autosize=1;strokeColor=none;fillColor=none;fontSize=17;" parent="iz9lgZ_pq5O3MmPFu8a6-1" vertex="1">
          <mxGeometry x="254" y="220.5" width="30" height="30" as="geometry" />
        </mxCell>
        <mxCell id="FPyog5_0CW0yQ2vfRDx7-0" value="&lt;br&gt;" style="text;html=1;align=center;verticalAlign=middle;resizable=0;points=[];autosize=1;strokeColor=none;fillColor=none;" parent="iz9lgZ_pq5O3MmPFu8a6-1" vertex="1">
          <mxGeometry x="321.3699999999999" y="146" width="20" height="30" as="geometry" />
        </mxCell>
        <mxCell id="FPyog5_0CW0yQ2vfRDx7-1" value="WEControl" style="text;html=1;align=center;verticalAlign=middle;resizable=0;points=[];autosize=1;strokeColor=none;fillColor=none;rotation=0;fontSize=17;" parent="iz9lgZ_pq5O3MmPFu8a6-1" vertex="1">
          <mxGeometry x="132" y="346" width="110" height="30" as="geometry" />
        </mxCell>
        <mxCell id="FPyog5_0CW0yQ2vfRDx7-5" style="edgeStyle=orthogonalEdgeStyle;rounded=0;orthogonalLoop=1;jettySize=auto;html=1;entryX=0.25;entryY=1;entryDx=0;entryDy=0;strokeColor=#000000;" parent="iz9lgZ_pq5O3MmPFu8a6-1" source="FPyog5_0CW0yQ2vfRDx7-4" target="iz9lgZ_pq5O3MmPFu8a6-59" edge="1">
          <mxGeometry relative="1" as="geometry" />
        </mxCell>
        <mxCell id="FPyog5_0CW0yQ2vfRDx7-4" value="FIFO_Out" style="text;html=1;align=center;verticalAlign=middle;resizable=0;points=[];autosize=1;strokeColor=none;fillColor=none;fontSize=17;" parent="iz9lgZ_pq5O3MmPFu8a6-1" vertex="1">
          <mxGeometry x="76.5" y="116" width="100" height="30" as="geometry" />
        </mxCell>
        <mxCell id="FPyog5_0CW0yQ2vfRDx7-7" style="edgeStyle=orthogonalEdgeStyle;rounded=0;orthogonalLoop=1;jettySize=auto;html=1;entryX=0.64;entryY=0.98;entryDx=0;entryDy=0;entryPerimeter=0;strokeColor=#000000;" parent="iz9lgZ_pq5O3MmPFu8a6-1" source="FPyog5_0CW0yQ2vfRDx7-6" target="iz9lgZ_pq5O3MmPFu8a6-59" edge="1">
          <mxGeometry relative="1" as="geometry" />
        </mxCell>
        <mxCell id="FPyog5_0CW0yQ2vfRDx7-6" value="DescAddrPointer" style="text;html=1;align=center;verticalAlign=middle;resizable=0;points=[];autosize=1;strokeColor=none;fillColor=none;fontSize=17;" parent="iz9lgZ_pq5O3MmPFu8a6-1" vertex="1">
          <mxGeometry x="30" y="154" width="150" height="30" as="geometry" />
        </mxCell>
        <mxCell id="FPyog5_0CW0yQ2vfRDx7-8" value="Empty" style="text;html=1;align=center;verticalAlign=middle;resizable=0;points=[];autosize=1;strokeColor=none;fillColor=none;fontSize=19;" parent="iz9lgZ_pq5O3MmPFu8a6-1" vertex="1">
          <mxGeometry x="127" y="200" width="80" height="40" as="geometry" />
        </mxCell>
        <mxCell id="u3R3yXJtRklwDOEf7TLC-0" value="&lt;font color=&quot;#000000&quot; style=&quot;font-size: 19px;&quot;&gt;DescAddr&lt;br&gt;&lt;/font&gt;" style="text;html=1;align=center;verticalAlign=middle;resizable=0;points=[];autosize=1;strokeColor=none;fillColor=none;fontSize=19;fontColor=#CCE5FF;" parent="iz9lgZ_pq5O3MmPFu8a6-1" vertex="1">
          <mxGeometry x="-164" y="630" width="110" height="40" as="geometry" />
        </mxCell>
        <mxCell id="u3R3yXJtRklwDOEf7TLC-1" value="&lt;span style=&quot;font-size: 19px;&quot;&gt;LastDescTrans&lt;/span&gt;" style="text;html=1;align=center;verticalAlign=middle;resizable=0;points=[];autosize=1;strokeColor=none;fillColor=none;fontSize=40;" parent="iz9lgZ_pq5O3MmPFu8a6-1" vertex="1">
          <mxGeometry x="187.5" y="804.5" width="150" height="60" as="geometry" />
        </mxCell>
        <mxCell id="u3R3yXJtRklwDOEf7TLC-3" value="WriteAddr" style="text;html=1;align=center;verticalAlign=middle;resizable=0;points=[];autosize=1;strokeColor=none;fillColor=none;fontSize=19;" parent="iz9lgZ_pq5O3MmPFu8a6-1" vertex="1">
          <mxGeometry x="187" y="733" width="110" height="40" as="geometry" />
        </mxCell>
        <mxCell id="T2ftMuJ99wprAWzNBxtP-0" style="edgeStyle=orthogonalEdgeStyle;rounded=0;orthogonalLoop=1;jettySize=auto;html=1;exitX=0;exitY=0;exitDx=0;exitDy=0;fontSize=12;startArrow=classic;startFill=1;endArrow=none;endFill=0;endSize=15;sourcePerimeterSpacing=18;targetPerimeterSpacing=0;" parent="iz9lgZ_pq5O3MmPFu8a6-1" source="T2ftMuJ99wprAWzNBxtP-2" edge="1">
          <mxGeometry relative="1" as="geometry">
            <mxPoint x="-212" y="60" as="targetPoint" />
            <mxPoint x="-118.04594154601841" y="64.45405845398159" as="sourcePoint" />
            <Array as="points">
              <mxPoint x="-212" y="115.5" />
            </Array>
          </mxGeometry>
        </mxCell>
        <mxCell id="T2ftMuJ99wprAWzNBxtP-1" style="edgeStyle=orthogonalEdgeStyle;rounded=0;orthogonalLoop=1;jettySize=auto;html=1;exitX=0;exitY=1;exitDx=0;exitDy=0;fontSize=12;startArrow=classic;startFill=1;endArrow=none;endFill=0;endSize=15;sourcePerimeterSpacing=18;targetPerimeterSpacing=0;" parent="iz9lgZ_pq5O3MmPFu8a6-1" source="T2ftMuJ99wprAWzNBxtP-2" edge="1">
          <mxGeometry relative="1" as="geometry">
            <mxPoint x="-212" y="60" as="targetPoint" />
            <mxPoint x="-118.04594154601841" y="83.54594154601841" as="sourcePoint" />
            <Array as="points">
              <mxPoint x="-212" y="134.5" />
            </Array>
          </mxGeometry>
        </mxCell>
        <mxCell id="T2ftMuJ99wprAWzNBxtP-6" style="edgeStyle=orthogonalEdgeStyle;rounded=0;orthogonalLoop=1;jettySize=auto;html=1;exitX=1;exitY=0.5;exitDx=0;exitDy=0;entryX=0;entryY=0.5;entryDx=0;entryDy=0;fontSize=13;" parent="iz9lgZ_pq5O3MmPFu8a6-1" source="T2ftMuJ99wprAWzNBxtP-2" target="T2ftMuJ99wprAWzNBxtP-5" edge="1">
          <mxGeometry relative="1" as="geometry" />
        </mxCell>
        <mxCell id="T2ftMuJ99wprAWzNBxtP-2" value="&lt;font style=&quot;font-size: 26px;&quot;&gt;+&lt;/font&gt;" style="ellipse;whiteSpace=wrap;html=1;aspect=fixed;fontSize=12;" parent="iz9lgZ_pq5O3MmPFu8a6-1" vertex="1">
          <mxGeometry x="-101" y="111" width="27" height="27" as="geometry" />
        </mxCell>
        <mxCell id="T2ftMuJ99wprAWzNBxtP-3" value="&lt;span style=&quot;font-size: 17px; background-color: rgb(187, 211, 247);&quot;&gt;&lt;span style=&quot;color: rgb(0, 0, 0); font-family: Helvetica; font-size: 17px; font-style: normal; font-variant-ligatures: normal; font-variant-caps: normal; font-weight: 400; letter-spacing: normal; orphans: 2; text-align: center; text-indent: 0px; text-transform: none; widows: 2; word-spacing: 0px; -webkit-text-stroke-width: 0px; text-decoration-thickness: initial; text-decoration-style: initial; text-decoration-color: initial; float: none; display: inline !important;&quot;&gt;packet&lt;/span&gt;&lt;font style=&quot;color: rgb(0, 0, 0); font-family: Helvetica; font-style: normal; font-variant-ligatures: normal; font-variant-caps: normal; font-weight: 400; letter-spacing: normal; orphans: 2; text-align: center; text-indent: 0px; text-transform: none; widows: 2; word-spacing: 0px; -webkit-text-stroke-width: 0px; text-decoration-thickness: initial; text-decoration-style: initial; text-decoration-color: initial; font-size: 17px;&quot;&gt;.&lt;/font&gt;&lt;span style=&quot;color: rgb(0, 0, 0); font-family: Helvetica; font-size: 17px; font-style: normal; font-variant-ligatures: normal; font-variant-caps: normal; font-weight: 400; letter-spacing: normal; orphans: 2; text-align: center; text-indent: 0px; text-transform: none; widows: 2; word-spacing: 0px; -webkit-text-stroke-width: 0px; text-decoration-thickness: initial; text-decoration-style: initial; text-decoration-color: initial; float: none; display: inline !important;&quot;&gt;SB&lt;/span&gt;&lt;/span&gt;" style="text;whiteSpace=wrap;html=1;fontSize=17;" parent="iz9lgZ_pq5O3MmPFu8a6-1" vertex="1">
          <mxGeometry x="-204" y="86.5" width="67" height="28" as="geometry" />
        </mxCell>
        <mxCell id="T2ftMuJ99wprAWzNBxtP-4" value="&lt;span style=&quot;font-size: 17px; background-color: rgb(187, 211, 247);&quot;&gt;&lt;span style=&quot;color: rgb(0, 0, 0); font-family: Helvetica; font-size: 17px; font-style: normal; font-variant-ligatures: normal; font-variant-caps: normal; font-weight: 400; letter-spacing: normal; orphans: 2; text-align: center; text-indent: 0px; text-transform: none; widows: 2; word-spacing: 0px; -webkit-text-stroke-width: 0px; text-decoration-thickness: initial; text-decoration-style: initial; text-decoration-color: initial; float: none; display: inline !important;&quot;&gt;packet&lt;/span&gt;&lt;font style=&quot;color: rgb(0, 0, 0); font-family: Helvetica; font-style: normal; font-variant-ligatures: normal; font-variant-caps: normal; font-weight: 400; letter-spacing: normal; orphans: 2; text-align: center; text-indent: 0px; text-transform: none; widows: 2; word-spacing: 0px; -webkit-text-stroke-width: 0px; text-decoration-thickness: initial; text-decoration-style: initial; text-decoration-color: initial; font-size: 17px;&quot;&gt;.&lt;/font&gt;&lt;span style=&quot;color: rgb(0, 0, 0); font-family: Helvetica; font-size: 17px; font-style: normal; font-variant-ligatures: normal; font-variant-caps: normal; font-weight: 400; letter-spacing: normal; orphans: 2; text-align: center; text-indent: 0px; text-transform: none; widows: 2; word-spacing: 0px; -webkit-text-stroke-width: 0px; text-decoration-thickness: initial; text-decoration-style: initial; text-decoration-color: initial; float: none; display: inline !important;&quot;&gt;SrcAddr&lt;/span&gt;&lt;/span&gt;" style="text;whiteSpace=wrap;html=1;fontSize=17;fillColor=none;strokeColor=none;" parent="iz9lgZ_pq5O3MmPFu8a6-1" vertex="1">
          <mxGeometry x="-213" y="130" width="65.5" height="24" as="geometry" />
        </mxCell>
        <mxCell id="T2ftMuJ99wprAWzNBxtP-9" style="edgeStyle=orthogonalEdgeStyle;rounded=0;orthogonalLoop=1;jettySize=auto;html=1;exitX=1;exitY=0.5;exitDx=0;exitDy=0;entryX=0;entryY=1;entryDx=0;entryDy=0;fontSize=13;" parent="iz9lgZ_pq5O3MmPFu8a6-1" source="T2ftMuJ99wprAWzNBxtP-5" target="T2ftMuJ99wprAWzNBxtP-8" edge="1">
          <mxGeometry relative="1" as="geometry">
            <Array as="points">
              <mxPoint x="-20" y="125" />
              <mxPoint x="-20" y="91" />
            </Array>
          </mxGeometry>
        </mxCell>
        <mxCell id="T2ftMuJ99wprAWzNBxtP-5" value="&lt;font style=&quot;font-size: 13px;&quot;&gt;%64&lt;/font&gt;" style="ellipse;whiteSpace=wrap;html=1;aspect=fixed;fontSize=12;" parent="iz9lgZ_pq5O3MmPFu8a6-1" vertex="1">
          <mxGeometry x="-57" y="111" width="27" height="27" as="geometry" />
        </mxCell>
        <mxCell id="T2ftMuJ99wprAWzNBxtP-10" style="edgeStyle=orthogonalEdgeStyle;rounded=0;orthogonalLoop=1;jettySize=auto;html=1;exitX=1;exitY=0.5;exitDx=0;exitDy=0;entryX=0;entryY=0;entryDx=0;entryDy=0;fontSize=13;" parent="iz9lgZ_pq5O3MmPFu8a6-1" source="T2ftMuJ99wprAWzNBxtP-8" target="iz9lgZ_pq5O3MmPFu8a6-53" edge="1">
          <mxGeometry relative="1" as="geometry">
            <Array as="points">
              <mxPoint x="22" y="78" />
            </Array>
          </mxGeometry>
        </mxCell>
        <mxCell id="T2ftMuJ99wprAWzNBxtP-8" value="&lt;font style=&quot;font-size: 26px;&quot;&gt;-&lt;/font&gt;" style="ellipse;whiteSpace=wrap;html=1;aspect=fixed;fontSize=12;" parent="iz9lgZ_pq5O3MmPFu8a6-1" vertex="1">
          <mxGeometry x="-4.75" y="68" width="27" height="27" as="geometry" />
        </mxCell>
        <mxCell id="R2ni64MihsNyxZ0m2uap-0" value="" style="triangle;whiteSpace=wrap;html=1;labelBackgroundColor=#CCE5FF;fontSize=12;fontColor=#000000;fillColor=#CCE5FF;" parent="iz9lgZ_pq5O3MmPFu8a6-1" vertex="1">
          <mxGeometry x="-213" y="128" width="20" height="13" as="geometry" />
        </mxCell>
        <mxCell id="R2ni64MihsNyxZ0m2uap-1" value="" style="triangle;whiteSpace=wrap;html=1;labelBackgroundColor=#CCE5FF;fontSize=12;fontColor=#000000;fillColor=#CCE5FF;" parent="iz9lgZ_pq5O3MmPFu8a6-1" vertex="1">
          <mxGeometry x="-213" y="108.5" width="20" height="13" as="geometry" />
        </mxCell>
        <mxCell id="R2ni64MihsNyxZ0m2uap-2" value="" style="triangle;whiteSpace=wrap;html=1;labelBackgroundColor=#CCE5FF;fontSize=12;fontColor=#000000;fillColor=#CCE5FF;" parent="iz9lgZ_pq5O3MmPFu8a6-1" vertex="1">
          <mxGeometry x="-220" y="201.5" width="20" height="13" as="geometry" />
        </mxCell>
        <mxCell id="R2ni64MihsNyxZ0m2uap-4" value="" style="triangle;whiteSpace=wrap;html=1;labelBackgroundColor=#CCE5FF;fontSize=12;fontColor=#000000;fillColor=#CCE5FF;" parent="iz9lgZ_pq5O3MmPFu8a6-1" vertex="1">
          <mxGeometry x="-220" y="182.5" width="20" height="13" as="geometry" />
        </mxCell>
        <mxCell id="R2ni64MihsNyxZ0m2uap-6" value="" style="edgeStyle=orthogonalEdgeStyle;rounded=0;orthogonalLoop=1;jettySize=auto;html=1;" parent="iz9lgZ_pq5O3MmPFu8a6-1" source="R2ni64MihsNyxZ0m2uap-5" target="iz9lgZ_pq5O3MmPFu8a6-40" edge="1">
          <mxGeometry relative="1" as="geometry" />
        </mxCell>
        <mxCell id="R2ni64MihsNyxZ0m2uap-5" value="WE[Status] = 1" style="text;html=1;align=center;verticalAlign=middle;resizable=0;points=[];autosize=1;strokeColor=none;fillColor=none;fontSize=17;" parent="iz9lgZ_pq5O3MmPFu8a6-1" vertex="1">
          <mxGeometry x="81.5" y="247.5" width="140" height="30" as="geometry" />
        </mxCell>
      </root>
    </mxGraphModel>
  </diagram>
  <diagram id="4K5KOWFWuH8jTdfxK54g" name="WRONG">
    <mxGraphModel dx="2389" dy="1927" grid="1" gridSize="10" guides="1" tooltips="1" connect="1" arrows="1" fold="1" page="1" pageScale="1" pageWidth="827" pageHeight="1169" math="0" shadow="0">
      <root>
        <mxCell id="0" />
        <mxCell id="1" parent="0" />
        <mxCell id="Z5mUkjpB2CVsX0ggXPZW-319" style="edgeStyle=orthogonalEdgeStyle;rounded=0;orthogonalLoop=1;jettySize=auto;html=1;exitX=0;exitY=0.25;exitDx=0;exitDy=0;exitPerimeter=0;fontSize=12;startArrow=classic;startFill=1;endArrow=none;endFill=0;endSize=15;sourcePerimeterSpacing=18;targetPerimeterSpacing=0;strokeColor=#000000;" parent="1" edge="1">
          <mxGeometry relative="1" as="geometry">
            <mxPoint x="44" y="959.5" as="sourcePoint" />
          </mxGeometry>
        </mxCell>
        <mxCell id="Z5mUkjpB2CVsX0ggXPZW-321" style="edgeStyle=orthogonalEdgeStyle;rounded=0;orthogonalLoop=1;jettySize=auto;html=1;exitX=1;exitY=0.5;exitDx=0;exitDy=0;exitPerimeter=0;entryX=0;entryY=0.25;entryDx=0;entryDy=0;entryPerimeter=0;fontSize=10;fontColor=#000000;startArrow=none;startFill=0;endArrow=classic;endFill=1;endSize=6;sourcePerimeterSpacing=18;targetPerimeterSpacing=0;strokeColor=#000000;strokeWidth=1;" parent="1" edge="1">
          <mxGeometry relative="1" as="geometry">
            <mxPoint x="187" y="967.5" as="targetPoint" />
          </mxGeometry>
        </mxCell>
        <mxCell id="Z5mUkjpB2CVsX0ggXPZW-403" style="edgeStyle=orthogonalEdgeStyle;rounded=0;orthogonalLoop=1;jettySize=auto;html=1;exitX=0;exitY=0.75;exitDx=0;exitDy=0;exitPerimeter=0;fontSize=10;fontColor=#000000;startArrow=classic;startFill=1;endArrow=none;endFill=0;endSize=6;sourcePerimeterSpacing=18;targetPerimeterSpacing=0;strokeColor=#000000;strokeWidth=1;" parent="1" edge="1">
          <mxGeometry relative="1" as="geometry">
            <mxPoint x="187" y="982.5" as="sourcePoint" />
          </mxGeometry>
        </mxCell>
        <mxCell id="LC4siJIk5vWK9PD_h5xN-1" value="" style="rounded=0;whiteSpace=wrap;html=1;fontSize=24;fillColor=#dae8fc;strokeColor=#6c8ebf;" parent="1" vertex="1">
          <mxGeometry x="-228.5" y="17.5" width="588.5" height="972.5" as="geometry" />
        </mxCell>
        <mxCell id="LC4siJIk5vWK9PD_h5xN-2" value="&lt;font style=&quot;font-size: 40px;&quot;&gt;Scheduer&lt;/font&gt;" style="text;html=1;align=center;verticalAlign=middle;resizable=0;points=[];autosize=1;strokeColor=none;fillColor=none;" parent="1" vertex="1">
          <mxGeometry x="-29.25" y="-42.5" width="190" height="60" as="geometry" />
        </mxCell>
        <mxCell id="LC4siJIk5vWK9PD_h5xN-3" style="edgeStyle=orthogonalEdgeStyle;rounded=0;orthogonalLoop=1;jettySize=auto;html=1;startArrow=classic;startFill=1;endArrow=none;endFill=0;exitX=-0.011;exitY=0.178;exitDx=0;exitDy=0;exitPerimeter=0;fillColor=#f8cecc;strokeColor=#000000;" parent="1" source="LC4siJIk5vWK9PD_h5xN-93" target="LC4siJIk5vWK9PD_h5xN-23" edge="1">
          <mxGeometry relative="1" as="geometry">
            <mxPoint x="-190" y="486.41176470588243" as="targetPoint" />
            <mxPoint x="401" y="588.5" as="sourcePoint" />
            <Array as="points">
              <mxPoint x="-130" y="442" />
              <mxPoint x="-130" y="442" />
            </Array>
          </mxGeometry>
        </mxCell>
        <mxCell id="LC4siJIk5vWK9PD_h5xN-4" style="edgeStyle=orthogonalEdgeStyle;rounded=0;orthogonalLoop=1;jettySize=auto;html=1;startArrow=none;startFill=0;endArrow=none;endFill=0;fillColor=#e1d5e7;strokeColor=#FF0080;" parent="1" target="LC4siJIk5vWK9PD_h5xN-26" edge="1">
          <mxGeometry relative="1" as="geometry">
            <mxPoint x="-190" y="703" as="targetPoint" />
            <mxPoint x="-210" y="760" as="sourcePoint" />
            <Array as="points">
              <mxPoint x="-210" y="760" />
              <mxPoint x="-210" y="640" />
            </Array>
          </mxGeometry>
        </mxCell>
        <mxCell id="LC4siJIk5vWK9PD_h5xN-5" style="edgeStyle=orthogonalEdgeStyle;rounded=0;orthogonalLoop=1;jettySize=auto;html=1;fontSize=12;exitX=1;exitY=0.5;exitDx=0;exitDy=0;strokeWidth=3;" parent="1" source="LC4siJIk5vWK9PD_h5xN-34" target="LC4siJIk5vWK9PD_h5xN-6" edge="1">
          <mxGeometry relative="1" as="geometry">
            <mxPoint x="244.99999999999955" y="70.00000000000023" as="targetPoint" />
            <mxPoint x="202.99999999997544" y="158" as="sourcePoint" />
            <Array as="points" />
          </mxGeometry>
        </mxCell>
        <mxCell id="LC4siJIk5vWK9PD_h5xN-6" value="DescDataOut_packet" style="text;html=1;align=center;verticalAlign=middle;resizable=0;points=[];autosize=1;strokeColor=none;fillColor=none;fontSize=19;" parent="1" vertex="1">
          <mxGeometry x="515" y="49" width="200" height="40" as="geometry" />
        </mxCell>
        <mxCell id="LC4siJIk5vWK9PD_h5xN-7" value="&lt;span style=&quot;color: rgb(0, 0, 0); font-family: Helvetica; font-size: 19px; font-style: normal; font-variant-ligatures: normal; font-variant-caps: normal; font-weight: 400; letter-spacing: normal; orphans: 2; text-align: center; text-indent: 0px; text-transform: none; widows: 2; word-spacing: 0px; -webkit-text-stroke-width: 0px; background-color: rgb(248, 249, 250); text-decoration-thickness: initial; text-decoration-style: initial; text-decoration-color: initial; float: none; display: inline !important;&quot;&gt;DescDataIn_packet&lt;/span&gt;" style="text;whiteSpace=wrap;html=1;fontSize=19;" parent="1" vertex="1">
          <mxGeometry x="-529" y="38" width="178" height="42" as="geometry" />
        </mxCell>
        <mxCell id="LC4siJIk5vWK9PD_h5xN-8" style="edgeStyle=orthogonalEdgeStyle;rounded=0;orthogonalLoop=1;jettySize=auto;html=1;fontSize=12;exitX=0.331;exitY=1.011;exitDx=0;exitDy=0;exitPerimeter=0;" parent="1" source="LC4siJIk5vWK9PD_h5xN-93" target="LC4siJIk5vWK9PD_h5xN-9" edge="1">
          <mxGeometry relative="1" as="geometry">
            <mxPoint x="726" y="818" as="targetPoint" />
            <mxPoint x="316" y="660" as="sourcePoint" />
            <Array as="points">
              <mxPoint x="5" y="710" />
            </Array>
          </mxGeometry>
        </mxCell>
        <mxCell id="LC4siJIk5vWK9PD_h5xN-9" value="Read &lt;br&gt;(There is a Valid Read Request)" style="text;html=1;align=center;verticalAlign=middle;resizable=0;points=[];autosize=1;strokeColor=none;fillColor=none;fontSize=19;" parent="1" vertex="1">
          <mxGeometry x="425" y="668" width="290" height="60" as="geometry" />
        </mxCell>
        <mxCell id="LC4siJIk5vWK9PD_h5xN-10" value="RegSapceAddr" style="text;html=1;align=center;verticalAlign=middle;resizable=0;points=[];autosize=1;strokeColor=none;fillColor=none;fontSize=19;" parent="1" vertex="1">
          <mxGeometry x="572" y="245.51" width="150" height="40" as="geometry" />
        </mxCell>
        <mxCell id="LC4siJIk5vWK9PD_h5xN-11" style="edgeStyle=orthogonalEdgeStyle;rounded=0;orthogonalLoop=1;jettySize=auto;html=1;fontSize=12;exitX=0.5;exitY=0;exitDx=0;exitDy=0;" parent="1" source="LC4siJIk5vWK9PD_h5xN-55" target="LC4siJIk5vWK9PD_h5xN-10" edge="1">
          <mxGeometry relative="1" as="geometry">
            <mxPoint x="708" y="245" as="targetPoint" />
            <mxPoint x="600" y="300" as="sourcePoint" />
            <Array as="points">
              <mxPoint x="341" y="266" />
            </Array>
          </mxGeometry>
        </mxCell>
        <mxCell id="LC4siJIk5vWK9PD_h5xN-12" value="ValidFIFO&lt;br&gt;(Want to Write FIFO)" style="text;html=1;align=center;verticalAlign=middle;resizable=0;points=[];autosize=1;strokeColor=none;fillColor=none;fontSize=19;" parent="1" vertex="1">
          <mxGeometry x="515" y="520" width="200" height="60" as="geometry" />
        </mxCell>
        <mxCell id="LC4siJIk5vWK9PD_h5xN-13" value="DescAddrPointer&lt;br&gt;(Data For FIFO)" style="text;html=1;align=center;verticalAlign=middle;resizable=0;points=[];autosize=1;strokeColor=none;fillColor=none;fontSize=19;" parent="1" vertex="1">
          <mxGeometry x="545" y="595" width="170" height="60" as="geometry" />
        </mxCell>
        <mxCell id="LC4siJIk5vWK9PD_h5xN-14" value="Dequeue&lt;br&gt;(Take pointer of Next Desc)" style="text;html=1;align=center;verticalAlign=middle;resizable=0;points=[];autosize=1;strokeColor=none;fillColor=none;fontSize=19;" parent="1" vertex="1">
          <mxGeometry x="465" y="454" width="250" height="60" as="geometry" />
        </mxCell>
        <mxCell id="LC4siJIk5vWK9PD_h5xN-15" value="" style="shape=curlyBracket;whiteSpace=wrap;html=1;rounded=1;flipH=1;size=0.5;" parent="1" vertex="1">
          <mxGeometry x="703" y="50" width="29" height="380" as="geometry" />
        </mxCell>
        <mxCell id="LC4siJIk5vWK9PD_h5xN-16" value="" style="shape=curlyBracket;whiteSpace=wrap;html=1;rounded=1;flipH=1;size=0.5;" parent="1" vertex="1">
          <mxGeometry x="703" y="540" width="29" height="109" as="geometry" />
        </mxCell>
        <mxCell id="LC4siJIk5vWK9PD_h5xN-17" value="" style="shape=curlyBracket;whiteSpace=wrap;html=1;rounded=1;flipH=1;size=0.5;" parent="1" vertex="1">
          <mxGeometry x="703" y="475" width="29" height="50" as="geometry" />
        </mxCell>
        <mxCell id="LC4siJIk5vWK9PD_h5xN-18" value="" style="shape=curlyBracket;whiteSpace=wrap;html=1;rounded=1;flipH=1;size=0.5;" parent="1" vertex="1">
          <mxGeometry x="703" y="677" width="29" height="320" as="geometry" />
        </mxCell>
        <mxCell id="LC4siJIk5vWK9PD_h5xN-19" value="For RegSpace-RegspaceArbiter" style="text;html=1;align=center;verticalAlign=middle;resizable=0;points=[];autosize=1;strokeColor=none;fillColor=none;fontSize=17;" parent="1" vertex="1">
          <mxGeometry x="732" y="225" width="270" height="30" as="geometry" />
        </mxCell>
        <mxCell id="LC4siJIk5vWK9PD_h5xN-20" value="For FIFO&#39;s Arbiter" style="text;html=1;align=center;verticalAlign=middle;resizable=0;points=[];autosize=1;strokeColor=none;fillColor=none;fontSize=17;" parent="1" vertex="1">
          <mxGeometry x="720" y="580" width="160" height="30" as="geometry" />
        </mxCell>
        <mxCell id="LC4siJIk5vWK9PD_h5xN-21" value="For FIFO" style="text;html=1;align=center;verticalAlign=middle;resizable=0;points=[];autosize=1;strokeColor=none;fillColor=none;fontSize=17;" parent="1" vertex="1">
          <mxGeometry x="722" y="485" width="90" height="30" as="geometry" />
        </mxCell>
        <mxCell id="LC4siJIk5vWK9PD_h5xN-22" value="For CHI Converter" style="text;html=1;align=center;verticalAlign=middle;resizable=0;points=[];autosize=1;strokeColor=none;fillColor=none;fontSize=17;" parent="1" vertex="1">
          <mxGeometry x="722" y="821" width="160" height="30" as="geometry" />
        </mxCell>
        <mxCell id="LC4siJIk5vWK9PD_h5xN-23" value="ReadyFIFO&lt;br&gt;(obtained control of FIFO)" style="text;html=1;align=center;verticalAlign=middle;resizable=0;points=[];autosize=1;strokeColor=none;fillColor=none;fontSize=19;" parent="1" vertex="1">
          <mxGeometry x="-529" y="390" width="240" height="60" as="geometry" />
        </mxCell>
        <mxCell id="LC4siJIk5vWK9PD_h5xN-24" style="edgeStyle=orthogonalEdgeStyle;rounded=0;orthogonalLoop=1;jettySize=auto;html=1;startArrow=classic;startFill=1;endArrow=none;endFill=0;fillColor=#d5e8d4;strokeColor=#009900;targetPerimeterSpacing=0;exitX=0.006;exitY=0.917;exitDx=0;exitDy=0;exitPerimeter=0;" parent="1" source="LC4siJIk5vWK9PD_h5xN-93" target="LC4siJIk5vWK9PD_h5xN-25" edge="1">
          <mxGeometry relative="1" as="geometry">
            <mxPoint x="-191" y="783" as="targetPoint" />
            <mxPoint x="49" y="743" as="sourcePoint" />
            <Array as="points">
              <mxPoint x="-140" y="531" />
              <mxPoint x="-140" y="549" />
            </Array>
          </mxGeometry>
        </mxCell>
        <mxCell id="LC4siJIk5vWK9PD_h5xN-25" value="Empty" style="text;html=1;align=center;verticalAlign=middle;resizable=0;points=[];autosize=1;strokeColor=none;fillColor=none;fontSize=19;" parent="1" vertex="1">
          <mxGeometry x="-529" y="529" width="80" height="40" as="geometry" />
        </mxCell>
        <mxCell id="LC4siJIk5vWK9PD_h5xN-26" value="FIFO_out&lt;br&gt;(Pointer To the Next Desc)" style="text;html=1;align=center;verticalAlign=middle;resizable=0;points=[];autosize=1;strokeColor=none;fillColor=none;fontSize=19;" parent="1" vertex="1">
          <mxGeometry x="-529" y="602" width="250" height="60" as="geometry" />
        </mxCell>
        <mxCell id="LC4siJIk5vWK9PD_h5xN-27" value="" style="shape=curlyBracket;whiteSpace=wrap;html=1;rounded=1;fontSize=21;" parent="1" vertex="1">
          <mxGeometry x="-545" y="37" width="20" height="42" as="geometry" />
        </mxCell>
        <mxCell id="LC4siJIk5vWK9PD_h5xN-28" value="From RegisterSpace" style="text;html=1;align=center;verticalAlign=middle;resizable=0;points=[];autosize=1;strokeColor=none;fillColor=none;fontSize=18;" parent="1" vertex="1">
          <mxGeometry x="-734" y="35" width="190" height="40" as="geometry" />
        </mxCell>
        <mxCell id="LC4siJIk5vWK9PD_h5xN-29" value="" style="shape=curlyBracket;whiteSpace=wrap;html=1;rounded=1;fontSize=21;" parent="1" vertex="1">
          <mxGeometry x="-543" y="410" width="20" height="32" as="geometry" />
        </mxCell>
        <mxCell id="LC4siJIk5vWK9PD_h5xN-30" value="From FIFO&#39;s Arbiter" style="text;html=1;align=center;verticalAlign=middle;resizable=0;points=[];autosize=1;strokeColor=none;fillColor=none;fontSize=18;" parent="1" vertex="1">
          <mxGeometry x="-726" y="406" width="180" height="40" as="geometry" />
        </mxCell>
        <mxCell id="LC4siJIk5vWK9PD_h5xN-31" value="" style="shape=curlyBracket;whiteSpace=wrap;html=1;rounded=1;fontSize=21;" parent="1" vertex="1">
          <mxGeometry x="-542" y="538" width="20" height="122" as="geometry" />
        </mxCell>
        <mxCell id="LC4siJIk5vWK9PD_h5xN-32" value="From FIFO" style="text;html=1;align=center;verticalAlign=middle;resizable=0;points=[];autosize=1;strokeColor=none;fillColor=none;fontSize=18;" parent="1" vertex="1">
          <mxGeometry x="-653" y="578" width="110" height="40" as="geometry" />
        </mxCell>
        <mxCell id="LC4siJIk5vWK9PD_h5xN-33" style="edgeStyle=orthogonalEdgeStyle;rounded=0;orthogonalLoop=1;jettySize=auto;html=1;exitX=0;exitY=1;exitDx=0;exitDy=0;startArrow=classic;startFill=1;endArrow=none;endFill=0;entryX=1;entryY=0.5;entryDx=0;entryDy=0;" parent="1" source="LC4siJIk5vWK9PD_h5xN-34" target="LC4siJIk5vWK9PD_h5xN-49" edge="1">
          <mxGeometry relative="1" as="geometry">
            <mxPoint x="-37" y="100.5" as="targetPoint" />
            <Array as="points">
              <mxPoint x="20" y="80" />
              <mxPoint x="8" y="80" />
            </Array>
          </mxGeometry>
        </mxCell>
        <mxCell id="LC4siJIk5vWK9PD_h5xN-34" value="&lt;font style=&quot;font-size: 26px;&quot;&gt;+&lt;/font&gt;" style="ellipse;whiteSpace=wrap;html=1;aspect=fixed;" parent="1" vertex="1">
          <mxGeometry x="79" y="55" width="29" height="29" as="geometry" />
        </mxCell>
        <mxCell id="LC4siJIk5vWK9PD_h5xN-35" style="edgeStyle=orthogonalEdgeStyle;rounded=0;orthogonalLoop=1;jettySize=auto;html=1;fontSize=12;startArrow=classic;startFill=1;endArrow=none;endFill=0;exitX=0;exitY=0;exitDx=0;exitDy=0;strokeWidth=3;entryX=1;entryY=0.5;entryDx=0;entryDy=0;" parent="1" source="LC4siJIk5vWK9PD_h5xN-34" target="LC4siJIk5vWK9PD_h5xN-7" edge="1">
          <mxGeometry relative="1" as="geometry">
            <mxPoint x="-280" y="55" as="targetPoint" />
            <mxPoint x="-19.039999999999964" y="87.94999999999982" as="sourcePoint" />
            <Array as="points">
              <mxPoint x="-260" y="59" />
            </Array>
          </mxGeometry>
        </mxCell>
        <mxCell id="LC4siJIk5vWK9PD_h5xN-36" value="&lt;font style=&quot;font-size: 24px;&quot;&gt;M&lt;/font&gt;" style="shape=trapezoid;perimeter=trapezoidPerimeter;whiteSpace=wrap;html=1;fixedSize=1;rotation=90;" parent="1" vertex="1">
          <mxGeometry x="279" y="124" width="92" height="26" as="geometry" />
        </mxCell>
        <mxCell id="LC4siJIk5vWK9PD_h5xN-37" style="edgeStyle=orthogonalEdgeStyle;rounded=0;orthogonalLoop=1;jettySize=auto;html=1;startArrow=classic;startFill=1;endArrow=none;endFill=0;strokeWidth=3;exitX=0;exitY=0.75;exitDx=0;exitDy=0;" parent="1" source="LC4siJIk5vWK9PD_h5xN-93" target="LC4siJIk5vWK9PD_h5xN-121" edge="1">
          <mxGeometry relative="1" as="geometry">
            <mxPoint x="317.2469516727642" y="458.74695167276377" as="sourcePoint" />
            <mxPoint x="203.00000000001182" y="156" as="targetPoint" />
            <Array as="points">
              <mxPoint x="-70" y="511" />
              <mxPoint x="-70" y="511" />
            </Array>
          </mxGeometry>
        </mxCell>
        <mxCell id="LC4siJIk5vWK9PD_h5xN-38" style="edgeStyle=orthogonalEdgeStyle;rounded=0;orthogonalLoop=1;jettySize=auto;html=1;fontSize=14;startArrow=none;startFill=0;endArrow=classic;endFill=1;exitX=0.999;exitY=0.587;exitDx=0;exitDy=0;exitPerimeter=0;" parent="1" source="LC4siJIk5vWK9PD_h5xN-93" target="LC4siJIk5vWK9PD_h5xN-14" edge="1">
          <mxGeometry relative="1" as="geometry">
            <mxPoint x="405" y="490" as="targetPoint" />
            <mxPoint x="104.90000000000009" y="491.2800000000002" as="sourcePoint" />
            <Array as="points">
              <mxPoint x="105" y="500" />
            </Array>
          </mxGeometry>
        </mxCell>
        <mxCell id="LC4siJIk5vWK9PD_h5xN-39" style="edgeStyle=orthogonalEdgeStyle;rounded=0;orthogonalLoop=1;jettySize=auto;html=1;fontSize=14;startArrow=classic;startFill=1;endArrow=none;endFill=0;strokeWidth=3;" parent="1" target="LC4siJIk5vWK9PD_h5xN-120" edge="1">
          <mxGeometry relative="1" as="geometry">
            <mxPoint x="-149" y="790" as="targetPoint" />
            <mxPoint x="-19" y="765" as="sourcePoint" />
            <Array as="points" />
          </mxGeometry>
        </mxCell>
        <mxCell id="LC4siJIk5vWK9PD_h5xN-40" style="edgeStyle=orthogonalEdgeStyle;rounded=0;orthogonalLoop=1;jettySize=auto;html=1;fontSize=12;fontColor=#CCE5FF;startArrow=classic;startFill=1;endArrow=none;endFill=0;endSize=5;sourcePerimeterSpacing=18;targetPerimeterSpacing=0;strokeColor=#FF0080;strokeWidth=1;" parent="1" edge="1">
          <mxGeometry relative="1" as="geometry">
            <mxPoint x="-210" y="697" as="targetPoint" />
            <mxPoint x="280" y="887" as="sourcePoint" />
            <Array as="points">
              <mxPoint x="-210" y="887" />
            </Array>
          </mxGeometry>
        </mxCell>
        <mxCell id="LC4siJIk5vWK9PD_h5xN-41" value="CHI_Word" style="text;html=1;align=center;verticalAlign=middle;resizable=0;points=[];autosize=1;strokeColor=none;fillColor=none;fontSize=17;" parent="1" vertex="1">
          <mxGeometry x="-196" y="57.5" width="100" height="30" as="geometry" />
        </mxCell>
        <mxCell id="LC4siJIk5vWK9PD_h5xN-42" style="edgeStyle=orthogonalEdgeStyle;rounded=0;orthogonalLoop=1;jettySize=auto;html=1;exitX=0;exitY=0;exitDx=0;exitDy=0;fontSize=14;startArrow=classic;startFill=1;endArrow=none;endFill=0;endSize=15;sourcePerimeterSpacing=18;targetPerimeterSpacing=0;" parent="1" source="LC4siJIk5vWK9PD_h5xN-49" target="LC4siJIk5vWK9PD_h5xN-41" edge="1">
          <mxGeometry relative="1" as="geometry">
            <mxPoint x="-90" y="183.5" as="targetPoint" />
            <mxPoint x="-55" y="85.5" as="sourcePoint" />
          </mxGeometry>
        </mxCell>
        <mxCell id="LC4siJIk5vWK9PD_h5xN-43" style="edgeStyle=orthogonalEdgeStyle;rounded=0;orthogonalLoop=1;jettySize=auto;html=1;exitX=0;exitY=1;exitDx=0;exitDy=0;fontSize=14;startArrow=classic;startFill=1;endArrow=none;endFill=0;endSize=15;sourcePerimeterSpacing=18;targetPerimeterSpacing=0;entryX=1;entryY=0.5;entryDx=0;entryDy=0;" parent="1" source="LC4siJIk5vWK9PD_h5xN-49" target="LC4siJIk5vWK9PD_h5xN-46" edge="1">
          <mxGeometry relative="1" as="geometry">
            <mxPoint x="-55" y="115.5" as="sourcePoint" />
            <mxPoint x="-106" y="115.49999999999977" as="targetPoint" />
            <Array as="points">
              <mxPoint x="-69" y="93" />
              <mxPoint x="-69" y="130" />
            </Array>
          </mxGeometry>
        </mxCell>
        <mxCell id="LC4siJIk5vWK9PD_h5xN-44" style="edgeStyle=orthogonalEdgeStyle;rounded=0;orthogonalLoop=1;jettySize=auto;html=1;exitX=0;exitY=0;exitDx=0;exitDy=0;fontSize=12;startArrow=classic;startFill=1;endArrow=none;endFill=0;endSize=15;sourcePerimeterSpacing=18;targetPerimeterSpacing=0;" parent="1" source="LC4siJIk5vWK9PD_h5xN-46" edge="1">
          <mxGeometry relative="1" as="geometry">
            <mxPoint x="-220" y="61" as="targetPoint" />
            <mxPoint x="-126.04594154601841" y="102.95405845398159" as="sourcePoint" />
            <Array as="points">
              <mxPoint x="-220" y="120.5" />
              <mxPoint x="-220" y="60.5" />
            </Array>
          </mxGeometry>
        </mxCell>
        <mxCell id="LC4siJIk5vWK9PD_h5xN-45" style="edgeStyle=orthogonalEdgeStyle;rounded=0;orthogonalLoop=1;jettySize=auto;html=1;exitX=0;exitY=1;exitDx=0;exitDy=0;fontSize=12;startArrow=classic;startFill=1;endArrow=none;endFill=0;endSize=15;sourcePerimeterSpacing=18;targetPerimeterSpacing=0;" parent="1" source="LC4siJIk5vWK9PD_h5xN-46" edge="1">
          <mxGeometry relative="1" as="geometry">
            <mxPoint x="-220" y="70" as="targetPoint" />
            <mxPoint x="-126.04594154601841" y="122.04594154601841" as="sourcePoint" />
            <Array as="points">
              <mxPoint x="-220" y="140" />
            </Array>
          </mxGeometry>
        </mxCell>
        <mxCell id="LC4siJIk5vWK9PD_h5xN-46" value="&lt;font style=&quot;font-size: 26px;&quot;&gt;-&lt;/font&gt;" style="ellipse;whiteSpace=wrap;html=1;aspect=fixed;fontSize=12;" parent="1" vertex="1">
          <mxGeometry x="-109" y="116.5" width="27" height="27" as="geometry" />
        </mxCell>
        <mxCell id="LC4siJIk5vWK9PD_h5xN-47" value="&lt;span style=&quot;background-color: rgb(204, 229, 255); font-size: 17px;&quot;&gt;&lt;span style=&quot;color: rgb(0, 0, 0); font-family: Helvetica; font-size: 17px; font-style: normal; font-variant-ligatures: normal; font-variant-caps: normal; font-weight: 400; letter-spacing: normal; orphans: 2; text-align: center; text-indent: 0px; text-transform: none; widows: 2; word-spacing: 0px; -webkit-text-stroke-width: 0px; text-decoration-thickness: initial; text-decoration-style: initial; text-decoration-color: initial; float: none; display: inline !important;&quot;&gt;packet&lt;/span&gt;&lt;font style=&quot;color: rgb(0, 0, 0); font-family: Helvetica; font-style: normal; font-variant-ligatures: normal; font-variant-caps: normal; font-weight: 400; letter-spacing: normal; orphans: 2; text-align: center; text-indent: 0px; text-transform: none; widows: 2; word-spacing: 0px; -webkit-text-stroke-width: 0px; text-decoration-thickness: initial; text-decoration-style: initial; text-decoration-color: initial; font-size: 17px;&quot;&gt;.&lt;/font&gt;&lt;span style=&quot;color: rgb(0, 0, 0); font-family: Helvetica; font-size: 17px; font-style: normal; font-variant-ligatures: normal; font-variant-caps: normal; font-weight: 400; letter-spacing: normal; orphans: 2; text-align: center; text-indent: 0px; text-transform: none; widows: 2; word-spacing: 0px; -webkit-text-stroke-width: 0px; text-decoration-thickness: initial; text-decoration-style: initial; text-decoration-color: initial; float: none; display: inline !important;&quot;&gt;SB&lt;/span&gt;&lt;/span&gt;" style="text;whiteSpace=wrap;html=1;fontSize=17;" parent="1" vertex="1">
          <mxGeometry x="-214" y="135.5" width="67" height="28" as="geometry" />
        </mxCell>
        <mxCell id="LC4siJIk5vWK9PD_h5xN-48" value="&lt;span style=&quot;background-color: rgb(204, 229, 255); font-size: 17px;&quot;&gt;&lt;span style=&quot;color: rgb(0, 0, 0); font-family: Helvetica; font-size: 17px; font-style: normal; font-variant-ligatures: normal; font-variant-caps: normal; font-weight: 400; letter-spacing: normal; orphans: 2; text-align: center; text-indent: 0px; text-transform: none; widows: 2; word-spacing: 0px; -webkit-text-stroke-width: 0px; text-decoration-thickness: initial; text-decoration-style: initial; text-decoration-color: initial; float: none; display: inline !important;&quot;&gt;packet&lt;/span&gt;&lt;font style=&quot;color: rgb(0, 0, 0); font-family: Helvetica; font-style: normal; font-variant-ligatures: normal; font-variant-caps: normal; font-weight: 400; letter-spacing: normal; orphans: 2; text-align: center; text-indent: 0px; text-transform: none; widows: 2; word-spacing: 0px; -webkit-text-stroke-width: 0px; text-decoration-thickness: initial; text-decoration-style: initial; text-decoration-color: initial; font-size: 17px;&quot;&gt;.&lt;/font&gt;&lt;span style=&quot;color: rgb(0, 0, 0); font-family: Helvetica; font-size: 17px; font-style: normal; font-variant-ligatures: normal; font-variant-caps: normal; font-weight: 400; letter-spacing: normal; orphans: 2; text-align: center; text-indent: 0px; text-transform: none; widows: 2; word-spacing: 0px; -webkit-text-stroke-width: 0px; text-decoration-thickness: initial; text-decoration-style: initial; text-decoration-color: initial; float: none; display: inline !important;&quot;&gt;BTS&lt;/span&gt;&lt;/span&gt;" style="text;whiteSpace=wrap;html=1;fontSize=17;fillColor=none;strokeColor=none;" parent="1" vertex="1">
          <mxGeometry x="-218" y="92.5" width="69" height="23.5" as="geometry" />
        </mxCell>
        <mxCell id="LC4siJIk5vWK9PD_h5xN-49" value="&lt;font style=&quot;font-size: 16px;&quot;&gt;min&lt;/font&gt;" style="ellipse;whiteSpace=wrap;html=1;aspect=fixed;" parent="1" vertex="1">
          <mxGeometry x="-49" y="68" width="29" height="29" as="geometry" />
        </mxCell>
        <mxCell id="LC4siJIk5vWK9PD_h5xN-50" value="FULL&lt;br&gt;(received Read Request)" style="text;html=1;align=center;verticalAlign=middle;resizable=0;points=[];autosize=1;strokeColor=none;fillColor=none;fontSize=19;" parent="1" vertex="1">
          <mxGeometry x="-529" y="459" width="230" height="60" as="geometry" />
        </mxCell>
        <mxCell id="LC4siJIk5vWK9PD_h5xN-51" style="edgeStyle=orthogonalEdgeStyle;rounded=0;orthogonalLoop=1;jettySize=auto;html=1;fontSize=12;startArrow=classic;startFill=1;endArrow=none;endFill=0;endSize=15;sourcePerimeterSpacing=0;targetPerimeterSpacing=18;entryX=1.001;entryY=0.426;entryDx=0;entryDy=0;entryPerimeter=0;" parent="1" source="LC4siJIk5vWK9PD_h5xN-117" target="LC4siJIk5vWK9PD_h5xN-93" edge="1">
          <mxGeometry relative="1" as="geometry">
            <mxPoint x="568.2727272727275" y="209.6363636363635" as="sourcePoint" />
            <mxPoint x="100" y="470" as="targetPoint" />
            <Array as="points" />
          </mxGeometry>
        </mxCell>
        <mxCell id="LC4siJIk5vWK9PD_h5xN-52" style="edgeStyle=orthogonalEdgeStyle;rounded=0;orthogonalLoop=1;jettySize=auto;html=1;strokeWidth=1;strokeColor=#CC0066;entryX=0.25;entryY=1;entryDx=0;entryDy=0;" parent="1" source="LC4siJIk5vWK9PD_h5xN-119" target="LC4siJIk5vWK9PD_h5xN-55" edge="1">
          <mxGeometry relative="1" as="geometry">
            <mxPoint x="253.5" y="244.00000000000023" as="sourcePoint" />
            <mxPoint x="254" y="249" as="targetPoint" />
            <Array as="points">
              <mxPoint x="292" y="242" />
              <mxPoint x="292" y="242" />
            </Array>
          </mxGeometry>
        </mxCell>
        <mxCell id="LC4siJIk5vWK9PD_h5xN-53" style="edgeStyle=orthogonalEdgeStyle;rounded=0;orthogonalLoop=1;jettySize=auto;html=1;strokeColor=#000000;strokeWidth=1;entryX=1;entryY=0.5;entryDx=0;entryDy=0;" parent="1" source="LC4siJIk5vWK9PD_h5xN-128" target="LC4siJIk5vWK9PD_h5xN-55" edge="1">
          <mxGeometry relative="1" as="geometry">
            <Array as="points">
              <mxPoint x="330" y="323" />
              <mxPoint x="330" y="323" />
            </Array>
            <mxPoint x="332" y="333" as="sourcePoint" />
          </mxGeometry>
        </mxCell>
        <mxCell id="LC4siJIk5vWK9PD_h5xN-54" style="edgeStyle=orthogonalEdgeStyle;rounded=0;orthogonalLoop=1;jettySize=auto;html=1;entryX=0.75;entryY=1;entryDx=0;entryDy=0;strokeColor=#CC0066;fillColor=#f8cecc;" parent="1" source="LC4siJIk5vWK9PD_h5xN-134" target="LC4siJIk5vWK9PD_h5xN-55" edge="1">
          <mxGeometry relative="1" as="geometry">
            <mxPoint x="262" y="625" as="sourcePoint" />
            <Array as="points">
              <mxPoint x="250" y="289" />
              <mxPoint x="250" y="289" />
            </Array>
          </mxGeometry>
        </mxCell>
        <mxCell id="LC4siJIk5vWK9PD_h5xN-55" value="&lt;font style=&quot;font-size: 21px;&quot;&gt;M&lt;/font&gt;" style="shape=trapezoid;perimeter=trapezoidPerimeter;whiteSpace=wrap;html=1;fixedSize=1;rotation=90;" parent="1" vertex="1">
          <mxGeometry x="282.13" y="253.88" width="95" height="23.25" as="geometry" />
        </mxCell>
        <mxCell id="LC4siJIk5vWK9PD_h5xN-56" style="edgeStyle=orthogonalEdgeStyle;rounded=0;orthogonalLoop=1;jettySize=auto;html=1;fontSize=12;startArrow=classic;startFill=1;endArrow=none;endFill=0;endSize=15;sourcePerimeterSpacing=18;targetPerimeterSpacing=0;strokeColor=#000066;exitX=0;exitY=0.5;exitDx=0;exitDy=0;" parent="1" source="LC4siJIk5vWK9PD_h5xN-93" target="LC4siJIk5vWK9PD_h5xN-50" edge="1">
          <mxGeometry relative="1" as="geometry">
            <mxPoint x="-220" y="933" as="targetPoint" />
            <Array as="points">
              <mxPoint x="-230" y="481" />
              <mxPoint x="-230" y="481" />
            </Array>
            <mxPoint x="54" y="1007.5" as="sourcePoint" />
          </mxGeometry>
        </mxCell>
        <mxCell id="LC4siJIk5vWK9PD_h5xN-57" style="edgeStyle=orthogonalEdgeStyle;rounded=0;orthogonalLoop=1;jettySize=auto;html=1;entryX=1;entryY=0.25;entryDx=0;entryDy=0;fontSize=12;startArrow=classic;startFill=1;endArrow=none;endFill=0;endSize=15;sourcePerimeterSpacing=0;targetPerimeterSpacing=18;strokeColor=#000000;exitX=1;exitY=1;exitDx=0;exitDy=0;" parent="1" source="LC4siJIk5vWK9PD_h5xN-61" target="LC4siJIk5vWK9PD_h5xN-58" edge="1">
          <mxGeometry relative="1" as="geometry">
            <mxPoint x="-167.5" y="341" as="sourcePoint" />
            <Array as="points">
              <mxPoint x="118" y="228" />
              <mxPoint x="118" y="280" />
              <mxPoint x="107" y="280" />
            </Array>
          </mxGeometry>
        </mxCell>
        <mxCell id="LC4siJIk5vWK9PD_h5xN-58" value="&lt;font style=&quot;font-size: 29px;&quot;&gt;Counter&lt;/font&gt;" style="rounded=0;whiteSpace=wrap;html=1;labelBackgroundColor=#FFFFFF;fontSize=12;" parent="1" vertex="1">
          <mxGeometry x="-13" y="261" width="120" height="60" as="geometry" />
        </mxCell>
        <mxCell id="LC4siJIk5vWK9PD_h5xN-59" style="edgeStyle=orthogonalEdgeStyle;rounded=0;orthogonalLoop=1;jettySize=auto;html=1;fontSize=12;startArrow=classic;startFill=1;endArrow=none;endFill=0;endSize=15;sourcePerimeterSpacing=18;targetPerimeterSpacing=0;strokeColor=#000000;exitX=1;exitY=0;exitDx=0;exitDy=0;" parent="1" source="LC4siJIk5vWK9PD_h5xN-61" target="LC4siJIk5vWK9PD_h5xN-49" edge="1">
          <mxGeometry relative="1" as="geometry">
            <mxPoint x="-33" y="180" as="targetPoint" />
            <mxPoint x="370" y="1130" as="sourcePoint" />
            <Array as="points">
              <mxPoint x="70" y="207" />
              <mxPoint x="70" y="183" />
              <mxPoint x="10" y="183" />
              <mxPoint x="10" y="80" />
            </Array>
          </mxGeometry>
        </mxCell>
        <mxCell id="LC4siJIk5vWK9PD_h5xN-60" style="edgeStyle=orthogonalEdgeStyle;rounded=0;orthogonalLoop=1;jettySize=auto;html=1;exitX=0.25;exitY=1;exitDx=0;exitDy=0;entryX=0;entryY=0.5;entryDx=0;entryDy=0;fontSize=12;startArrow=classic;startFill=1;endArrow=none;endFill=0;endSize=15;sourcePerimeterSpacing=0;targetPerimeterSpacing=18;strokeColor=#000000;" parent="1" source="LC4siJIk5vWK9PD_h5xN-65" target="LC4siJIk5vWK9PD_h5xN-61" edge="1">
          <mxGeometry relative="1" as="geometry">
            <Array as="points">
              <mxPoint x="-195" y="261" />
              <mxPoint x="-195" y="218" />
            </Array>
          </mxGeometry>
        </mxCell>
        <mxCell id="LC4siJIk5vWK9PD_h5xN-61" value="&lt;font style=&quot;font-size: 26px;&quot;&gt;+&lt;/font&gt;" style="ellipse;whiteSpace=wrap;html=1;aspect=fixed;" parent="1" vertex="1">
          <mxGeometry x="-5" y="203" width="29" height="29" as="geometry" />
        </mxCell>
        <mxCell id="LC4siJIk5vWK9PD_h5xN-62" style="edgeStyle=orthogonalEdgeStyle;rounded=0;orthogonalLoop=1;jettySize=auto;html=1;exitX=0;exitY=0.25;exitDx=0;exitDy=0;entryX=0.5;entryY=0;entryDx=0;entryDy=0;fontSize=12;startArrow=classic;startFill=1;endArrow=none;endFill=0;endSize=15;sourcePerimeterSpacing=0;targetPerimeterSpacing=18;strokeColor=#000000;" parent="1" source="LC4siJIk5vWK9PD_h5xN-58" target="LC4siJIk5vWK9PD_h5xN-65" edge="1">
          <mxGeometry relative="1" as="geometry">
            <mxPoint x="-238.01999999999998" y="287.34000000000015" as="sourcePoint" />
          </mxGeometry>
        </mxCell>
        <mxCell id="LC4siJIk5vWK9PD_h5xN-63" style="edgeStyle=orthogonalEdgeStyle;rounded=0;orthogonalLoop=1;jettySize=auto;html=1;exitX=0.75;exitY=1;exitDx=0;exitDy=0;fontSize=12;startArrow=classic;startFill=1;endArrow=none;endFill=0;endSize=15;sourcePerimeterSpacing=18;targetPerimeterSpacing=0;strokeColor=#000000;" parent="1" source="LC4siJIk5vWK9PD_h5xN-65" target="LC4siJIk5vWK9PD_h5xN-66" edge="1">
          <mxGeometry relative="1" as="geometry" />
        </mxCell>
        <mxCell id="LC4siJIk5vWK9PD_h5xN-64" style="edgeStyle=orthogonalEdgeStyle;rounded=0;orthogonalLoop=1;jettySize=auto;html=1;entryX=1;entryY=0.5;entryDx=0;entryDy=0;fontSize=12;startArrow=none;startFill=0;endArrow=classic;endFill=1;endSize=5;sourcePerimeterSpacing=0;targetPerimeterSpacing=18;strokeColor=#000000;" parent="1" source="LC4siJIk5vWK9PD_h5xN-69" target="LC4siJIk5vWK9PD_h5xN-65" edge="1">
          <mxGeometry relative="1" as="geometry">
            <Array as="points">
              <mxPoint x="-125" y="323" />
              <mxPoint x="-125" y="323" />
            </Array>
          </mxGeometry>
        </mxCell>
        <mxCell id="LC4siJIk5vWK9PD_h5xN-65" value="&lt;font style=&quot;font-size: 21px;&quot;&gt;M&lt;/font&gt;" style="shape=trapezoid;perimeter=trapezoidPerimeter;whiteSpace=wrap;html=1;fixedSize=1;rotation=90;size=20;" parent="1" vertex="1">
          <mxGeometry x="-155" y="267" width="60" height="18" as="geometry" />
        </mxCell>
        <mxCell id="LC4siJIk5vWK9PD_h5xN-66" value="0" style="text;html=1;align=center;verticalAlign=middle;resizable=0;points=[];autosize=1;strokeColor=none;fillColor=none;fontSize=17;" parent="1" vertex="1">
          <mxGeometry x="-185" y="276" width="30" height="30" as="geometry" />
        </mxCell>
        <mxCell id="LC4siJIk5vWK9PD_h5xN-67" style="edgeStyle=orthogonalEdgeStyle;rounded=0;orthogonalLoop=1;jettySize=auto;html=1;fontSize=12;startArrow=none;startFill=0;endArrow=classic;endFill=1;endSize=5;sourcePerimeterSpacing=18;targetPerimeterSpacing=0;strokeColor=#000000;exitX=1.003;exitY=0.862;exitDx=0;exitDy=0;exitPerimeter=0;" parent="1" source="LC4siJIk5vWK9PD_h5xN-93" target="LC4siJIk5vWK9PD_h5xN-12" edge="1">
          <mxGeometry relative="1" as="geometry">
            <mxPoint x="710" y="587" as="targetPoint" />
            <mxPoint x="104" y="500" as="sourcePoint" />
            <Array as="points">
              <mxPoint x="230" y="524" />
              <mxPoint x="230" y="550" />
            </Array>
          </mxGeometry>
        </mxCell>
        <mxCell id="LC4siJIk5vWK9PD_h5xN-68" value="NextCountIn" style="text;html=1;align=center;verticalAlign=middle;resizable=0;points=[];autosize=1;strokeColor=none;fillColor=none;fontSize=17;" parent="1" vertex="1">
          <mxGeometry x="-126" y="249" width="120" height="30" as="geometry" />
        </mxCell>
        <mxCell id="LC4siJIk5vWK9PD_h5xN-69" value="Dequeue" style="text;html=1;align=center;verticalAlign=middle;resizable=0;points=[];autosize=1;strokeColor=none;fillColor=none;fontSize=17;rotation=0;" parent="1" vertex="1">
          <mxGeometry x="-181" y="325" width="90" height="30" as="geometry" />
        </mxCell>
        <mxCell id="LC4siJIk5vWK9PD_h5xN-70" style="edgeStyle=orthogonalEdgeStyle;rounded=0;orthogonalLoop=1;jettySize=auto;html=1;fontSize=12;" parent="1" target="LC4siJIk5vWK9PD_h5xN-71" edge="1">
          <mxGeometry relative="1" as="geometry">
            <mxPoint x="710" y="799" as="targetPoint" />
            <mxPoint x="280" y="887" as="sourcePoint" />
            <Array as="points">
              <mxPoint x="470" y="887" />
              <mxPoint x="470" y="887" />
            </Array>
          </mxGeometry>
        </mxCell>
        <mxCell id="LC4siJIk5vWK9PD_h5xN-71" value="&lt;font color=&quot;#000000&quot; style=&quot;font-size: 19px;&quot;&gt;FinishedDescAddr&lt;br&gt;(Addr Of Desc)&lt;br&gt;&lt;/font&gt;" style="text;html=1;align=center;verticalAlign=middle;resizable=0;points=[];autosize=1;strokeColor=none;fillColor=none;fontSize=19;fontColor=#CCE5FF;" parent="1" vertex="1">
          <mxGeometry x="535" y="858" width="180" height="60" as="geometry" />
        </mxCell>
        <mxCell id="LC4siJIk5vWK9PD_h5xN-72" style="edgeStyle=orthogonalEdgeStyle;rounded=0;orthogonalLoop=1;jettySize=auto;html=1;fontSize=12;exitX=1;exitY=0.5;exitDx=0;exitDy=0;" parent="1" source="LC4siJIk5vWK9PD_h5xN-74" target="LC4siJIk5vWK9PD_h5xN-82" edge="1">
          <mxGeometry relative="1" as="geometry">
            <mxPoint x="710" y="968.4999999999991" as="targetPoint" />
            <mxPoint x="480" y="971" as="sourcePoint" />
            <Array as="points">
              <mxPoint x="235" y="931" />
            </Array>
          </mxGeometry>
        </mxCell>
        <mxCell id="LC4siJIk5vWK9PD_h5xN-73" style="edgeStyle=orthogonalEdgeStyle;rounded=0;orthogonalLoop=1;jettySize=auto;html=1;exitX=0;exitY=0.5;exitDx=0;exitDy=0;fontSize=12;fontColor=#000000;startArrow=none;startFill=0;endArrow=none;endFill=0;endSize=6;targetPerimeterSpacing=0;strokeColor=#000000;strokeWidth=1;" parent="1" source="LC4siJIk5vWK9PD_h5xN-77" edge="1">
          <mxGeometry relative="1" as="geometry">
            <mxPoint x="1" y="912" as="targetPoint" />
            <Array as="points" />
          </mxGeometry>
        </mxCell>
        <mxCell id="LC4siJIk5vWK9PD_h5xN-74" value="&lt;font style=&quot;font-size: 26px;&quot;&gt;=&lt;/font&gt;" style="ellipse;whiteSpace=wrap;html=1;aspect=fixed;" parent="1" vertex="1">
          <mxGeometry x="206" y="920" width="29" height="29" as="geometry" />
        </mxCell>
        <mxCell id="LC4siJIk5vWK9PD_h5xN-75" style="edgeStyle=orthogonalEdgeStyle;rounded=0;orthogonalLoop=1;jettySize=auto;html=1;fontSize=12;fontColor=#000000;startArrow=classic;startFill=1;endArrow=none;endFill=0;endSize=6;sourcePerimeterSpacing=18;targetPerimeterSpacing=0;strokeColor=#000000;strokeWidth=3;" parent="1" edge="1">
          <mxGeometry relative="1" as="geometry">
            <mxPoint x="-59" y="766" as="targetPoint" />
            <mxPoint x="-20" y="914" as="sourcePoint" />
            <Array as="points">
              <mxPoint x="-50" y="914" />
              <mxPoint x="-50" y="766" />
            </Array>
          </mxGeometry>
        </mxCell>
        <mxCell id="LC4siJIk5vWK9PD_h5xN-76" style="edgeStyle=orthogonalEdgeStyle;rounded=0;orthogonalLoop=1;jettySize=auto;html=1;fontSize=12;fontColor=#000000;startArrow=classic;startFill=1;endArrow=none;endFill=0;endSize=6;sourcePerimeterSpacing=18;targetPerimeterSpacing=0;strokeColor=#000000;strokeWidth=1;exitX=0;exitY=1;exitDx=0;exitDy=0;" parent="1" source="LC4siJIk5vWK9PD_h5xN-74" edge="1">
          <mxGeometry relative="1" as="geometry">
            <mxPoint x="-29" y="912" as="targetPoint" />
            <mxPoint x="59.74695167277605" y="947.246951672776" as="sourcePoint" />
            <Array as="points">
              <mxPoint x="1" y="945" />
              <mxPoint x="1" y="912" />
            </Array>
          </mxGeometry>
        </mxCell>
        <mxCell id="LC4siJIk5vWK9PD_h5xN-77" value="" style="triangle;whiteSpace=wrap;html=1;labelBackgroundColor=#CCE5FF;fontSize=12;fontColor=#000000;fillColor=#CCE5FF;" parent="1" vertex="1">
          <mxGeometry x="1.5" y="918" width="20" height="13" as="geometry" />
        </mxCell>
        <mxCell id="LC4siJIk5vWK9PD_h5xN-78" value="" style="edgeStyle=orthogonalEdgeStyle;rounded=0;orthogonalLoop=1;jettySize=auto;html=1;fontSize=12;fontColor=#000000;startArrow=none;startFill=0;endArrow=classic;endFill=1;endSize=6;strokeColor=#000000;strokeWidth=1;entryX=0;entryY=0;entryDx=0;entryDy=0;targetPerimeterSpacing=18;" parent="1" source="LC4siJIk5vWK9PD_h5xN-77" target="LC4siJIk5vWK9PD_h5xN-74" edge="1">
          <mxGeometry relative="1" as="geometry">
            <mxPoint x="71" y="924.5" as="targetPoint" />
            <mxPoint x="-149" y="912" as="sourcePoint" />
            <Array as="points" />
          </mxGeometry>
        </mxCell>
        <mxCell id="LC4siJIk5vWK9PD_h5xN-79" value="" style="triangle;whiteSpace=wrap;html=1;labelBackgroundColor=#CCE5FF;fontSize=12;fontColor=#000000;fillColor=#CCE5FF;" parent="1" vertex="1">
          <mxGeometry x="1.5" y="940" width="20" height="13" as="geometry" />
        </mxCell>
        <mxCell id="LC4siJIk5vWK9PD_h5xN-80" value="&lt;span style=&quot;color: rgb(0, 0, 0); font-family: Helvetica; font-size: 17px; font-style: normal; font-variant-ligatures: normal; font-variant-caps: normal; font-weight: 400; letter-spacing: normal; orphans: 2; text-indent: 0px; text-transform: none; widows: 2; word-spacing: 0px; -webkit-text-stroke-width: 0px; text-decoration-thickness: initial; text-decoration-style: initial; text-decoration-color: initial; text-align: center; float: none; display: inline !important;&quot;&gt;packet&lt;/span&gt;&lt;font style=&quot;color: rgb(0, 0, 0); font-family: Helvetica; font-size: 17px; font-style: normal; font-variant-ligatures: normal; font-variant-caps: normal; font-weight: 400; letter-spacing: normal; orphans: 2; text-indent: 0px; text-transform: none; widows: 2; word-spacing: 0px; -webkit-text-stroke-width: 0px; text-decoration-thickness: initial; text-decoration-style: initial; text-decoration-color: initial; text-align: center;&quot;&gt;.SentBytes&lt;/font&gt;" style="text;whiteSpace=wrap;html=1;fontSize=17;fontColor=#000000;" parent="1" vertex="1">
          <mxGeometry x="20" y="940" width="85.5" height="24" as="geometry" />
        </mxCell>
        <mxCell id="LC4siJIk5vWK9PD_h5xN-81" value="packet.BTS" style="text;html=1;align=center;verticalAlign=middle;resizable=0;points=[];autosize=1;strokeColor=none;fillColor=none;fontSize=17;fontColor=#000000;" parent="1" vertex="1">
          <mxGeometry x="5" y="898" width="110" height="30" as="geometry" />
        </mxCell>
        <mxCell id="LC4siJIk5vWK9PD_h5xN-82" value="FinishedDescValid&lt;br&gt;(Last Transaction for this Descriptor&lt;br&gt;because BytesToSend == SentBytes)" style="text;html=1;align=center;verticalAlign=middle;resizable=0;points=[];autosize=1;strokeColor=none;fillColor=none;fontSize=19;fontColor=#000000;" parent="1" vertex="1">
          <mxGeometry x="375" y="925" width="340" height="80" as="geometry" />
        </mxCell>
        <mxCell id="LC4siJIk5vWK9PD_h5xN-83" value="" style="shape=curlyBracket;whiteSpace=wrap;html=1;rounded=1;fontSize=21;" parent="1" vertex="1">
          <mxGeometry x="-542" y="471" width="20" height="59" as="geometry" />
        </mxCell>
        <mxCell id="LC4siJIk5vWK9PD_h5xN-84" value="&lt;span style=&quot;color: rgb(0, 0, 0); font-family: Helvetica; font-size: 18px; font-style: normal; font-variant-ligatures: normal; font-variant-caps: normal; font-weight: 400; letter-spacing: normal; orphans: 2; text-align: center; text-indent: 0px; text-transform: none; widows: 2; word-spacing: 0px; -webkit-text-stroke-width: 0px; background-color: rgb(248, 249, 250); text-decoration-thickness: initial; text-decoration-style: initial; text-decoration-color: initial; float: none; display: inline !important;&quot;&gt;From CHI Converter&lt;/span&gt;" style="text;whiteSpace=wrap;html=1;fontSize=18;fontColor=#000000;" parent="1" vertex="1">
          <mxGeometry x="-640.5" y="474" width="109" height="40" as="geometry" />
        </mxCell>
        <mxCell id="LC4siJIk5vWK9PD_h5xN-85" value="CountOut" style="text;html=1;align=center;verticalAlign=middle;resizable=0;points=[];autosize=1;strokeColor=none;fillColor=none;fontSize=17;fontColor=#000000;" parent="1" vertex="1">
          <mxGeometry x="-207" y="190" width="100" height="30" as="geometry" />
        </mxCell>
        <mxCell id="LC4siJIk5vWK9PD_h5xN-86" style="edgeStyle=orthogonalEdgeStyle;rounded=0;orthogonalLoop=1;jettySize=auto;html=1;strokeColor=#CC0066;strokeWidth=1;entryX=0;entryY=0.5;entryDx=0;entryDy=0;" parent="1" target="LC4siJIk5vWK9PD_h5xN-88" edge="1">
          <mxGeometry relative="1" as="geometry">
            <mxPoint x="-210" y="639" as="sourcePoint" />
            <Array as="points">
              <mxPoint x="-210" y="639" />
            </Array>
          </mxGeometry>
        </mxCell>
        <mxCell id="LC4siJIk5vWK9PD_h5xN-87" style="edgeStyle=orthogonalEdgeStyle;rounded=0;orthogonalLoop=1;jettySize=auto;html=1;exitX=1;exitY=0.5;exitDx=0;exitDy=0;strokeColor=#CC0066;strokeWidth=1;" parent="1" source="LC4siJIk5vWK9PD_h5xN-88" target="LC4siJIk5vWK9PD_h5xN-13" edge="1">
          <mxGeometry relative="1" as="geometry">
            <Array as="points">
              <mxPoint x="172" y="625" />
            </Array>
          </mxGeometry>
        </mxCell>
        <mxCell id="LC4siJIk5vWK9PD_h5xN-88" value="&lt;font style=&quot;font-size: 12px;&quot;&gt;&lt;font style=&quot;font-size: 21px;&quot;&gt;REGISTER&lt;/font&gt;&lt;br&gt;&lt;span style=&quot;&quot;&gt;(keepAddr&lt;/span&gt;&lt;span style=&quot;&quot;&gt;FromFIFO)&lt;/span&gt;&lt;/font&gt;" style="rounded=0;whiteSpace=wrap;html=1;" parent="1" vertex="1">
          <mxGeometry x="48" y="609" width="124" height="60" as="geometry" />
        </mxCell>
        <mxCell id="LC4siJIk5vWK9PD_h5xN-89" style="edgeStyle=orthogonalEdgeStyle;rounded=0;orthogonalLoop=1;jettySize=auto;html=1;exitX=0.998;exitY=0.074;exitDx=0;exitDy=0;entryX=0;entryY=0.75;entryDx=0;entryDy=0;strokeWidth=1;exitPerimeter=0;" parent="1" source="LC4siJIk5vWK9PD_h5xN-93" target="LC4siJIk5vWK9PD_h5xN-58" edge="1">
          <mxGeometry relative="1" as="geometry">
            <Array as="points">
              <mxPoint x="120" y="430" />
              <mxPoint x="120" y="350" />
              <mxPoint x="-30" y="350" />
              <mxPoint x="-30" y="306" />
            </Array>
          </mxGeometry>
        </mxCell>
        <mxCell id="LC4siJIk5vWK9PD_h5xN-90" style="edgeStyle=orthogonalEdgeStyle;rounded=0;orthogonalLoop=1;jettySize=auto;html=1;exitX=0.818;exitY=1.003;exitDx=0;exitDy=0;entryX=0.25;entryY=0;entryDx=0;entryDy=0;strokeWidth=1;exitPerimeter=0;" parent="1" source="LC4siJIk5vWK9PD_h5xN-93" target="LC4siJIk5vWK9PD_h5xN-88" edge="1">
          <mxGeometry relative="1" as="geometry">
            <Array as="points" />
          </mxGeometry>
        </mxCell>
        <mxCell id="LC4siJIk5vWK9PD_h5xN-91" style="edgeStyle=orthogonalEdgeStyle;rounded=0;orthogonalLoop=1;jettySize=auto;html=1;strokeWidth=1;entryX=0.5;entryY=0;entryDx=0;entryDy=0;exitX=0.5;exitY=0;exitDx=0;exitDy=0;" parent="1" source="LC4siJIk5vWK9PD_h5xN-65" target="LC4siJIk5vWK9PD_h5xN-93" edge="1">
          <mxGeometry relative="1" as="geometry">
            <mxPoint x="160" y="288" as="sourcePoint" />
            <Array as="points">
              <mxPoint x="-70" y="276" />
              <mxPoint x="-70" y="370" />
              <mxPoint x="30" y="370" />
            </Array>
          </mxGeometry>
        </mxCell>
        <mxCell id="LC4siJIk5vWK9PD_h5xN-92" style="edgeStyle=orthogonalEdgeStyle;rounded=0;orthogonalLoop=1;jettySize=auto;html=1;strokeColor=#000000;entryX=0.148;entryY=0.003;entryDx=0;entryDy=0;entryPerimeter=0;" parent="1" source="LC4siJIk5vWK9PD_h5xN-129" target="LC4siJIk5vWK9PD_h5xN-93" edge="1">
          <mxGeometry relative="1" as="geometry">
            <Array as="points">
              <mxPoint x="-190" y="365" />
              <mxPoint x="-190" y="400" />
              <mxPoint x="-22" y="400" />
              <mxPoint x="-22" y="421" />
            </Array>
          </mxGeometry>
        </mxCell>
        <mxCell id="LC4siJIk5vWK9PD_h5xN-93" value="&lt;font style=&quot;font-size: 40px;&quot;&gt;FSM&lt;/font&gt;" style="rounded=0;whiteSpace=wrap;html=1;" parent="1" vertex="1">
          <mxGeometry x="-44.5" y="421" width="150" height="120" as="geometry" />
        </mxCell>
        <mxCell id="LC4siJIk5vWK9PD_h5xN-94" value="CountWESig" style="text;html=1;align=center;verticalAlign=middle;resizable=0;points=[];autosize=1;strokeColor=none;fillColor=none;fontSize=17;" parent="1" vertex="1">
          <mxGeometry x="10" y="323" width="120" height="30" as="geometry" />
        </mxCell>
        <mxCell id="LC4siJIk5vWK9PD_h5xN-95" value="RegWESig" style="text;html=1;align=center;verticalAlign=middle;resizable=0;points=[];autosize=1;strokeColor=none;fillColor=none;fontSize=17;" parent="1" vertex="1">
          <mxGeometry x="71" y="555" width="110" height="30" as="geometry" />
        </mxCell>
        <mxCell id="LC4siJIk5vWK9PD_h5xN-96" style="edgeStyle=orthogonalEdgeStyle;rounded=0;orthogonalLoop=1;jettySize=auto;html=1;exitX=0;exitY=0.5;exitDx=0;exitDy=0;fontSize=12;fontColor=#000000;startArrow=none;startFill=0;endArrow=none;endFill=0;endSize=6;targetPerimeterSpacing=0;strokeColor=#000000;strokeWidth=1;" parent="1" source="LC4siJIk5vWK9PD_h5xN-100" edge="1">
          <mxGeometry relative="1" as="geometry">
            <mxPoint x="-23" y="764" as="targetPoint" />
            <Array as="points" />
          </mxGeometry>
        </mxCell>
        <mxCell id="LC4siJIk5vWK9PD_h5xN-97" style="edgeStyle=orthogonalEdgeStyle;rounded=0;orthogonalLoop=1;jettySize=auto;html=1;exitX=0;exitY=0.25;exitDx=0;exitDy=0;entryX=0;entryY=1;entryDx=0;entryDy=0;strokeWidth=1;" parent="1" source="LC4siJIk5vWK9PD_h5xN-100" target="LC4siJIk5vWK9PD_h5xN-99" edge="1">
          <mxGeometry relative="1" as="geometry">
            <Array as="points">
              <mxPoint x="-23" y="797" />
            </Array>
          </mxGeometry>
        </mxCell>
        <mxCell id="LC4siJIk5vWK9PD_h5xN-98" style="edgeStyle=orthogonalEdgeStyle;rounded=0;orthogonalLoop=1;jettySize=auto;html=1;exitX=1;exitY=0.5;exitDx=0;exitDy=0;strokeWidth=1;" parent="1" source="LC4siJIk5vWK9PD_h5xN-99" target="LC4siJIk5vWK9PD_h5xN-112" edge="1">
          <mxGeometry relative="1" as="geometry" />
        </mxCell>
        <mxCell id="LC4siJIk5vWK9PD_h5xN-99" value="&lt;font style=&quot;font-size: 26px;&quot;&gt;+&lt;/font&gt;" style="ellipse;whiteSpace=wrap;html=1;aspect=fixed;" parent="1" vertex="1">
          <mxGeometry x="182" y="772" width="29" height="29" as="geometry" />
        </mxCell>
        <mxCell id="LC4siJIk5vWK9PD_h5xN-100" value="" style="triangle;whiteSpace=wrap;html=1;labelBackgroundColor=#CCE5FF;fontSize=12;fontColor=#000000;fillColor=#CCE5FF;" parent="1" vertex="1">
          <mxGeometry x="-22.5" y="770" width="20" height="13" as="geometry" />
        </mxCell>
        <mxCell id="LC4siJIk5vWK9PD_h5xN-101" value="" style="edgeStyle=orthogonalEdgeStyle;rounded=0;orthogonalLoop=1;jettySize=auto;html=1;fontSize=12;fontColor=#000000;startArrow=none;startFill=0;endArrow=classic;endFill=1;endSize=6;strokeColor=#000000;strokeWidth=1;entryX=0;entryY=0;entryDx=0;entryDy=0;targetPerimeterSpacing=18;" parent="1" source="LC4siJIk5vWK9PD_h5xN-100" target="LC4siJIk5vWK9PD_h5xN-99" edge="1">
          <mxGeometry relative="1" as="geometry">
            <mxPoint x="47" y="776.5" as="targetPoint" />
            <mxPoint x="-173" y="764" as="sourcePoint" />
            <Array as="points" />
          </mxGeometry>
        </mxCell>
        <mxCell id="LC4siJIk5vWK9PD_h5xN-102" value="" style="triangle;whiteSpace=wrap;html=1;labelBackgroundColor=#CCE5FF;fontSize=12;fontColor=#000000;fillColor=#CCE5FF;" parent="1" vertex="1">
          <mxGeometry x="-22.5" y="790" width="20" height="13" as="geometry" />
        </mxCell>
        <mxCell id="LC4siJIk5vWK9PD_h5xN-103" value="&lt;font style=&quot;font-size: 17px;&quot;&gt;&lt;span style=&quot;color: rgb(0, 0, 0); font-family: Helvetica; font-style: normal; font-variant-ligatures: normal; font-variant-caps: normal; font-weight: 400; letter-spacing: normal; orphans: 2; text-indent: 0px; text-transform: none; widows: 2; word-spacing: 0px; -webkit-text-stroke-width: 0px; text-decoration-thickness: initial; text-decoration-style: initial; text-decoration-color: initial; text-align: center; float: none; display: inline !important;&quot;&gt;packet&lt;/span&gt;&lt;font style=&quot;color: rgb(0, 0, 0); font-family: Helvetica; font-style: normal; font-variant-ligatures: normal; font-variant-caps: normal; font-weight: 400; letter-spacing: normal; orphans: 2; text-indent: 0px; text-transform: none; widows: 2; word-spacing: 0px; -webkit-text-stroke-width: 0px; text-decoration-thickness: initial; text-decoration-style: initial; text-decoration-color: initial; text-align: center; font-size: 17px;&quot;&gt;.SentBytes&lt;/font&gt;&lt;/font&gt;" style="text;whiteSpace=wrap;html=1;fontSize=12;fontColor=#000000;" parent="1" vertex="1">
          <mxGeometry x="2" y="770" width="85.5" height="24" as="geometry" />
        </mxCell>
        <mxCell id="LC4siJIk5vWK9PD_h5xN-104" value="&lt;font style=&quot;font-size: 17px;&quot;&gt;packet.SrcAddr&lt;/font&gt;" style="text;html=1;align=center;verticalAlign=middle;resizable=0;points=[];autosize=1;strokeColor=none;fillColor=none;fontSize=12;fontColor=#000000;" parent="1" vertex="1">
          <mxGeometry x="-10" y="749" width="140" height="30" as="geometry" />
        </mxCell>
        <mxCell id="LC4siJIk5vWK9PD_h5xN-105" style="edgeStyle=orthogonalEdgeStyle;rounded=0;orthogonalLoop=1;jettySize=auto;html=1;exitX=0;exitY=0.5;exitDx=0;exitDy=0;fontSize=12;fontColor=#000000;startArrow=none;startFill=0;endArrow=none;endFill=0;endSize=6;targetPerimeterSpacing=0;strokeColor=#000000;strokeWidth=1;entryX=0;entryY=0.75;entryDx=0;entryDy=0;" parent="1" target="LC4siJIk5vWK9PD_h5xN-100" edge="1">
          <mxGeometry relative="1" as="geometry">
            <mxPoint x="-22" y="800" as="targetPoint" />
            <Array as="points">
              <mxPoint x="-22" y="800" />
              <mxPoint x="-22" y="800" />
            </Array>
            <mxPoint x="-21.75" y="846.5000000000005" as="sourcePoint" />
          </mxGeometry>
        </mxCell>
        <mxCell id="LC4siJIk5vWK9PD_h5xN-106" value="" style="triangle;whiteSpace=wrap;html=1;labelBackgroundColor=#CCE5FF;fontSize=12;fontColor=#000000;fillColor=#CCE5FF;" parent="1" vertex="1">
          <mxGeometry x="-21.75" y="841" width="20" height="13" as="geometry" />
        </mxCell>
        <mxCell id="LC4siJIk5vWK9PD_h5xN-107" value="" style="edgeStyle=orthogonalEdgeStyle;rounded=0;orthogonalLoop=1;jettySize=auto;html=1;fontSize=12;fontColor=#000000;startArrow=none;startFill=0;endArrow=classic;endFill=1;endSize=6;strokeColor=#000000;strokeWidth=1;entryX=0;entryY=1;entryDx=0;entryDy=0;targetPerimeterSpacing=18;" parent="1" source="LC4siJIk5vWK9PD_h5xN-106" target="LC4siJIk5vWK9PD_h5xN-111" edge="1">
          <mxGeometry relative="1" as="geometry">
            <mxPoint x="107.99695167279697" y="846.2469516727974" as="targetPoint" />
            <mxPoint x="-172.25" y="834" as="sourcePoint" />
            <Array as="points">
              <mxPoint x="50" y="848" />
              <mxPoint x="50" y="848" />
            </Array>
          </mxGeometry>
        </mxCell>
        <mxCell id="LC4siJIk5vWK9PD_h5xN-108" value="&lt;font style=&quot;font-size: 17px;&quot;&gt;packet.DstAddr&lt;/font&gt;" style="text;html=1;align=center;verticalAlign=middle;resizable=0;points=[];autosize=1;strokeColor=none;fillColor=none;fontSize=12;fontColor=#000000;" parent="1" vertex="1">
          <mxGeometry x="-10.5" y="841" width="140" height="30" as="geometry" />
        </mxCell>
        <mxCell id="LC4siJIk5vWK9PD_h5xN-109" style="edgeStyle=orthogonalEdgeStyle;rounded=0;orthogonalLoop=1;jettySize=auto;html=1;entryX=0;entryY=0;entryDx=0;entryDy=0;strokeWidth=1;" parent="1" target="LC4siJIk5vWK9PD_h5xN-111" edge="1">
          <mxGeometry relative="1" as="geometry">
            <mxPoint x="61" y="797" as="sourcePoint" />
            <Array as="points">
              <mxPoint x="61" y="827" />
            </Array>
          </mxGeometry>
        </mxCell>
        <mxCell id="LC4siJIk5vWK9PD_h5xN-110" style="edgeStyle=orthogonalEdgeStyle;rounded=0;orthogonalLoop=1;jettySize=auto;html=1;exitX=1;exitY=0.5;exitDx=0;exitDy=0;strokeWidth=1;" parent="1" source="LC4siJIk5vWK9PD_h5xN-111" target="LC4siJIk5vWK9PD_h5xN-113" edge="1">
          <mxGeometry relative="1" as="geometry" />
        </mxCell>
        <mxCell id="LC4siJIk5vWK9PD_h5xN-111" value="&lt;font style=&quot;font-size: 26px;&quot;&gt;+&lt;/font&gt;" style="ellipse;whiteSpace=wrap;html=1;aspect=fixed;" parent="1" vertex="1">
          <mxGeometry x="182" y="823" width="29" height="29" as="geometry" />
        </mxCell>
        <mxCell id="LC4siJIk5vWK9PD_h5xN-112" value="ReadAddr" style="text;html=1;align=center;verticalAlign=middle;resizable=0;points=[];autosize=1;strokeColor=none;fillColor=none;fontSize=19;" parent="1" vertex="1">
          <mxGeometry x="605" y="767" width="110" height="40" as="geometry" />
        </mxCell>
        <mxCell id="LC4siJIk5vWK9PD_h5xN-113" value="WriteAddr" style="text;html=1;align=center;verticalAlign=middle;resizable=0;points=[];autosize=1;strokeColor=none;fillColor=none;fontSize=19;" parent="1" vertex="1">
          <mxGeometry x="605" y="817" width="110" height="40" as="geometry" />
        </mxCell>
        <mxCell id="LC4siJIk5vWK9PD_h5xN-114" value="ReadLengh,WriteLength" style="text;html=1;align=center;verticalAlign=middle;resizable=0;points=[];autosize=1;strokeColor=none;fillColor=none;fontSize=19;" parent="1" vertex="1">
          <mxGeometry x="485" y="735" width="230" height="40" as="geometry" />
        </mxCell>
        <mxCell id="LC4siJIk5vWK9PD_h5xN-115" style="edgeStyle=orthogonalEdgeStyle;rounded=0;orthogonalLoop=1;jettySize=auto;html=1;strokeWidth=1;" parent="1" source="LC4siJIk5vWK9PD_h5xN-116" target="LC4siJIk5vWK9PD_h5xN-114" edge="1">
          <mxGeometry relative="1" as="geometry">
            <mxPoint x="383" y="769" as="sourcePoint" />
            <mxPoint x="520" y="811.0526315789475" as="targetPoint" />
            <Array as="points" />
          </mxGeometry>
        </mxCell>
        <mxCell id="LC4siJIk5vWK9PD_h5xN-116" value="WordSig" style="text;html=1;align=center;verticalAlign=middle;resizable=0;points=[];autosize=1;strokeColor=none;fillColor=none;fontSize=17;" parent="1" vertex="1">
          <mxGeometry x="194" y="740" width="90" height="30" as="geometry" />
        </mxCell>
        <mxCell id="LC4siJIk5vWK9PD_h5xN-117" value="WEControl" style="text;html=1;align=center;verticalAlign=middle;resizable=0;points=[];autosize=1;strokeColor=none;fillColor=none;rotation=0;fontSize=17;" parent="1" vertex="1">
          <mxGeometry x="139" y="457" width="110" height="30" as="geometry" />
        </mxCell>
        <mxCell id="LC4siJIk5vWK9PD_h5xN-118" value="&lt;font style=&quot;font-size: 15px;&quot;&gt;WordSig&lt;/font&gt;" style="text;html=1;align=center;verticalAlign=middle;resizable=0;points=[];autosize=1;strokeColor=none;fillColor=none;" parent="1" vertex="1">
          <mxGeometry x="-25.25" y="56.5" width="80" height="30" as="geometry" />
        </mxCell>
        <mxCell id="LC4siJIk5vWK9PD_h5xN-119" value="FIFO_out(Pointer)" style="text;html=1;align=center;verticalAlign=middle;resizable=0;points=[];autosize=1;strokeColor=none;fillColor=none;fontSize=17;" parent="1" vertex="1">
          <mxGeometry x="133" y="223" width="160" height="30" as="geometry" />
        </mxCell>
        <mxCell id="LC4siJIk5vWK9PD_h5xN-120" value="SigDescDataOut" style="text;html=1;align=center;verticalAlign=middle;resizable=0;points=[];autosize=1;strokeColor=none;fillColor=none;fontSize=17;" parent="1" vertex="1">
          <mxGeometry x="-209" y="750" width="150" height="30" as="geometry" />
        </mxCell>
        <mxCell id="LC4siJIk5vWK9PD_h5xN-121" value="DescDataOut" style="text;html=1;align=center;verticalAlign=middle;resizable=0;points=[];autosize=1;strokeColor=none;fillColor=none;fontSize=17;" parent="1" vertex="1">
          <mxGeometry x="-228.5" y="495.5" width="130" height="30" as="geometry" />
        </mxCell>
        <mxCell id="LC4siJIk5vWK9PD_h5xN-122" style="edgeStyle=orthogonalEdgeStyle;rounded=0;orthogonalLoop=1;jettySize=auto;html=1;fontSize=12;" parent="1" source="LC4siJIk5vWK9PD_h5xN-36" target="LC4siJIk5vWK9PD_h5xN-123" edge="1">
          <mxGeometry relative="1" as="geometry">
            <mxPoint x="410" y="203.00000000000023" as="targetPoint" />
            <mxPoint x="360" y="210" as="sourcePoint" />
            <Array as="points" />
          </mxGeometry>
        </mxCell>
        <mxCell id="LC4siJIk5vWK9PD_h5xN-123" value="WE [NumOfRegInDesc-1:0]" style="text;html=1;align=center;verticalAlign=middle;resizable=0;points=[];autosize=1;strokeColor=none;fillColor=none;fontSize=19;" parent="1" vertex="1">
          <mxGeometry x="461" y="117" width="260" height="40" as="geometry" />
        </mxCell>
        <mxCell id="LC4siJIk5vWK9PD_h5xN-124" style="edgeStyle=orthogonalEdgeStyle;rounded=0;orthogonalLoop=1;jettySize=auto;html=1;exitX=0.25;exitY=1;exitDx=0;exitDy=0;startArrow=classic;startFill=1;endArrow=none;endFill=0;" parent="1" source="LC4siJIk5vWK9PD_h5xN-36" target="LC4siJIk5vWK9PD_h5xN-136" edge="1">
          <mxGeometry relative="1" as="geometry">
            <mxPoint x="296" y="106.5" as="sourcePoint" />
            <mxPoint x="289.5" y="114" as="targetPoint" />
            <Array as="points" />
          </mxGeometry>
        </mxCell>
        <mxCell id="LC4siJIk5vWK9PD_h5xN-125" style="edgeStyle=orthogonalEdgeStyle;rounded=0;orthogonalLoop=1;jettySize=auto;html=1;exitX=0.75;exitY=1;exitDx=0;exitDy=0;fontSize=12;startArrow=classic;startFill=1;endArrow=none;endFill=0;endSize=15;sourcePerimeterSpacing=18;targetPerimeterSpacing=0;strokeColor=#000000;" parent="1" source="LC4siJIk5vWK9PD_h5xN-36" target="LC4siJIk5vWK9PD_h5xN-135" edge="1">
          <mxGeometry relative="1" as="geometry">
            <mxPoint x="296" y="127" as="sourcePoint" />
            <mxPoint x="285.1300000000001" y="160" as="targetPoint" />
          </mxGeometry>
        </mxCell>
        <mxCell id="LC4siJIk5vWK9PD_h5xN-126" value="" style="edgeStyle=orthogonalEdgeStyle;rounded=0;orthogonalLoop=1;jettySize=auto;html=1;strokeColor=#000000;strokeWidth=1;entryX=1;entryY=0.5;entryDx=0;entryDy=0;" parent="1" source="LC4siJIk5vWK9PD_h5xN-127" target="LC4siJIk5vWK9PD_h5xN-36" edge="1">
          <mxGeometry relative="1" as="geometry">
            <mxPoint x="309.04347826086996" y="196.00000000000023" as="sourcePoint" />
            <Array as="points">
              <mxPoint x="325" y="183" />
              <mxPoint x="325" y="183" />
            </Array>
          </mxGeometry>
        </mxCell>
        <mxCell id="LC4siJIk5vWK9PD_h5xN-127" value="WEControl" style="text;html=1;align=center;verticalAlign=middle;resizable=0;points=[];autosize=1;strokeColor=none;fillColor=none;fontSize=17;" parent="1" vertex="1">
          <mxGeometry x="264" y="189" width="110" height="30" as="geometry" />
        </mxCell>
        <mxCell id="LC4siJIk5vWK9PD_h5xN-128" value="Empty" style="text;html=1;align=center;verticalAlign=middle;resizable=0;points=[];autosize=1;strokeColor=none;fillColor=none;rotation=0;fontSize=17;" parent="1" vertex="1">
          <mxGeometry x="280" y="329" width="70" height="30" as="geometry" />
        </mxCell>
        <mxCell id="LC4siJIk5vWK9PD_h5xN-129" value="ReadyRegSpace&lt;br&gt;(obtained control of RegSpace)" style="text;html=1;align=center;verticalAlign=middle;resizable=0;points=[];autosize=1;strokeColor=none;fillColor=none;fontSize=19;" parent="1" vertex="1">
          <mxGeometry x="-536" y="335" width="290" height="60" as="geometry" />
        </mxCell>
        <mxCell id="LC4siJIk5vWK9PD_h5xN-130" value="" style="shape=curlyBracket;whiteSpace=wrap;html=1;rounded=1;fontSize=21;" parent="1" vertex="1">
          <mxGeometry x="-543" y="355" width="20" height="32" as="geometry" />
        </mxCell>
        <mxCell id="LC4siJIk5vWK9PD_h5xN-131" value="From RegSpace Arbiter" style="text;html=1;align=center;verticalAlign=middle;resizable=0;points=[];autosize=1;strokeColor=none;fillColor=none;fontSize=18;" parent="1" vertex="1">
          <mxGeometry x="-741" y="351" width="210" height="40" as="geometry" />
        </mxCell>
        <mxCell id="LC4siJIk5vWK9PD_h5xN-132" value="ValidRegSpace&lt;br&gt;(Want to Write FIFO)" style="text;html=1;align=center;verticalAlign=middle;resizable=0;points=[];autosize=1;strokeColor=none;fillColor=none;fontSize=19;" parent="1" vertex="1">
          <mxGeometry x="521" y="365" width="200" height="60" as="geometry" />
        </mxCell>
        <mxCell id="LC4siJIk5vWK9PD_h5xN-133" style="edgeStyle=orthogonalEdgeStyle;rounded=0;orthogonalLoop=1;jettySize=auto;html=1;exitX=1;exitY=0.25;exitDx=0;exitDy=0;strokeColor=#000000;" parent="1" source="LC4siJIk5vWK9PD_h5xN-93" target="LC4siJIk5vWK9PD_h5xN-132" edge="1">
          <mxGeometry relative="1" as="geometry">
            <mxPoint x="355" y="395" as="sourcePoint" />
          </mxGeometry>
        </mxCell>
        <mxCell id="LC4siJIk5vWK9PD_h5xN-134" value="DescAddrPointer" style="text;html=1;align=center;verticalAlign=middle;resizable=0;points=[];autosize=1;strokeColor=none;fillColor=none;fontSize=17;" parent="1" vertex="1">
          <mxGeometry x="135.13" y="274" width="150" height="30" as="geometry" />
        </mxCell>
        <mxCell id="LC4siJIk5vWK9PD_h5xN-135" value="WE[SentBytesIndx] = 1" style="text;html=1;align=center;verticalAlign=middle;resizable=0;points=[];autosize=1;strokeColor=none;fillColor=none;fontSize=17;" parent="1" vertex="1">
          <mxGeometry x="87.5" y="145" width="200" height="30" as="geometry" />
        </mxCell>
        <mxCell id="LC4siJIk5vWK9PD_h5xN-136" value="0" style="text;html=1;align=center;verticalAlign=middle;resizable=0;points=[];autosize=1;strokeColor=none;fillColor=none;fontSize=17;" parent="1" vertex="1">
          <mxGeometry x="254" y="99.5" width="30" height="30" as="geometry" />
        </mxCell>
      </root>
    </mxGraphModel>
  </diagram>
  <diagram name="WRONG" id="DmFhABccxaGDprgyzZNT">
    <mxGraphModel dx="2389" dy="758" grid="1" gridSize="10" guides="1" tooltips="1" connect="1" arrows="1" fold="1" page="1" pageScale="1" pageWidth="827" pageHeight="1169" math="0" shadow="0">
      <root>
        <mxCell id="UaOLA1O39fD4inkuyz4F-0" />
        <mxCell id="UaOLA1O39fD4inkuyz4F-1" parent="UaOLA1O39fD4inkuyz4F-0" />
        <mxCell id="UaOLA1O39fD4inkuyz4F-73" style="edgeStyle=orthogonalEdgeStyle;rounded=0;orthogonalLoop=1;jettySize=auto;html=1;exitX=0;exitY=0.25;exitDx=0;exitDy=0;exitPerimeter=0;fontSize=12;startArrow=classic;startFill=1;endArrow=none;endFill=0;endSize=15;sourcePerimeterSpacing=18;targetPerimeterSpacing=0;strokeColor=#000000;" parent="UaOLA1O39fD4inkuyz4F-1" edge="1">
          <mxGeometry relative="1" as="geometry">
            <mxPoint x="44" y="959.5" as="sourcePoint" />
          </mxGeometry>
        </mxCell>
        <mxCell id="UaOLA1O39fD4inkuyz4F-74" style="edgeStyle=orthogonalEdgeStyle;rounded=0;orthogonalLoop=1;jettySize=auto;html=1;exitX=1;exitY=0.5;exitDx=0;exitDy=0;exitPerimeter=0;entryX=0;entryY=0.25;entryDx=0;entryDy=0;entryPerimeter=0;fontSize=10;fontColor=#000000;startArrow=none;startFill=0;endArrow=classic;endFill=1;endSize=6;sourcePerimeterSpacing=18;targetPerimeterSpacing=0;strokeColor=#000000;strokeWidth=1;" parent="UaOLA1O39fD4inkuyz4F-1" edge="1">
          <mxGeometry relative="1" as="geometry">
            <mxPoint x="187" y="967.5" as="targetPoint" />
          </mxGeometry>
        </mxCell>
        <mxCell id="UaOLA1O39fD4inkuyz4F-103" style="edgeStyle=orthogonalEdgeStyle;rounded=0;orthogonalLoop=1;jettySize=auto;html=1;exitX=0;exitY=0.75;exitDx=0;exitDy=0;exitPerimeter=0;fontSize=10;fontColor=#000000;startArrow=classic;startFill=1;endArrow=none;endFill=0;endSize=6;sourcePerimeterSpacing=18;targetPerimeterSpacing=0;strokeColor=#000000;strokeWidth=1;" parent="UaOLA1O39fD4inkuyz4F-1" edge="1">
          <mxGeometry relative="1" as="geometry">
            <mxPoint x="187" y="982.5" as="sourcePoint" />
          </mxGeometry>
        </mxCell>
        <mxCell id="3Ts8TDuBTxamL5P1lUE9-1" value="" style="rounded=0;whiteSpace=wrap;html=1;fontSize=24;fillColor=#dae8fc;strokeColor=#6c8ebf;" parent="UaOLA1O39fD4inkuyz4F-1" vertex="1">
          <mxGeometry x="-238.5" y="160" width="588.5" height="820" as="geometry" />
        </mxCell>
        <mxCell id="3Ts8TDuBTxamL5P1lUE9-2" value="&lt;font style=&quot;font-size: 40px;&quot;&gt;Scheduer&lt;/font&gt;" style="text;html=1;align=center;verticalAlign=middle;resizable=0;points=[];autosize=1;strokeColor=none;fillColor=none;" parent="UaOLA1O39fD4inkuyz4F-1" vertex="1">
          <mxGeometry x="-45" y="80" width="190" height="60" as="geometry" />
        </mxCell>
        <mxCell id="3Ts8TDuBTxamL5P1lUE9-3" style="edgeStyle=orthogonalEdgeStyle;rounded=0;orthogonalLoop=1;jettySize=auto;html=1;startArrow=classic;startFill=1;endArrow=none;endFill=0;exitX=-0.011;exitY=0.178;exitDx=0;exitDy=0;exitPerimeter=0;fillColor=#f8cecc;strokeColor=#000000;" parent="UaOLA1O39fD4inkuyz4F-1" source="3Ts8TDuBTxamL5P1lUE9-93" target="3Ts8TDuBTxamL5P1lUE9-23" edge="1">
          <mxGeometry relative="1" as="geometry">
            <mxPoint x="-200" y="476.41176470588243" as="targetPoint" />
            <mxPoint x="391" y="578.5" as="sourcePoint" />
            <Array as="points">
              <mxPoint x="-140" y="432" />
              <mxPoint x="-140" y="432" />
            </Array>
          </mxGeometry>
        </mxCell>
        <mxCell id="3Ts8TDuBTxamL5P1lUE9-4" style="edgeStyle=orthogonalEdgeStyle;rounded=0;orthogonalLoop=1;jettySize=auto;html=1;startArrow=none;startFill=0;endArrow=none;endFill=0;fillColor=#e1d5e7;strokeColor=#FF0080;" parent="UaOLA1O39fD4inkuyz4F-1" target="3Ts8TDuBTxamL5P1lUE9-26" edge="1">
          <mxGeometry relative="1" as="geometry">
            <mxPoint x="-200" y="693" as="targetPoint" />
            <mxPoint x="-220" y="750" as="sourcePoint" />
            <Array as="points">
              <mxPoint x="-220" y="750" />
              <mxPoint x="-220" y="630" />
            </Array>
          </mxGeometry>
        </mxCell>
        <mxCell id="3Ts8TDuBTxamL5P1lUE9-5" style="edgeStyle=orthogonalEdgeStyle;rounded=0;orthogonalLoop=1;jettySize=auto;html=1;fontSize=12;strokeWidth=3;" parent="UaOLA1O39fD4inkuyz4F-1" target="3Ts8TDuBTxamL5P1lUE9-6" edge="1">
          <mxGeometry relative="1" as="geometry">
            <mxPoint x="234.99999999999955" y="177.00000000000023" as="targetPoint" />
            <mxPoint x="350" y="176" as="sourcePoint" />
            <Array as="points" />
          </mxGeometry>
        </mxCell>
        <mxCell id="3Ts8TDuBTxamL5P1lUE9-6" value="DescDataOut_packet" style="text;html=1;align=center;verticalAlign=middle;resizable=0;points=[];autosize=1;strokeColor=none;fillColor=none;fontSize=19;" parent="UaOLA1O39fD4inkuyz4F-1" vertex="1">
          <mxGeometry x="505" y="156" width="200" height="40" as="geometry" />
        </mxCell>
        <mxCell id="3Ts8TDuBTxamL5P1lUE9-7" value="&lt;span style=&quot;color: rgb(0, 0, 0); font-family: Helvetica; font-size: 19px; font-style: normal; font-variant-ligatures: normal; font-variant-caps: normal; font-weight: 400; letter-spacing: normal; orphans: 2; text-align: center; text-indent: 0px; text-transform: none; widows: 2; word-spacing: 0px; -webkit-text-stroke-width: 0px; background-color: rgb(248, 249, 250); text-decoration-thickness: initial; text-decoration-style: initial; text-decoration-color: initial; float: none; display: inline !important;&quot;&gt;DescDataIn_packet&lt;/span&gt;" style="text;whiteSpace=wrap;html=1;fontSize=19;" parent="UaOLA1O39fD4inkuyz4F-1" vertex="1">
          <mxGeometry x="-539" y="175" width="178" height="42" as="geometry" />
        </mxCell>
        <mxCell id="3Ts8TDuBTxamL5P1lUE9-8" style="edgeStyle=orthogonalEdgeStyle;rounded=0;orthogonalLoop=1;jettySize=auto;html=1;fontSize=12;exitX=0.75;exitY=1;exitDx=0;exitDy=0;" parent="UaOLA1O39fD4inkuyz4F-1" source="3Ts8TDuBTxamL5P1lUE9-93" target="3Ts8TDuBTxamL5P1lUE9-9" edge="1">
          <mxGeometry relative="1" as="geometry">
            <mxPoint x="716" y="808" as="targetPoint" />
            <mxPoint x="306" y="650" as="sourcePoint" />
            <Array as="points">
              <mxPoint x="58" y="679" />
            </Array>
          </mxGeometry>
        </mxCell>
        <mxCell id="3Ts8TDuBTxamL5P1lUE9-9" value="Read &lt;br&gt;(There is a Valid Read Request)" style="text;html=1;align=center;verticalAlign=middle;resizable=0;points=[];autosize=1;strokeColor=none;fillColor=none;fontSize=19;" parent="UaOLA1O39fD4inkuyz4F-1" vertex="1">
          <mxGeometry x="415" y="649" width="290" height="60" as="geometry" />
        </mxCell>
        <mxCell id="3Ts8TDuBTxamL5P1lUE9-10" value="RegSapceAddr" style="text;html=1;align=center;verticalAlign=middle;resizable=0;points=[];autosize=1;strokeColor=none;fillColor=none;fontSize=19;" parent="UaOLA1O39fD4inkuyz4F-1" vertex="1">
          <mxGeometry x="562" y="318.51" width="150" height="40" as="geometry" />
        </mxCell>
        <mxCell id="3Ts8TDuBTxamL5P1lUE9-11" style="edgeStyle=orthogonalEdgeStyle;rounded=0;orthogonalLoop=1;jettySize=auto;html=1;fontSize=12;exitX=0.5;exitY=0;exitDx=0;exitDy=0;" parent="UaOLA1O39fD4inkuyz4F-1" source="3Ts8TDuBTxamL5P1lUE9-55" target="3Ts8TDuBTxamL5P1lUE9-10" edge="1">
          <mxGeometry relative="1" as="geometry">
            <mxPoint x="698" y="318" as="targetPoint" />
            <mxPoint x="590" y="373" as="sourcePoint" />
            <Array as="points">
              <mxPoint x="331" y="339" />
            </Array>
          </mxGeometry>
        </mxCell>
        <mxCell id="3Ts8TDuBTxamL5P1lUE9-12" value="ValidFIFO&lt;br&gt;(Want to Write FIFO)" style="text;html=1;align=center;verticalAlign=middle;resizable=0;points=[];autosize=1;strokeColor=none;fillColor=none;fontSize=19;" parent="UaOLA1O39fD4inkuyz4F-1" vertex="1">
          <mxGeometry x="505" y="525" width="200" height="60" as="geometry" />
        </mxCell>
        <mxCell id="3Ts8TDuBTxamL5P1lUE9-13" value="DescAddrPointer&lt;br&gt;(Data For FIFO)" style="text;html=1;align=center;verticalAlign=middle;resizable=0;points=[];autosize=1;strokeColor=none;fillColor=none;fontSize=19;" parent="UaOLA1O39fD4inkuyz4F-1" vertex="1">
          <mxGeometry x="535" y="586" width="170" height="60" as="geometry" />
        </mxCell>
        <mxCell id="3Ts8TDuBTxamL5P1lUE9-14" value="Dequeue&lt;br&gt;(Take pointer of Next Desc)" style="text;html=1;align=center;verticalAlign=middle;resizable=0;points=[];autosize=1;strokeColor=none;fillColor=none;fontSize=19;" parent="UaOLA1O39fD4inkuyz4F-1" vertex="1">
          <mxGeometry x="447" y="466.75" width="250" height="60" as="geometry" />
        </mxCell>
        <mxCell id="3Ts8TDuBTxamL5P1lUE9-15" value="" style="shape=curlyBracket;whiteSpace=wrap;html=1;rounded=1;flipH=1;size=0.5;" parent="UaOLA1O39fD4inkuyz4F-1" vertex="1">
          <mxGeometry x="693" y="150" width="29" height="326" as="geometry" />
        </mxCell>
        <mxCell id="3Ts8TDuBTxamL5P1lUE9-16" value="" style="shape=curlyBracket;whiteSpace=wrap;html=1;rounded=1;flipH=1;size=0.5;" parent="UaOLA1O39fD4inkuyz4F-1" vertex="1">
          <mxGeometry x="693" y="540" width="29" height="109" as="geometry" />
        </mxCell>
        <mxCell id="3Ts8TDuBTxamL5P1lUE9-17" value="" style="shape=curlyBracket;whiteSpace=wrap;html=1;rounded=1;flipH=1;size=0.5;" parent="UaOLA1O39fD4inkuyz4F-1" vertex="1">
          <mxGeometry x="693" y="477" width="29" height="50" as="geometry" />
        </mxCell>
        <mxCell id="3Ts8TDuBTxamL5P1lUE9-18" value="" style="shape=curlyBracket;whiteSpace=wrap;html=1;rounded=1;flipH=1;size=0.5;" parent="UaOLA1O39fD4inkuyz4F-1" vertex="1">
          <mxGeometry x="693" y="660" width="29" height="327" as="geometry" />
        </mxCell>
        <mxCell id="3Ts8TDuBTxamL5P1lUE9-19" value="For RegSpace-RegspaceArbiter" style="text;html=1;align=center;verticalAlign=middle;resizable=0;points=[];autosize=1;strokeColor=none;fillColor=none;fontSize=17;" parent="UaOLA1O39fD4inkuyz4F-1" vertex="1">
          <mxGeometry x="722" y="301" width="270" height="30" as="geometry" />
        </mxCell>
        <mxCell id="3Ts8TDuBTxamL5P1lUE9-20" value="For FIFO&#39;s Arbiter" style="text;html=1;align=center;verticalAlign=middle;resizable=0;points=[];autosize=1;strokeColor=none;fillColor=none;fontSize=17;" parent="UaOLA1O39fD4inkuyz4F-1" vertex="1">
          <mxGeometry x="710" y="580" width="160" height="30" as="geometry" />
        </mxCell>
        <mxCell id="3Ts8TDuBTxamL5P1lUE9-21" value="For FIFO" style="text;html=1;align=center;verticalAlign=middle;resizable=0;points=[];autosize=1;strokeColor=none;fillColor=none;fontSize=17;" parent="UaOLA1O39fD4inkuyz4F-1" vertex="1">
          <mxGeometry x="712" y="487" width="90" height="30" as="geometry" />
        </mxCell>
        <mxCell id="3Ts8TDuBTxamL5P1lUE9-22" value="For CHI Converter" style="text;html=1;align=center;verticalAlign=middle;resizable=0;points=[];autosize=1;strokeColor=none;fillColor=none;fontSize=17;" parent="UaOLA1O39fD4inkuyz4F-1" vertex="1">
          <mxGeometry x="712" y="811" width="160" height="30" as="geometry" />
        </mxCell>
        <mxCell id="3Ts8TDuBTxamL5P1lUE9-23" value="ReadyFIFO&lt;br&gt;(obtained control of FIFO)" style="text;html=1;align=center;verticalAlign=middle;resizable=0;points=[];autosize=1;strokeColor=none;fillColor=none;fontSize=19;" parent="UaOLA1O39fD4inkuyz4F-1" vertex="1">
          <mxGeometry x="-539" y="380" width="240" height="60" as="geometry" />
        </mxCell>
        <mxCell id="3Ts8TDuBTxamL5P1lUE9-24" style="edgeStyle=orthogonalEdgeStyle;rounded=0;orthogonalLoop=1;jettySize=auto;html=1;startArrow=classic;startFill=1;endArrow=none;endFill=0;fillColor=#d5e8d4;strokeColor=#009900;targetPerimeterSpacing=0;exitX=0.006;exitY=0.917;exitDx=0;exitDy=0;exitPerimeter=0;" parent="UaOLA1O39fD4inkuyz4F-1" source="3Ts8TDuBTxamL5P1lUE9-93" target="3Ts8TDuBTxamL5P1lUE9-25" edge="1">
          <mxGeometry relative="1" as="geometry">
            <mxPoint x="-201" y="773" as="targetPoint" />
            <mxPoint x="39" y="733" as="sourcePoint" />
            <Array as="points">
              <mxPoint x="-150" y="521" />
              <mxPoint x="-150" y="539" />
            </Array>
          </mxGeometry>
        </mxCell>
        <mxCell id="3Ts8TDuBTxamL5P1lUE9-25" value="Empty" style="text;html=1;align=center;verticalAlign=middle;resizable=0;points=[];autosize=1;strokeColor=none;fillColor=none;fontSize=19;" parent="UaOLA1O39fD4inkuyz4F-1" vertex="1">
          <mxGeometry x="-539" y="519" width="80" height="40" as="geometry" />
        </mxCell>
        <mxCell id="3Ts8TDuBTxamL5P1lUE9-26" value="FIFO_out&lt;br&gt;(Pointer To the Next Desc)" style="text;html=1;align=center;verticalAlign=middle;resizable=0;points=[];autosize=1;strokeColor=none;fillColor=none;fontSize=19;" parent="UaOLA1O39fD4inkuyz4F-1" vertex="1">
          <mxGeometry x="-539" y="592" width="250" height="60" as="geometry" />
        </mxCell>
        <mxCell id="3Ts8TDuBTxamL5P1lUE9-27" value="" style="shape=curlyBracket;whiteSpace=wrap;html=1;rounded=1;fontSize=21;" parent="UaOLA1O39fD4inkuyz4F-1" vertex="1">
          <mxGeometry x="-555" y="171" width="20" height="42" as="geometry" />
        </mxCell>
        <mxCell id="3Ts8TDuBTxamL5P1lUE9-28" value="From RegisterSpace" style="text;html=1;align=center;verticalAlign=middle;resizable=0;points=[];autosize=1;strokeColor=none;fillColor=none;fontSize=18;" parent="UaOLA1O39fD4inkuyz4F-1" vertex="1">
          <mxGeometry x="-744" y="169" width="190" height="40" as="geometry" />
        </mxCell>
        <mxCell id="3Ts8TDuBTxamL5P1lUE9-29" value="" style="shape=curlyBracket;whiteSpace=wrap;html=1;rounded=1;fontSize=21;" parent="UaOLA1O39fD4inkuyz4F-1" vertex="1">
          <mxGeometry x="-553" y="400" width="20" height="32" as="geometry" />
        </mxCell>
        <mxCell id="3Ts8TDuBTxamL5P1lUE9-30" value="From FIFO&#39;s Arbiter" style="text;html=1;align=center;verticalAlign=middle;resizable=0;points=[];autosize=1;strokeColor=none;fillColor=none;fontSize=18;" parent="UaOLA1O39fD4inkuyz4F-1" vertex="1">
          <mxGeometry x="-736" y="396" width="180" height="40" as="geometry" />
        </mxCell>
        <mxCell id="3Ts8TDuBTxamL5P1lUE9-31" value="" style="shape=curlyBracket;whiteSpace=wrap;html=1;rounded=1;fontSize=21;" parent="UaOLA1O39fD4inkuyz4F-1" vertex="1">
          <mxGeometry x="-552" y="528" width="20" height="122" as="geometry" />
        </mxCell>
        <mxCell id="3Ts8TDuBTxamL5P1lUE9-32" value="From FIFO" style="text;html=1;align=center;verticalAlign=middle;resizable=0;points=[];autosize=1;strokeColor=none;fillColor=none;fontSize=18;" parent="UaOLA1O39fD4inkuyz4F-1" vertex="1">
          <mxGeometry x="-663" y="568" width="110" height="40" as="geometry" />
        </mxCell>
        <mxCell id="3Ts8TDuBTxamL5P1lUE9-35" style="edgeStyle=orthogonalEdgeStyle;rounded=0;orthogonalLoop=1;jettySize=auto;html=1;fontSize=12;startArrow=classic;startFill=1;endArrow=none;endFill=0;strokeWidth=3;entryX=1;entryY=0.5;entryDx=0;entryDy=0;exitX=0.002;exitY=0.046;exitDx=0;exitDy=0;exitPerimeter=0;" parent="UaOLA1O39fD4inkuyz4F-1" target="3Ts8TDuBTxamL5P1lUE9-7" edge="1">
          <mxGeometry relative="1" as="geometry">
            <mxPoint x="-290" y="189" as="targetPoint" />
            <mxPoint x="-237.32299999999987" y="196.2349999999999" as="sourcePoint" />
            <Array as="points">
              <mxPoint x="-320" y="196" />
              <mxPoint x="-320" y="196" />
            </Array>
          </mxGeometry>
        </mxCell>
        <mxCell id="3Ts8TDuBTxamL5P1lUE9-36" value="&lt;font style=&quot;font-size: 24px;&quot;&gt;M&lt;/font&gt;" style="shape=trapezoid;perimeter=trapezoidPerimeter;whiteSpace=wrap;html=1;fixedSize=1;rotation=90;" parent="UaOLA1O39fD4inkuyz4F-1" vertex="1">
          <mxGeometry x="269" y="196" width="92" height="26" as="geometry" />
        </mxCell>
        <mxCell id="3Ts8TDuBTxamL5P1lUE9-37" style="edgeStyle=orthogonalEdgeStyle;rounded=0;orthogonalLoop=1;jettySize=auto;html=1;startArrow=classic;startFill=1;endArrow=none;endFill=0;strokeWidth=3;exitX=0;exitY=0.75;exitDx=0;exitDy=0;" parent="UaOLA1O39fD4inkuyz4F-1" source="3Ts8TDuBTxamL5P1lUE9-93" target="3Ts8TDuBTxamL5P1lUE9-121" edge="1">
          <mxGeometry relative="1" as="geometry">
            <mxPoint x="307.2469516727642" y="448.74695167276377" as="sourcePoint" />
            <mxPoint x="193.00000000001182" y="146" as="targetPoint" />
            <Array as="points">
              <mxPoint x="-80" y="501" />
              <mxPoint x="-80" y="501" />
            </Array>
          </mxGeometry>
        </mxCell>
        <mxCell id="3Ts8TDuBTxamL5P1lUE9-38" style="edgeStyle=orthogonalEdgeStyle;rounded=0;orthogonalLoop=1;jettySize=auto;html=1;fontSize=14;startArrow=none;startFill=0;endArrow=classic;endFill=1;exitX=0.999;exitY=0.587;exitDx=0;exitDy=0;exitPerimeter=0;" parent="UaOLA1O39fD4inkuyz4F-1" source="3Ts8TDuBTxamL5P1lUE9-93" target="3Ts8TDuBTxamL5P1lUE9-14" edge="1">
          <mxGeometry relative="1" as="geometry">
            <mxPoint x="395" y="480" as="targetPoint" />
            <mxPoint x="94.90000000000009" y="481.2800000000002" as="sourcePoint" />
            <Array as="points">
              <mxPoint x="95" y="490" />
            </Array>
          </mxGeometry>
        </mxCell>
        <mxCell id="3Ts8TDuBTxamL5P1lUE9-39" style="edgeStyle=orthogonalEdgeStyle;rounded=0;orthogonalLoop=1;jettySize=auto;html=1;fontSize=14;startArrow=classic;startFill=1;endArrow=none;endFill=0;strokeWidth=3;" parent="UaOLA1O39fD4inkuyz4F-1" target="3Ts8TDuBTxamL5P1lUE9-120" edge="1">
          <mxGeometry relative="1" as="geometry">
            <mxPoint x="-159" y="780" as="targetPoint" />
            <mxPoint x="-29" y="755" as="sourcePoint" />
            <Array as="points" />
          </mxGeometry>
        </mxCell>
        <mxCell id="3Ts8TDuBTxamL5P1lUE9-40" style="edgeStyle=orthogonalEdgeStyle;rounded=0;orthogonalLoop=1;jettySize=auto;html=1;fontSize=12;fontColor=#CCE5FF;startArrow=classic;startFill=1;endArrow=none;endFill=0;endSize=5;sourcePerimeterSpacing=18;targetPerimeterSpacing=0;strokeColor=#FF0080;strokeWidth=1;" parent="UaOLA1O39fD4inkuyz4F-1" edge="1">
          <mxGeometry relative="1" as="geometry">
            <mxPoint x="-220" y="687" as="targetPoint" />
            <mxPoint x="270" y="877" as="sourcePoint" />
            <Array as="points">
              <mxPoint x="-220" y="877" />
            </Array>
          </mxGeometry>
        </mxCell>
        <mxCell id="3Ts8TDuBTxamL5P1lUE9-50" value="FULL&lt;br&gt;(received Read Request)" style="text;html=1;align=center;verticalAlign=middle;resizable=0;points=[];autosize=1;strokeColor=none;fillColor=none;fontSize=19;" parent="UaOLA1O39fD4inkuyz4F-1" vertex="1">
          <mxGeometry x="-539" y="449" width="230" height="60" as="geometry" />
        </mxCell>
        <mxCell id="3Ts8TDuBTxamL5P1lUE9-51" style="edgeStyle=orthogonalEdgeStyle;rounded=0;orthogonalLoop=1;jettySize=auto;html=1;fontSize=12;startArrow=classic;startFill=1;endArrow=none;endFill=0;endSize=15;sourcePerimeterSpacing=0;targetPerimeterSpacing=18;entryX=1.001;entryY=0.426;entryDx=0;entryDy=0;entryPerimeter=0;strokeWidth=3;" parent="UaOLA1O39fD4inkuyz4F-1" source="3Ts8TDuBTxamL5P1lUE9-117" target="3Ts8TDuBTxamL5P1lUE9-93" edge="1">
          <mxGeometry relative="1" as="geometry">
            <mxPoint x="558.2727272727275" y="199.6363636363635" as="sourcePoint" />
            <mxPoint x="90" y="460" as="targetPoint" />
            <Array as="points" />
          </mxGeometry>
        </mxCell>
        <mxCell id="3Ts8TDuBTxamL5P1lUE9-52" style="edgeStyle=orthogonalEdgeStyle;rounded=0;orthogonalLoop=1;jettySize=auto;html=1;strokeWidth=1;strokeColor=#CC0066;entryX=0.25;entryY=1;entryDx=0;entryDy=0;" parent="UaOLA1O39fD4inkuyz4F-1" source="3Ts8TDuBTxamL5P1lUE9-119" target="3Ts8TDuBTxamL5P1lUE9-55" edge="1">
          <mxGeometry relative="1" as="geometry">
            <mxPoint x="243.5" y="317.0000000000002" as="sourcePoint" />
            <mxPoint x="244" y="322" as="targetPoint" />
            <Array as="points">
              <mxPoint x="282" y="315" />
              <mxPoint x="282" y="315" />
            </Array>
          </mxGeometry>
        </mxCell>
        <mxCell id="3Ts8TDuBTxamL5P1lUE9-53" style="edgeStyle=orthogonalEdgeStyle;rounded=0;orthogonalLoop=1;jettySize=auto;html=1;strokeColor=#000000;strokeWidth=1;entryX=1;entryY=0.5;entryDx=0;entryDy=0;" parent="UaOLA1O39fD4inkuyz4F-1" source="3Ts8TDuBTxamL5P1lUE9-128" target="3Ts8TDuBTxamL5P1lUE9-55" edge="1">
          <mxGeometry relative="1" as="geometry">
            <Array as="points">
              <mxPoint x="320" y="396" />
              <mxPoint x="320" y="396" />
            </Array>
            <mxPoint x="322" y="406" as="sourcePoint" />
          </mxGeometry>
        </mxCell>
        <mxCell id="3Ts8TDuBTxamL5P1lUE9-54" style="edgeStyle=orthogonalEdgeStyle;rounded=0;orthogonalLoop=1;jettySize=auto;html=1;entryX=0.75;entryY=1;entryDx=0;entryDy=0;strokeColor=#CC0066;fillColor=#f8cecc;" parent="UaOLA1O39fD4inkuyz4F-1" source="3Ts8TDuBTxamL5P1lUE9-134" target="3Ts8TDuBTxamL5P1lUE9-55" edge="1">
          <mxGeometry relative="1" as="geometry">
            <mxPoint x="252" y="698" as="sourcePoint" />
            <Array as="points">
              <mxPoint x="240" y="362" />
              <mxPoint x="240" y="362" />
            </Array>
          </mxGeometry>
        </mxCell>
        <mxCell id="3Ts8TDuBTxamL5P1lUE9-55" value="&lt;font style=&quot;font-size: 21px;&quot;&gt;M&lt;/font&gt;" style="shape=trapezoid;perimeter=trapezoidPerimeter;whiteSpace=wrap;html=1;fixedSize=1;rotation=90;" parent="UaOLA1O39fD4inkuyz4F-1" vertex="1">
          <mxGeometry x="272.13" y="326.88" width="95" height="23.25" as="geometry" />
        </mxCell>
        <mxCell id="3Ts8TDuBTxamL5P1lUE9-56" style="edgeStyle=orthogonalEdgeStyle;rounded=0;orthogonalLoop=1;jettySize=auto;html=1;fontSize=12;startArrow=classic;startFill=1;endArrow=none;endFill=0;endSize=15;sourcePerimeterSpacing=18;targetPerimeterSpacing=0;strokeColor=#000066;exitX=0;exitY=0.5;exitDx=0;exitDy=0;" parent="UaOLA1O39fD4inkuyz4F-1" source="3Ts8TDuBTxamL5P1lUE9-93" target="3Ts8TDuBTxamL5P1lUE9-50" edge="1">
          <mxGeometry relative="1" as="geometry">
            <mxPoint x="-230" y="923" as="targetPoint" />
            <Array as="points">
              <mxPoint x="-240" y="471" />
              <mxPoint x="-240" y="471" />
            </Array>
            <mxPoint x="44" y="997.5" as="sourcePoint" />
          </mxGeometry>
        </mxCell>
        <mxCell id="3Ts8TDuBTxamL5P1lUE9-57" style="edgeStyle=orthogonalEdgeStyle;rounded=0;orthogonalLoop=1;jettySize=auto;html=1;entryX=1;entryY=0.25;entryDx=0;entryDy=0;fontSize=12;startArrow=classic;startFill=1;endArrow=none;endFill=0;endSize=15;sourcePerimeterSpacing=0;targetPerimeterSpacing=18;strokeColor=#000000;exitX=0.75;exitY=0;exitDx=0;exitDy=0;" parent="UaOLA1O39fD4inkuyz4F-1" source="3Ts8TDuBTxamL5P1lUE9-93" target="3Ts8TDuBTxamL5P1lUE9-58" edge="1">
          <mxGeometry relative="1" as="geometry">
            <mxPoint x="108" y="240" as="sourcePoint" />
            <Array as="points">
              <mxPoint x="58" y="390" />
              <mxPoint x="130" y="390" />
              <mxPoint x="130" y="270" />
              <mxPoint x="103" y="270" />
            </Array>
          </mxGeometry>
        </mxCell>
        <mxCell id="3Ts8TDuBTxamL5P1lUE9-58" value="&lt;font style=&quot;font-size: 29px;&quot;&gt;DescReg&lt;/font&gt;" style="rounded=0;whiteSpace=wrap;html=1;labelBackgroundColor=#FFFFFF;fontSize=12;" parent="UaOLA1O39fD4inkuyz4F-1" vertex="1">
          <mxGeometry x="-24" y="251" width="127" height="60" as="geometry" />
        </mxCell>
        <mxCell id="3Ts8TDuBTxamL5P1lUE9-60" style="edgeStyle=orthogonalEdgeStyle;rounded=0;orthogonalLoop=1;jettySize=auto;html=1;exitX=0.25;exitY=1;exitDx=0;exitDy=0;fontSize=12;startArrow=classic;startFill=1;endArrow=none;endFill=0;endSize=15;sourcePerimeterSpacing=0;targetPerimeterSpacing=18;strokeColor=#000000;" parent="UaOLA1O39fD4inkuyz4F-1" source="3Ts8TDuBTxamL5P1lUE9-65" target="3Ts8TDuBTxamL5P1lUE9-143" edge="1">
          <mxGeometry relative="1" as="geometry">
            <Array as="points">
              <mxPoint x="-134" y="252" />
            </Array>
            <mxPoint x="-15.000000000000455" y="207.5" as="targetPoint" />
          </mxGeometry>
        </mxCell>
        <mxCell id="3Ts8TDuBTxamL5P1lUE9-62" style="edgeStyle=orthogonalEdgeStyle;rounded=0;orthogonalLoop=1;jettySize=auto;html=1;exitX=0;exitY=0.25;exitDx=0;exitDy=0;entryX=0.5;entryY=0;entryDx=0;entryDy=0;fontSize=12;startArrow=classic;startFill=1;endArrow=none;endFill=0;endSize=15;sourcePerimeterSpacing=0;targetPerimeterSpacing=18;strokeColor=#000000;" parent="UaOLA1O39fD4inkuyz4F-1" source="3Ts8TDuBTxamL5P1lUE9-58" target="3Ts8TDuBTxamL5P1lUE9-65" edge="1">
          <mxGeometry relative="1" as="geometry">
            <mxPoint x="-248.01999999999998" y="277.34000000000015" as="sourcePoint" />
          </mxGeometry>
        </mxCell>
        <mxCell id="3Ts8TDuBTxamL5P1lUE9-63" style="edgeStyle=orthogonalEdgeStyle;rounded=0;orthogonalLoop=1;jettySize=auto;html=1;exitX=0.75;exitY=1;exitDx=0;exitDy=0;fontSize=12;startArrow=classic;startFill=1;endArrow=none;endFill=0;endSize=15;sourcePerimeterSpacing=18;targetPerimeterSpacing=0;strokeColor=#000000;" parent="UaOLA1O39fD4inkuyz4F-1" source="3Ts8TDuBTxamL5P1lUE9-65" target="3Ts8TDuBTxamL5P1lUE9-144" edge="1">
          <mxGeometry relative="1" as="geometry">
            <mxPoint x="-165" y="281.00000000000045" as="targetPoint" />
          </mxGeometry>
        </mxCell>
        <mxCell id="3Ts8TDuBTxamL5P1lUE9-64" style="edgeStyle=orthogonalEdgeStyle;rounded=0;orthogonalLoop=1;jettySize=auto;html=1;entryX=1;entryY=0.5;entryDx=0;entryDy=0;fontSize=12;startArrow=none;startFill=0;endArrow=classic;endFill=1;endSize=5;sourcePerimeterSpacing=0;targetPerimeterSpacing=18;strokeColor=#000000;" parent="UaOLA1O39fD4inkuyz4F-1" source="3Ts8TDuBTxamL5P1lUE9-146" target="3Ts8TDuBTxamL5P1lUE9-65" edge="1">
          <mxGeometry relative="1" as="geometry">
            <Array as="points">
              <mxPoint x="-69" y="326" />
            </Array>
            <mxPoint x="-135" y="315" as="sourcePoint" />
          </mxGeometry>
        </mxCell>
        <mxCell id="3Ts8TDuBTxamL5P1lUE9-65" value="&lt;font style=&quot;font-size: 21px;&quot;&gt;M&lt;/font&gt;" style="shape=trapezoid;perimeter=trapezoidPerimeter;whiteSpace=wrap;html=1;fixedSize=1;rotation=90;size=20;" parent="UaOLA1O39fD4inkuyz4F-1" vertex="1">
          <mxGeometry x="-99" y="257.51" width="60" height="18" as="geometry" />
        </mxCell>
        <mxCell id="3Ts8TDuBTxamL5P1lUE9-67" style="edgeStyle=orthogonalEdgeStyle;rounded=0;orthogonalLoop=1;jettySize=auto;html=1;fontSize=12;startArrow=none;startFill=0;endArrow=classic;endFill=1;endSize=5;sourcePerimeterSpacing=18;targetPerimeterSpacing=0;strokeColor=#000000;" parent="UaOLA1O39fD4inkuyz4F-1" target="3Ts8TDuBTxamL5P1lUE9-12" edge="1">
          <mxGeometry relative="1" as="geometry">
            <mxPoint x="700" y="577" as="targetPoint" />
            <mxPoint x="96" y="520" as="sourcePoint" />
            <Array as="points">
              <mxPoint x="96" y="520" />
              <mxPoint x="220" y="520" />
              <mxPoint x="220" y="540" />
            </Array>
          </mxGeometry>
        </mxCell>
        <mxCell id="3Ts8TDuBTxamL5P1lUE9-70" style="edgeStyle=orthogonalEdgeStyle;rounded=0;orthogonalLoop=1;jettySize=auto;html=1;fontSize=12;" parent="UaOLA1O39fD4inkuyz4F-1" target="3Ts8TDuBTxamL5P1lUE9-71" edge="1">
          <mxGeometry relative="1" as="geometry">
            <mxPoint x="700" y="789" as="targetPoint" />
            <mxPoint x="270" y="877" as="sourcePoint" />
            <Array as="points">
              <mxPoint x="460" y="877" />
              <mxPoint x="460" y="877" />
            </Array>
          </mxGeometry>
        </mxCell>
        <mxCell id="3Ts8TDuBTxamL5P1lUE9-71" value="&lt;font color=&quot;#000000&quot; style=&quot;font-size: 19px;&quot;&gt;FinishedDescAddr&lt;br&gt;(Addr Of Desc)&lt;br&gt;&lt;/font&gt;" style="text;html=1;align=center;verticalAlign=middle;resizable=0;points=[];autosize=1;strokeColor=none;fillColor=none;fontSize=19;fontColor=#CCE5FF;" parent="UaOLA1O39fD4inkuyz4F-1" vertex="1">
          <mxGeometry x="525" y="848" width="180" height="60" as="geometry" />
        </mxCell>
        <mxCell id="3Ts8TDuBTxamL5P1lUE9-72" style="edgeStyle=orthogonalEdgeStyle;rounded=0;orthogonalLoop=1;jettySize=auto;html=1;fontSize=12;exitX=1;exitY=0.5;exitDx=0;exitDy=0;" parent="UaOLA1O39fD4inkuyz4F-1" source="3Ts8TDuBTxamL5P1lUE9-74" target="3Ts8TDuBTxamL5P1lUE9-82" edge="1">
          <mxGeometry relative="1" as="geometry">
            <mxPoint x="700" y="958.4999999999991" as="targetPoint" />
            <mxPoint x="470" y="961" as="sourcePoint" />
            <Array as="points">
              <mxPoint x="225" y="921" />
            </Array>
          </mxGeometry>
        </mxCell>
        <mxCell id="3Ts8TDuBTxamL5P1lUE9-73" style="edgeStyle=orthogonalEdgeStyle;rounded=0;orthogonalLoop=1;jettySize=auto;html=1;exitX=0;exitY=0.5;exitDx=0;exitDy=0;fontSize=12;fontColor=#000000;startArrow=none;startFill=0;endArrow=none;endFill=0;endSize=6;targetPerimeterSpacing=0;strokeColor=#000000;strokeWidth=1;" parent="UaOLA1O39fD4inkuyz4F-1" source="3Ts8TDuBTxamL5P1lUE9-77" edge="1">
          <mxGeometry relative="1" as="geometry">
            <mxPoint x="-9" y="902" as="targetPoint" />
            <Array as="points" />
          </mxGeometry>
        </mxCell>
        <mxCell id="3Ts8TDuBTxamL5P1lUE9-74" value="&lt;font style=&quot;font-size: 26px;&quot;&gt;=&lt;/font&gt;" style="ellipse;whiteSpace=wrap;html=1;aspect=fixed;" parent="UaOLA1O39fD4inkuyz4F-1" vertex="1">
          <mxGeometry x="196" y="910" width="29" height="29" as="geometry" />
        </mxCell>
        <mxCell id="3Ts8TDuBTxamL5P1lUE9-75" style="edgeStyle=orthogonalEdgeStyle;rounded=0;orthogonalLoop=1;jettySize=auto;html=1;fontSize=12;fontColor=#000000;startArrow=classic;startFill=1;endArrow=none;endFill=0;endSize=6;sourcePerimeterSpacing=18;targetPerimeterSpacing=0;strokeColor=#000000;strokeWidth=3;" parent="UaOLA1O39fD4inkuyz4F-1" edge="1">
          <mxGeometry relative="1" as="geometry">
            <mxPoint x="-69" y="756" as="targetPoint" />
            <mxPoint x="-30" y="904" as="sourcePoint" />
            <Array as="points">
              <mxPoint x="-60" y="904" />
              <mxPoint x="-60" y="756" />
            </Array>
          </mxGeometry>
        </mxCell>
        <mxCell id="3Ts8TDuBTxamL5P1lUE9-76" style="edgeStyle=orthogonalEdgeStyle;rounded=0;orthogonalLoop=1;jettySize=auto;html=1;fontSize=12;fontColor=#000000;startArrow=classic;startFill=1;endArrow=none;endFill=0;endSize=6;sourcePerimeterSpacing=18;targetPerimeterSpacing=0;strokeColor=#000000;strokeWidth=1;exitX=0;exitY=1;exitDx=0;exitDy=0;" parent="UaOLA1O39fD4inkuyz4F-1" source="3Ts8TDuBTxamL5P1lUE9-74" edge="1">
          <mxGeometry relative="1" as="geometry">
            <mxPoint x="-39" y="902" as="targetPoint" />
            <mxPoint x="49.74695167277605" y="937.246951672776" as="sourcePoint" />
            <Array as="points">
              <mxPoint x="-9" y="935" />
              <mxPoint x="-9" y="902" />
            </Array>
          </mxGeometry>
        </mxCell>
        <mxCell id="3Ts8TDuBTxamL5P1lUE9-77" value="" style="triangle;whiteSpace=wrap;html=1;labelBackgroundColor=#CCE5FF;fontSize=12;fontColor=#000000;fillColor=#CCE5FF;" parent="UaOLA1O39fD4inkuyz4F-1" vertex="1">
          <mxGeometry x="-8.5" y="908" width="20" height="13" as="geometry" />
        </mxCell>
        <mxCell id="3Ts8TDuBTxamL5P1lUE9-78" value="" style="edgeStyle=orthogonalEdgeStyle;rounded=0;orthogonalLoop=1;jettySize=auto;html=1;fontSize=12;fontColor=#000000;startArrow=none;startFill=0;endArrow=classic;endFill=1;endSize=6;strokeColor=#000000;strokeWidth=1;entryX=0;entryY=0;entryDx=0;entryDy=0;targetPerimeterSpacing=18;" parent="UaOLA1O39fD4inkuyz4F-1" source="3Ts8TDuBTxamL5P1lUE9-77" target="3Ts8TDuBTxamL5P1lUE9-74" edge="1">
          <mxGeometry relative="1" as="geometry">
            <mxPoint x="61" y="914.5" as="targetPoint" />
            <mxPoint x="-159" y="902" as="sourcePoint" />
            <Array as="points" />
          </mxGeometry>
        </mxCell>
        <mxCell id="3Ts8TDuBTxamL5P1lUE9-79" value="" style="triangle;whiteSpace=wrap;html=1;labelBackgroundColor=#CCE5FF;fontSize=12;fontColor=#000000;fillColor=#CCE5FF;" parent="UaOLA1O39fD4inkuyz4F-1" vertex="1">
          <mxGeometry x="-8.5" y="930" width="20" height="13" as="geometry" />
        </mxCell>
        <mxCell id="3Ts8TDuBTxamL5P1lUE9-80" value="&lt;span style=&quot;color: rgb(0, 0, 0); font-family: Helvetica; font-size: 17px; font-style: normal; font-variant-ligatures: normal; font-variant-caps: normal; font-weight: 400; letter-spacing: normal; orphans: 2; text-indent: 0px; text-transform: none; widows: 2; word-spacing: 0px; -webkit-text-stroke-width: 0px; text-decoration-thickness: initial; text-decoration-style: initial; text-decoration-color: initial; text-align: center; float: none; display: inline !important;&quot;&gt;packet&lt;/span&gt;&lt;font style=&quot;color: rgb(0, 0, 0); font-family: Helvetica; font-size: 17px; font-style: normal; font-variant-ligatures: normal; font-variant-caps: normal; font-weight: 400; letter-spacing: normal; orphans: 2; text-indent: 0px; text-transform: none; widows: 2; word-spacing: 0px; -webkit-text-stroke-width: 0px; text-decoration-thickness: initial; text-decoration-style: initial; text-decoration-color: initial; text-align: center;&quot;&gt;.SentBytes&lt;/font&gt;" style="text;whiteSpace=wrap;html=1;fontSize=17;fontColor=#000000;" parent="UaOLA1O39fD4inkuyz4F-1" vertex="1">
          <mxGeometry x="10" y="930" width="85.5" height="24" as="geometry" />
        </mxCell>
        <mxCell id="3Ts8TDuBTxamL5P1lUE9-81" value="packet.BTS" style="text;html=1;align=center;verticalAlign=middle;resizable=0;points=[];autosize=1;strokeColor=none;fillColor=none;fontSize=17;fontColor=#000000;" parent="UaOLA1O39fD4inkuyz4F-1" vertex="1">
          <mxGeometry x="-5" y="888" width="110" height="30" as="geometry" />
        </mxCell>
        <mxCell id="3Ts8TDuBTxamL5P1lUE9-82" value="FinishedDescValid&lt;br&gt;(Last Transaction for this Descriptor&lt;br&gt;because BytesToSend == SentBytes)" style="text;html=1;align=center;verticalAlign=middle;resizable=0;points=[];autosize=1;strokeColor=none;fillColor=none;fontSize=19;fontColor=#000000;" parent="UaOLA1O39fD4inkuyz4F-1" vertex="1">
          <mxGeometry x="365" y="915" width="340" height="80" as="geometry" />
        </mxCell>
        <mxCell id="3Ts8TDuBTxamL5P1lUE9-83" value="" style="shape=curlyBracket;whiteSpace=wrap;html=1;rounded=1;fontSize=21;" parent="UaOLA1O39fD4inkuyz4F-1" vertex="1">
          <mxGeometry x="-552" y="461" width="20" height="59" as="geometry" />
        </mxCell>
        <mxCell id="3Ts8TDuBTxamL5P1lUE9-84" value="&lt;span style=&quot;color: rgb(0, 0, 0); font-family: Helvetica; font-size: 18px; font-style: normal; font-variant-ligatures: normal; font-variant-caps: normal; font-weight: 400; letter-spacing: normal; orphans: 2; text-align: center; text-indent: 0px; text-transform: none; widows: 2; word-spacing: 0px; -webkit-text-stroke-width: 0px; background-color: rgb(248, 249, 250); text-decoration-thickness: initial; text-decoration-style: initial; text-decoration-color: initial; float: none; display: inline !important;&quot;&gt;From CHI Converter&lt;/span&gt;" style="text;whiteSpace=wrap;html=1;fontSize=18;fontColor=#000000;" parent="UaOLA1O39fD4inkuyz4F-1" vertex="1">
          <mxGeometry x="-650.5" y="464" width="109" height="40" as="geometry" />
        </mxCell>
        <mxCell id="3Ts8TDuBTxamL5P1lUE9-86" style="edgeStyle=orthogonalEdgeStyle;rounded=0;orthogonalLoop=1;jettySize=auto;html=1;strokeColor=#CC0066;strokeWidth=1;entryX=0;entryY=0.5;entryDx=0;entryDy=0;" parent="UaOLA1O39fD4inkuyz4F-1" target="3Ts8TDuBTxamL5P1lUE9-88" edge="1">
          <mxGeometry relative="1" as="geometry">
            <mxPoint x="-220" y="629" as="sourcePoint" />
            <Array as="points">
              <mxPoint x="-220" y="615" />
            </Array>
          </mxGeometry>
        </mxCell>
        <mxCell id="3Ts8TDuBTxamL5P1lUE9-87" style="edgeStyle=orthogonalEdgeStyle;rounded=0;orthogonalLoop=1;jettySize=auto;html=1;exitX=1;exitY=0.5;exitDx=0;exitDy=0;strokeColor=#CC0066;strokeWidth=1;" parent="UaOLA1O39fD4inkuyz4F-1" source="3Ts8TDuBTxamL5P1lUE9-88" target="3Ts8TDuBTxamL5P1lUE9-13" edge="1">
          <mxGeometry relative="1" as="geometry">
            <Array as="points">
              <mxPoint x="360" y="615" />
              <mxPoint x="360" y="615" />
            </Array>
          </mxGeometry>
        </mxCell>
        <mxCell id="3Ts8TDuBTxamL5P1lUE9-88" value="&lt;font style=&quot;font-size: 12px;&quot;&gt;&lt;font style=&quot;font-size: 21px;&quot;&gt;REGISTER&lt;/font&gt;&lt;br&gt;&lt;span style=&quot;&quot;&gt;(keepAddr&lt;/span&gt;&lt;span style=&quot;&quot;&gt;FromFIFO)&lt;/span&gt;&lt;/font&gt;" style="rounded=0;whiteSpace=wrap;html=1;" parent="UaOLA1O39fD4inkuyz4F-1" vertex="1">
          <mxGeometry x="190" y="585" width="124" height="60" as="geometry" />
        </mxCell>
        <mxCell id="3Ts8TDuBTxamL5P1lUE9-89" style="edgeStyle=orthogonalEdgeStyle;rounded=0;orthogonalLoop=1;jettySize=auto;html=1;exitX=0.998;exitY=0.074;exitDx=0;exitDy=0;entryX=0;entryY=0.75;entryDx=0;entryDy=0;strokeWidth=1;exitPerimeter=0;" parent="UaOLA1O39fD4inkuyz4F-1" source="3Ts8TDuBTxamL5P1lUE9-93" target="3Ts8TDuBTxamL5P1lUE9-58" edge="1">
          <mxGeometry relative="1" as="geometry">
            <Array as="points">
              <mxPoint x="110" y="420" />
              <mxPoint x="110" y="340" />
              <mxPoint x="-40" y="340" />
              <mxPoint x="-40" y="296" />
            </Array>
          </mxGeometry>
        </mxCell>
        <mxCell id="3Ts8TDuBTxamL5P1lUE9-90" style="edgeStyle=orthogonalEdgeStyle;rounded=0;orthogonalLoop=1;jettySize=auto;html=1;exitX=0.818;exitY=1.003;exitDx=0;exitDy=0;entryX=0.25;entryY=0;entryDx=0;entryDy=0;strokeWidth=1;exitPerimeter=0;" parent="UaOLA1O39fD4inkuyz4F-1" source="3Ts8TDuBTxamL5P1lUE9-93" target="3Ts8TDuBTxamL5P1lUE9-88" edge="1">
          <mxGeometry relative="1" as="geometry">
            <Array as="points" />
          </mxGeometry>
        </mxCell>
        <mxCell id="3Ts8TDuBTxamL5P1lUE9-92" style="edgeStyle=orthogonalEdgeStyle;rounded=0;orthogonalLoop=1;jettySize=auto;html=1;strokeColor=#000000;entryX=0.148;entryY=0.003;entryDx=0;entryDy=0;entryPerimeter=0;" parent="UaOLA1O39fD4inkuyz4F-1" source="3Ts8TDuBTxamL5P1lUE9-129" target="3Ts8TDuBTxamL5P1lUE9-93" edge="1">
          <mxGeometry relative="1" as="geometry">
            <Array as="points">
              <mxPoint x="-200" y="355" />
              <mxPoint x="-200" y="390" />
              <mxPoint x="-32" y="390" />
              <mxPoint x="-32" y="411" />
            </Array>
          </mxGeometry>
        </mxCell>
        <mxCell id="3Ts8TDuBTxamL5P1lUE9-148" style="edgeStyle=orthogonalEdgeStyle;rounded=0;orthogonalLoop=1;jettySize=auto;html=1;fontSize=17;" parent="UaOLA1O39fD4inkuyz4F-1" target="3Ts8TDuBTxamL5P1lUE9-147" edge="1">
          <mxGeometry relative="1" as="geometry">
            <mxPoint x="-30" y="531" as="sourcePoint" />
            <Array as="points">
              <mxPoint x="-30" y="531" />
              <mxPoint x="-30" y="553" />
              <mxPoint x="-160" y="553" />
            </Array>
          </mxGeometry>
        </mxCell>
        <mxCell id="3Ts8TDuBTxamL5P1lUE9-154" style="edgeStyle=orthogonalEdgeStyle;rounded=0;orthogonalLoop=1;jettySize=auto;html=1;exitX=0.5;exitY=1;exitDx=0;exitDy=0;fontSize=17;strokeWidth=1;" parent="UaOLA1O39fD4inkuyz4F-1" source="3Ts8TDuBTxamL5P1lUE9-93" target="3Ts8TDuBTxamL5P1lUE9-150" edge="1">
          <mxGeometry relative="1" as="geometry" />
        </mxCell>
        <mxCell id="3Ts8TDuBTxamL5P1lUE9-93" value="&lt;font style=&quot;font-size: 40px;&quot;&gt;FSM&lt;/font&gt;" style="rounded=0;whiteSpace=wrap;html=1;" parent="UaOLA1O39fD4inkuyz4F-1" vertex="1">
          <mxGeometry x="-54.5" y="411" width="150" height="120" as="geometry" />
        </mxCell>
        <mxCell id="3Ts8TDuBTxamL5P1lUE9-94" value="DescRegWESig" style="text;html=1;align=center;verticalAlign=middle;resizable=0;points=[];autosize=1;strokeColor=none;fillColor=none;fontSize=17;" parent="UaOLA1O39fD4inkuyz4F-1" vertex="1">
          <mxGeometry x="-15" y="313" width="150" height="30" as="geometry" />
        </mxCell>
        <mxCell id="3Ts8TDuBTxamL5P1lUE9-95" value="RegWESig" style="text;html=1;align=center;verticalAlign=middle;resizable=0;points=[];autosize=1;strokeColor=none;fillColor=none;fontSize=17;" parent="UaOLA1O39fD4inkuyz4F-1" vertex="1">
          <mxGeometry x="77.5" y="532" width="110" height="30" as="geometry" />
        </mxCell>
        <mxCell id="3Ts8TDuBTxamL5P1lUE9-96" style="edgeStyle=orthogonalEdgeStyle;rounded=0;orthogonalLoop=1;jettySize=auto;html=1;exitX=0;exitY=0.5;exitDx=0;exitDy=0;fontSize=12;fontColor=#000000;startArrow=none;startFill=0;endArrow=none;endFill=0;endSize=6;targetPerimeterSpacing=0;strokeColor=#000000;strokeWidth=1;" parent="UaOLA1O39fD4inkuyz4F-1" source="3Ts8TDuBTxamL5P1lUE9-100" edge="1">
          <mxGeometry relative="1" as="geometry">
            <mxPoint x="-33" y="754" as="targetPoint" />
            <Array as="points" />
          </mxGeometry>
        </mxCell>
        <mxCell id="3Ts8TDuBTxamL5P1lUE9-97" style="edgeStyle=orthogonalEdgeStyle;rounded=0;orthogonalLoop=1;jettySize=auto;html=1;exitX=0;exitY=0.25;exitDx=0;exitDy=0;entryX=0;entryY=1;entryDx=0;entryDy=0;strokeWidth=1;" parent="UaOLA1O39fD4inkuyz4F-1" source="3Ts8TDuBTxamL5P1lUE9-100" target="3Ts8TDuBTxamL5P1lUE9-99" edge="1">
          <mxGeometry relative="1" as="geometry">
            <Array as="points">
              <mxPoint x="-33" y="787" />
            </Array>
          </mxGeometry>
        </mxCell>
        <mxCell id="3Ts8TDuBTxamL5P1lUE9-98" style="edgeStyle=orthogonalEdgeStyle;rounded=0;orthogonalLoop=1;jettySize=auto;html=1;exitX=1;exitY=0.5;exitDx=0;exitDy=0;strokeWidth=1;" parent="UaOLA1O39fD4inkuyz4F-1" source="3Ts8TDuBTxamL5P1lUE9-99" target="3Ts8TDuBTxamL5P1lUE9-112" edge="1">
          <mxGeometry relative="1" as="geometry" />
        </mxCell>
        <mxCell id="3Ts8TDuBTxamL5P1lUE9-99" value="&lt;font style=&quot;font-size: 26px;&quot;&gt;+&lt;/font&gt;" style="ellipse;whiteSpace=wrap;html=1;aspect=fixed;" parent="UaOLA1O39fD4inkuyz4F-1" vertex="1">
          <mxGeometry x="172" y="762" width="29" height="29" as="geometry" />
        </mxCell>
        <mxCell id="3Ts8TDuBTxamL5P1lUE9-100" value="" style="triangle;whiteSpace=wrap;html=1;labelBackgroundColor=#CCE5FF;fontSize=12;fontColor=#000000;fillColor=#CCE5FF;" parent="UaOLA1O39fD4inkuyz4F-1" vertex="1">
          <mxGeometry x="-32.5" y="760" width="20" height="13" as="geometry" />
        </mxCell>
        <mxCell id="3Ts8TDuBTxamL5P1lUE9-101" value="" style="edgeStyle=orthogonalEdgeStyle;rounded=0;orthogonalLoop=1;jettySize=auto;html=1;fontSize=12;fontColor=#000000;startArrow=none;startFill=0;endArrow=classic;endFill=1;endSize=6;strokeColor=#000000;strokeWidth=1;entryX=0;entryY=0;entryDx=0;entryDy=0;targetPerimeterSpacing=18;" parent="UaOLA1O39fD4inkuyz4F-1" source="3Ts8TDuBTxamL5P1lUE9-100" target="3Ts8TDuBTxamL5P1lUE9-99" edge="1">
          <mxGeometry relative="1" as="geometry">
            <mxPoint x="37" y="766.5" as="targetPoint" />
            <mxPoint x="-183" y="754" as="sourcePoint" />
            <Array as="points" />
          </mxGeometry>
        </mxCell>
        <mxCell id="3Ts8TDuBTxamL5P1lUE9-102" value="" style="triangle;whiteSpace=wrap;html=1;labelBackgroundColor=#CCE5FF;fontSize=12;fontColor=#000000;fillColor=#CCE5FF;" parent="UaOLA1O39fD4inkuyz4F-1" vertex="1">
          <mxGeometry x="-32.5" y="780" width="20" height="13" as="geometry" />
        </mxCell>
        <mxCell id="3Ts8TDuBTxamL5P1lUE9-103" value="&lt;font style=&quot;font-size: 17px;&quot;&gt;&lt;span style=&quot;color: rgb(0, 0, 0); font-family: Helvetica; font-style: normal; font-variant-ligatures: normal; font-variant-caps: normal; font-weight: 400; letter-spacing: normal; orphans: 2; text-indent: 0px; text-transform: none; widows: 2; word-spacing: 0px; -webkit-text-stroke-width: 0px; text-decoration-thickness: initial; text-decoration-style: initial; text-decoration-color: initial; text-align: center; float: none; display: inline !important;&quot;&gt;packet&lt;/span&gt;&lt;font style=&quot;color: rgb(0, 0, 0); font-family: Helvetica; font-style: normal; font-variant-ligatures: normal; font-variant-caps: normal; font-weight: 400; letter-spacing: normal; orphans: 2; text-indent: 0px; text-transform: none; widows: 2; word-spacing: 0px; -webkit-text-stroke-width: 0px; text-decoration-thickness: initial; text-decoration-style: initial; text-decoration-color: initial; text-align: center; font-size: 17px;&quot;&gt;.SentBytes&lt;/font&gt;&lt;/font&gt;" style="text;whiteSpace=wrap;html=1;fontSize=12;fontColor=#000000;" parent="UaOLA1O39fD4inkuyz4F-1" vertex="1">
          <mxGeometry x="-8" y="760" width="85.5" height="24" as="geometry" />
        </mxCell>
        <mxCell id="3Ts8TDuBTxamL5P1lUE9-104" value="&lt;font style=&quot;font-size: 17px;&quot;&gt;packet.SrcAddr&lt;/font&gt;" style="text;html=1;align=center;verticalAlign=middle;resizable=0;points=[];autosize=1;strokeColor=none;fillColor=none;fontSize=12;fontColor=#000000;" parent="UaOLA1O39fD4inkuyz4F-1" vertex="1">
          <mxGeometry x="-20" y="739" width="140" height="30" as="geometry" />
        </mxCell>
        <mxCell id="3Ts8TDuBTxamL5P1lUE9-105" style="edgeStyle=orthogonalEdgeStyle;rounded=0;orthogonalLoop=1;jettySize=auto;html=1;exitX=0;exitY=0.5;exitDx=0;exitDy=0;fontSize=12;fontColor=#000000;startArrow=none;startFill=0;endArrow=none;endFill=0;endSize=6;targetPerimeterSpacing=0;strokeColor=#000000;strokeWidth=1;entryX=0;entryY=0.75;entryDx=0;entryDy=0;" parent="UaOLA1O39fD4inkuyz4F-1" target="3Ts8TDuBTxamL5P1lUE9-100" edge="1">
          <mxGeometry relative="1" as="geometry">
            <mxPoint x="-32" y="790" as="targetPoint" />
            <Array as="points">
              <mxPoint x="-32" y="790" />
              <mxPoint x="-32" y="790" />
            </Array>
            <mxPoint x="-31.75" y="836.5000000000005" as="sourcePoint" />
          </mxGeometry>
        </mxCell>
        <mxCell id="3Ts8TDuBTxamL5P1lUE9-106" value="" style="triangle;whiteSpace=wrap;html=1;labelBackgroundColor=#CCE5FF;fontSize=12;fontColor=#000000;fillColor=#CCE5FF;" parent="UaOLA1O39fD4inkuyz4F-1" vertex="1">
          <mxGeometry x="-31.75" y="831" width="20" height="13" as="geometry" />
        </mxCell>
        <mxCell id="3Ts8TDuBTxamL5P1lUE9-107" value="" style="edgeStyle=orthogonalEdgeStyle;rounded=0;orthogonalLoop=1;jettySize=auto;html=1;fontSize=12;fontColor=#000000;startArrow=none;startFill=0;endArrow=classic;endFill=1;endSize=6;strokeColor=#000000;strokeWidth=1;entryX=0;entryY=1;entryDx=0;entryDy=0;targetPerimeterSpacing=18;" parent="UaOLA1O39fD4inkuyz4F-1" source="3Ts8TDuBTxamL5P1lUE9-106" target="3Ts8TDuBTxamL5P1lUE9-111" edge="1">
          <mxGeometry relative="1" as="geometry">
            <mxPoint x="97.99695167279697" y="836.2469516727974" as="targetPoint" />
            <mxPoint x="-182.25" y="824" as="sourcePoint" />
            <Array as="points">
              <mxPoint x="40" y="838" />
              <mxPoint x="40" y="838" />
            </Array>
          </mxGeometry>
        </mxCell>
        <mxCell id="3Ts8TDuBTxamL5P1lUE9-108" value="&lt;font style=&quot;font-size: 17px;&quot;&gt;packet.DstAddr&lt;/font&gt;" style="text;html=1;align=center;verticalAlign=middle;resizable=0;points=[];autosize=1;strokeColor=none;fillColor=none;fontSize=12;fontColor=#000000;" parent="UaOLA1O39fD4inkuyz4F-1" vertex="1">
          <mxGeometry x="-20.5" y="831" width="140" height="30" as="geometry" />
        </mxCell>
        <mxCell id="3Ts8TDuBTxamL5P1lUE9-109" style="edgeStyle=orthogonalEdgeStyle;rounded=0;orthogonalLoop=1;jettySize=auto;html=1;entryX=0;entryY=0;entryDx=0;entryDy=0;strokeWidth=1;" parent="UaOLA1O39fD4inkuyz4F-1" target="3Ts8TDuBTxamL5P1lUE9-111" edge="1">
          <mxGeometry relative="1" as="geometry">
            <mxPoint x="51" y="787" as="sourcePoint" />
            <Array as="points">
              <mxPoint x="51" y="817" />
            </Array>
          </mxGeometry>
        </mxCell>
        <mxCell id="3Ts8TDuBTxamL5P1lUE9-110" style="edgeStyle=orthogonalEdgeStyle;rounded=0;orthogonalLoop=1;jettySize=auto;html=1;exitX=1;exitY=0.5;exitDx=0;exitDy=0;strokeWidth=1;" parent="UaOLA1O39fD4inkuyz4F-1" source="3Ts8TDuBTxamL5P1lUE9-111" target="3Ts8TDuBTxamL5P1lUE9-113" edge="1">
          <mxGeometry relative="1" as="geometry" />
        </mxCell>
        <mxCell id="3Ts8TDuBTxamL5P1lUE9-111" value="&lt;font style=&quot;font-size: 26px;&quot;&gt;+&lt;/font&gt;" style="ellipse;whiteSpace=wrap;html=1;aspect=fixed;" parent="UaOLA1O39fD4inkuyz4F-1" vertex="1">
          <mxGeometry x="172" y="813" width="29" height="29" as="geometry" />
        </mxCell>
        <mxCell id="3Ts8TDuBTxamL5P1lUE9-112" value="ReadAddr" style="text;html=1;align=center;verticalAlign=middle;resizable=0;points=[];autosize=1;strokeColor=none;fillColor=none;fontSize=19;" parent="UaOLA1O39fD4inkuyz4F-1" vertex="1">
          <mxGeometry x="595" y="757" width="110" height="40" as="geometry" />
        </mxCell>
        <mxCell id="3Ts8TDuBTxamL5P1lUE9-113" value="WriteAddr" style="text;html=1;align=center;verticalAlign=middle;resizable=0;points=[];autosize=1;strokeColor=none;fillColor=none;fontSize=19;" parent="UaOLA1O39fD4inkuyz4F-1" vertex="1">
          <mxGeometry x="595" y="807" width="110" height="40" as="geometry" />
        </mxCell>
        <mxCell id="3Ts8TDuBTxamL5P1lUE9-114" value="ReadLengh,WriteLength" style="text;html=1;align=center;verticalAlign=middle;resizable=0;points=[];autosize=1;strokeColor=none;fillColor=none;fontSize=19;" parent="UaOLA1O39fD4inkuyz4F-1" vertex="1">
          <mxGeometry x="475" y="709" width="230" height="40" as="geometry" />
        </mxCell>
        <mxCell id="3Ts8TDuBTxamL5P1lUE9-115" style="edgeStyle=orthogonalEdgeStyle;rounded=0;orthogonalLoop=1;jettySize=auto;html=1;strokeWidth=1;exitX=0.636;exitY=1.015;exitDx=0;exitDy=0;exitPerimeter=0;" parent="UaOLA1O39fD4inkuyz4F-1" source="3Ts8TDuBTxamL5P1lUE9-93" target="3Ts8TDuBTxamL5P1lUE9-114" edge="1">
          <mxGeometry relative="1" as="geometry">
            <mxPoint x="274" y="745" as="sourcePoint" />
            <mxPoint x="510" y="801.0526315789475" as="targetPoint" />
            <Array as="points">
              <mxPoint x="41" y="730" />
            </Array>
          </mxGeometry>
        </mxCell>
        <mxCell id="3Ts8TDuBTxamL5P1lUE9-117" value="&lt;span style=&quot;font-size: 19px;&quot;&gt;DescDataOut&lt;/span&gt;" style="text;html=1;align=center;verticalAlign=middle;resizable=0;points=[];autosize=1;strokeColor=none;fillColor=none;rotation=0;fontSize=17;" parent="UaOLA1O39fD4inkuyz4F-1" vertex="1">
          <mxGeometry x="153" y="442" width="140" height="40" as="geometry" />
        </mxCell>
        <mxCell id="3Ts8TDuBTxamL5P1lUE9-119" value="FIFO_out(Pointer)" style="text;html=1;align=center;verticalAlign=middle;resizable=0;points=[];autosize=1;strokeColor=none;fillColor=none;fontSize=17;" parent="UaOLA1O39fD4inkuyz4F-1" vertex="1">
          <mxGeometry x="129" y="296" width="160" height="30" as="geometry" />
        </mxCell>
        <mxCell id="3Ts8TDuBTxamL5P1lUE9-120" value="SigDescDataOut" style="text;html=1;align=center;verticalAlign=middle;resizable=0;points=[];autosize=1;strokeColor=none;fillColor=none;fontSize=17;" parent="UaOLA1O39fD4inkuyz4F-1" vertex="1">
          <mxGeometry x="-219" y="740" width="150" height="30" as="geometry" />
        </mxCell>
        <mxCell id="3Ts8TDuBTxamL5P1lUE9-121" value="DescDataOut" style="text;html=1;align=center;verticalAlign=middle;resizable=0;points=[];autosize=1;strokeColor=none;fillColor=none;fontSize=17;" parent="UaOLA1O39fD4inkuyz4F-1" vertex="1">
          <mxGeometry x="-238.5" y="485.5" width="130" height="30" as="geometry" />
        </mxCell>
        <mxCell id="3Ts8TDuBTxamL5P1lUE9-122" style="edgeStyle=orthogonalEdgeStyle;rounded=0;orthogonalLoop=1;jettySize=auto;html=1;fontSize=12;" parent="UaOLA1O39fD4inkuyz4F-1" source="3Ts8TDuBTxamL5P1lUE9-36" target="3Ts8TDuBTxamL5P1lUE9-123" edge="1">
          <mxGeometry relative="1" as="geometry">
            <mxPoint x="400" y="275.0000000000002" as="targetPoint" />
            <mxPoint x="350" y="282" as="sourcePoint" />
            <Array as="points" />
          </mxGeometry>
        </mxCell>
        <mxCell id="3Ts8TDuBTxamL5P1lUE9-123" value="WE [NumOfRegInDesc-1:0]" style="text;html=1;align=center;verticalAlign=middle;resizable=0;points=[];autosize=1;strokeColor=none;fillColor=none;fontSize=19;" parent="UaOLA1O39fD4inkuyz4F-1" vertex="1">
          <mxGeometry x="451" y="189" width="260" height="40" as="geometry" />
        </mxCell>
        <mxCell id="3Ts8TDuBTxamL5P1lUE9-124" style="edgeStyle=orthogonalEdgeStyle;rounded=0;orthogonalLoop=1;jettySize=auto;html=1;exitX=0.25;exitY=1;exitDx=0;exitDy=0;startArrow=classic;startFill=1;endArrow=none;endFill=0;" parent="UaOLA1O39fD4inkuyz4F-1" source="3Ts8TDuBTxamL5P1lUE9-36" target="3Ts8TDuBTxamL5P1lUE9-136" edge="1">
          <mxGeometry relative="1" as="geometry">
            <mxPoint x="286" y="178.5" as="sourcePoint" />
            <mxPoint x="279.5" y="186" as="targetPoint" />
            <Array as="points" />
          </mxGeometry>
        </mxCell>
        <mxCell id="3Ts8TDuBTxamL5P1lUE9-125" style="edgeStyle=orthogonalEdgeStyle;rounded=0;orthogonalLoop=1;jettySize=auto;html=1;exitX=0.75;exitY=1;exitDx=0;exitDy=0;fontSize=12;startArrow=classic;startFill=1;endArrow=none;endFill=0;endSize=15;sourcePerimeterSpacing=18;targetPerimeterSpacing=0;strokeColor=#000000;" parent="UaOLA1O39fD4inkuyz4F-1" source="3Ts8TDuBTxamL5P1lUE9-36" edge="1">
          <mxGeometry relative="1" as="geometry">
            <mxPoint x="286" y="199" as="sourcePoint" />
            <mxPoint x="277.5" y="232.00000000000045" as="targetPoint" />
          </mxGeometry>
        </mxCell>
        <mxCell id="3Ts8TDuBTxamL5P1lUE9-126" value="" style="edgeStyle=orthogonalEdgeStyle;rounded=0;orthogonalLoop=1;jettySize=auto;html=1;strokeColor=#000000;strokeWidth=1;entryX=1;entryY=0.5;entryDx=0;entryDy=0;" parent="UaOLA1O39fD4inkuyz4F-1" source="3Ts8TDuBTxamL5P1lUE9-127" target="3Ts8TDuBTxamL5P1lUE9-36" edge="1">
          <mxGeometry relative="1" as="geometry">
            <mxPoint x="299.04347826086996" y="268.0000000000002" as="sourcePoint" />
            <Array as="points">
              <mxPoint x="315" y="255" />
              <mxPoint x="315" y="255" />
            </Array>
          </mxGeometry>
        </mxCell>
        <mxCell id="3Ts8TDuBTxamL5P1lUE9-127" value="WEControl" style="text;html=1;align=center;verticalAlign=middle;resizable=0;points=[];autosize=1;strokeColor=none;fillColor=none;fontSize=17;" parent="UaOLA1O39fD4inkuyz4F-1" vertex="1">
          <mxGeometry x="254" y="261" width="110" height="30" as="geometry" />
        </mxCell>
        <mxCell id="3Ts8TDuBTxamL5P1lUE9-128" value="AddrCont" style="text;html=1;align=center;verticalAlign=middle;resizable=0;points=[];autosize=1;strokeColor=none;fillColor=none;rotation=0;fontSize=17;" parent="UaOLA1O39fD4inkuyz4F-1" vertex="1">
          <mxGeometry x="255" y="402" width="100" height="30" as="geometry" />
        </mxCell>
        <mxCell id="3Ts8TDuBTxamL5P1lUE9-129" value="ReadyRegSpace&lt;br&gt;(obtained control of RegSpace)" style="text;html=1;align=center;verticalAlign=middle;resizable=0;points=[];autosize=1;strokeColor=none;fillColor=none;fontSize=19;" parent="UaOLA1O39fD4inkuyz4F-1" vertex="1">
          <mxGeometry x="-546" y="325" width="290" height="60" as="geometry" />
        </mxCell>
        <mxCell id="3Ts8TDuBTxamL5P1lUE9-130" value="" style="shape=curlyBracket;whiteSpace=wrap;html=1;rounded=1;fontSize=21;" parent="UaOLA1O39fD4inkuyz4F-1" vertex="1">
          <mxGeometry x="-553" y="345" width="20" height="32" as="geometry" />
        </mxCell>
        <mxCell id="3Ts8TDuBTxamL5P1lUE9-131" value="From RegSpace Arbiter" style="text;html=1;align=center;verticalAlign=middle;resizable=0;points=[];autosize=1;strokeColor=none;fillColor=none;fontSize=18;" parent="UaOLA1O39fD4inkuyz4F-1" vertex="1">
          <mxGeometry x="-751" y="341" width="210" height="40" as="geometry" />
        </mxCell>
        <mxCell id="3Ts8TDuBTxamL5P1lUE9-132" value="ValidRegSpace&lt;br&gt;(Want to Write FIFO)" style="text;html=1;align=center;verticalAlign=middle;resizable=0;points=[];autosize=1;strokeColor=none;fillColor=none;fontSize=19;" parent="UaOLA1O39fD4inkuyz4F-1" vertex="1">
          <mxGeometry x="505" y="410" width="200" height="60" as="geometry" />
        </mxCell>
        <mxCell id="3Ts8TDuBTxamL5P1lUE9-133" style="edgeStyle=orthogonalEdgeStyle;rounded=0;orthogonalLoop=1;jettySize=auto;html=1;exitX=1;exitY=0.25;exitDx=0;exitDy=0;strokeColor=#000000;" parent="UaOLA1O39fD4inkuyz4F-1" source="3Ts8TDuBTxamL5P1lUE9-93" target="3Ts8TDuBTxamL5P1lUE9-132" edge="1">
          <mxGeometry relative="1" as="geometry">
            <mxPoint x="345" y="385" as="sourcePoint" />
          </mxGeometry>
        </mxCell>
        <mxCell id="3Ts8TDuBTxamL5P1lUE9-134" value="DescAddrPointer" style="text;html=1;align=center;verticalAlign=middle;resizable=0;points=[];autosize=1;strokeColor=none;fillColor=none;fontSize=17;" parent="UaOLA1O39fD4inkuyz4F-1" vertex="1">
          <mxGeometry x="133.13" y="347" width="150" height="30" as="geometry" />
        </mxCell>
        <mxCell id="3Ts8TDuBTxamL5P1lUE9-135" value="WE[SentBytesIndx] = 1" style="text;html=1;align=center;verticalAlign=middle;resizable=0;points=[];autosize=1;strokeColor=none;fillColor=none;fontSize=17;" parent="UaOLA1O39fD4inkuyz4F-1" vertex="1">
          <mxGeometry x="77.5" y="216" width="200" height="30" as="geometry" />
        </mxCell>
        <mxCell id="3Ts8TDuBTxamL5P1lUE9-136" value="0" style="text;html=1;align=center;verticalAlign=middle;resizable=0;points=[];autosize=1;strokeColor=none;fillColor=none;fontSize=17;" parent="UaOLA1O39fD4inkuyz4F-1" vertex="1">
          <mxGeometry x="244" y="171.5" width="30" height="30" as="geometry" />
        </mxCell>
        <mxCell id="3Ts8TDuBTxamL5P1lUE9-138" style="edgeStyle=orthogonalEdgeStyle;rounded=0;orthogonalLoop=1;jettySize=auto;html=1;fontSize=17;exitX=1;exitY=0.75;exitDx=0;exitDy=0;" parent="UaOLA1O39fD4inkuyz4F-1" source="3Ts8TDuBTxamL5P1lUE9-93" target="3Ts8TDuBTxamL5P1lUE9-137" edge="1">
          <mxGeometry relative="1" as="geometry">
            <Array as="points">
              <mxPoint x="96" y="505" />
            </Array>
          </mxGeometry>
        </mxCell>
        <mxCell id="3Ts8TDuBTxamL5P1lUE9-137" value="&lt;span style=&quot;font-size: 17px;&quot;&gt;DescRegInCon&lt;/span&gt;" style="text;html=1;align=center;verticalAlign=middle;resizable=0;points=[];autosize=1;strokeColor=none;fillColor=none;" parent="UaOLA1O39fD4inkuyz4F-1" vertex="1">
          <mxGeometry x="156" y="490" width="140" height="30" as="geometry" />
        </mxCell>
        <mxCell id="3Ts8TDuBTxamL5P1lUE9-143" value="&lt;span style=&quot;font-size: 19px;&quot;&gt;DescDataIn&lt;/span&gt;" style="text;html=1;align=center;verticalAlign=middle;resizable=0;points=[];autosize=1;strokeColor=none;fillColor=none;fontSize=17;" parent="UaOLA1O39fD4inkuyz4F-1" vertex="1">
          <mxGeometry x="-233.5" y="227.13" width="120" height="40" as="geometry" />
        </mxCell>
        <mxCell id="3Ts8TDuBTxamL5P1lUE9-144" value="DescDataOut" style="text;html=1;align=center;verticalAlign=middle;resizable=0;points=[];autosize=1;strokeColor=none;fillColor=none;fontSize=19;" parent="UaOLA1O39fD4inkuyz4F-1" vertex="1">
          <mxGeometry x="-238.5" y="261" width="140" height="40" as="geometry" />
        </mxCell>
        <mxCell id="3Ts8TDuBTxamL5P1lUE9-146" value="DescRegInCon" style="text;html=1;align=center;verticalAlign=middle;resizable=0;points=[];autosize=1;strokeColor=none;fillColor=none;fontSize=17;" parent="UaOLA1O39fD4inkuyz4F-1" vertex="1">
          <mxGeometry x="-233.5" y="311" width="140" height="30" as="geometry" />
        </mxCell>
        <mxCell id="3Ts8TDuBTxamL5P1lUE9-147" value="AddrCont" style="text;html=1;align=center;verticalAlign=middle;resizable=0;points=[];autosize=1;strokeColor=none;fillColor=none;fontSize=17;" parent="UaOLA1O39fD4inkuyz4F-1" vertex="1">
          <mxGeometry x="-143.5" y="573" width="100" height="30" as="geometry" />
        </mxCell>
        <mxCell id="3Ts8TDuBTxamL5P1lUE9-150" value="&lt;span style=&quot;font-size: 17px;&quot;&gt;WEControl&lt;/span&gt;" style="text;html=1;align=center;verticalAlign=middle;resizable=0;points=[];autosize=1;strokeColor=none;fillColor=none;fontSize=19;" parent="UaOLA1O39fD4inkuyz4F-1" vertex="1">
          <mxGeometry x="-60.5" y="568" width="110" height="40" as="geometry" />
        </mxCell>
      </root>
    </mxGraphModel>
  </diagram>
</mxfile>
